{
.appVersion = "1352";
copyright = "Copyright 2013-2021 The Nauthigal Project Authors (https://github.com/googlefonts/the-nautigal)";
customParameters = (
{
name = licenseURL;
value = "https://scripts.sil.org/OFL";
},
{
name = license;
value = "This Font Software is licensed under the SIL Open Font License, Version 1.1. This license is available with a FAQ at: https://scripts.sil.org/OFL";
},
{
name = vendorID;
value = GOOG;
},
{
name = "Disable Subroutines";
value = 1;
},
{
name = glyphOrder;
value = (
.notdef,
CR,
NULL,
space,
nbspace
);
},
{
name = fsType;
value = (
);
},
{
name = "Use Typo Metrics";
value = 1;
},
{
name = Axes;
value = (
{
Name = Weight;
Tag = wght;
}
);
}
);
date = "2021-10-20 20:54:06 +0000";
designer = "Robert E. Leuschke";
designerURL = www.typesetit.com;
familyName = "The Nautigal";
featurePrefixes = (
{
automatic = 1;
code = "languagesystem DFLT dflt;\012\012languagesystem latn dflt;\012";
name = Languagesystems;
}
);
features = (
{
automatic = 1;
code = "feature sups;\012feature frac;\012feature ordn;\012";
name = aalt;
},
{
automatic = 1;
code = "lookup ccmp_latn_1 {\012	lookupflag 0;\012	sub brevecomb acutecomb by brevecomb_acutecomb;\012	sub brevecomb gravecomb by brevecomb_gravecomb;\012	sub brevecomb hookabovecomb by brevecomb_hookabovecomb;\012	sub brevecomb tildecomb by brevecomb_tildecomb;\012	sub circumflexcomb acutecomb by circumflexcomb_acutecomb;\012	sub circumflexcomb gravecomb by circumflexcomb_gravecomb;\012	sub circumflexcomb hookabovecomb by circumflexcomb_hookabovecomb;\012	sub circumflexcomb tildecomb by circumflexcomb_tildecomb;\012} ccmp_latn_1;\012\012script latn;\012lookup ccmp_latn_1;\012";
name = ccmp;
},
{
automatic = 1;
code = "sub one by onesuperior;\012sub two by twosuperior;\012sub three by threesuperior;\012";
name = sups;
},
{
automatic = 1;
code = "sub one slash four by onequarter;\012sub one slash two by onehalf;\012sub three slash four by threequarters;\012";
name = frac;
},
{
automatic = 1;

glyphs = (
{
glyphname = A;
lastChange = "2021-09-06 07:58:07 +0000";
layers = (
{
hints = (
{
horizontal = 1;
place = "{-169, 32}";
type = Stem;
},
{
horizontal = 1;
place = "{168, 41}";
type = Stem;
},
{
place = "{-149, 12}";
type = Stem;
},
{
place = "{11, 29}";
type = Stem;
},
{
place = "{711, 20}";
type = Stem;
}
);
layerId = "E1C4CDDB-EFDF-468A-8ACC-65E2DFDE53DF";
paths = (
{
closed = 1;
nodes = (
"830 624 OFFCURVE",
"794 610 OFFCURVE",
"765 625 CURVE",
"745 604 OFFCURVE",
"733 582 OFFCURVE",
"712 561 CURVE SMOOTH",
"644 489 OFFCURVE",
"588 418 OFFCURVE",
"522 345 CURVE SMOOTH",
"478 297 LINE",
"357 278 OFFCURVE",
"226 230 OFFCURVE",
"98 211 CURVE SMOOTH",
"28 200 OFFCURVE",
"17 242 OFFCURVE",
"91 277 CURVE SMOOTH",
"132 297 OFFCURVE",
"195 317 OFFCURVE",
"226 323 CURVE SMOOTH",
"239 325 OFFCURVE",
"249 334 OFFCURVE",
"228 334 CURVE SMOOTH",
"183 334 OFFCURVE",
"11 275 OFFCURVE",
"11 233 CURVE SMOOTH",
"11 212 OFFCURVE",
"27 189 OFFCURVE",
"43 178 CURVE SMOOTH",
"72 159 OFFCURVE",
"102 173 OFFCURVE",
"133 178 CURVE SMOOTH",
"241 197 OFFCURVE",
"354 242 OFFCURVE",
"457 267 CURVE",
"428 234 OFFCURVE",
"375 172 OFFCURVE",
"347 138 CURVE SMOOTH",
"254 28 OFFCURVE",
"148 -114 OFFCURVE",
"-6 -135 CURVE SMOOTH",
"-20 -136 OFFCURVE",
"-34 -137 OFFCURVE",
"-48 -137 CURVE SMOOTH",
"-82 -137 OFFCURVE",
"-137 -123 OFFCURVE",
"-137 -75 CURVE SMOOTH",
"-137 -65 OFFCURVE",
"-149 -64 OFFCURVE",
"-149 -74 CURVE SMOOTH",
"-149 -147 OFFCURVE",
"-81 -169 OFFCURVE",
"-19 -169 CURVE SMOOTH",
"169 -169 OFFCURVE",
"370 127 OFFCURVE",
"486 272 CURVE",
"531 281 OFFCURVE",
"575 289 OFFCURVE",
"621 286 CURVE",
"582 193 OFFCURVE",
"537 90 OFFCURVE",
"544 33 CURVE SMOOTH",
"546 19 OFFCURVE",
"554 -2 OFFCURVE",
"566 -12 CURVE SMOOTH",
"577 -20 OFFCURVE",
"598 -34 OFFCURVE",
"610 -36 CURVE SMOOTH",
"637 -40 OFFCURVE",
"656 8 OFFCURVE",
"668 26 CURVE SMOOTH",
"672 33 OFFCURVE",
"676 39 OFFCURVE",
"679 46 CURVE SMOOTH",
"683 55 OFFCURVE",
"675 51 OFFCURVE",
"670 44 CURVE SMOOTH",
"656 24 OFFCURVE",
"627 -10 OFFCURVE",
"600 -10 CURVE SMOOTH",
"586 -10 OFFCURVE",
"581 4 OFFCURVE",
"580 16 CURVE SMOOTH",
"579 29 OFFCURVE",
"581 42 OFFCURVE",
"584 55 CURVE SMOOTH",
"599 120 OFFCURVE",
"630 208 OFFCURVE",
"669 278 CURVE",
"689 270 OFFCURVE",
"711 252 OFFCURVE",
"711 232 CURVE SMOOTH",
"711 188 OFFCURVE",
"677 167 OFFCURVE",
"658 152 CURVE SMOOTH",
"656 150 OFFCURVE",
"659 146 OFFCURVE",
"661 147 CURVE SMOOTH",
"694 169 OFFCURVE",
"744 190 OFFCURVE",
"744 212 CURVE SMOOTH",
"744 225 OFFCURVE",
"741 231 OFFCURVE",
"731 240 CURVE",
"734 265 OFFCURVE",
"698 286 OFFCURVE",
"677 294 CURVE",
"698 332 OFFCURVE",
"772 456 OFFCURVE",
"822 534 CURVE SMOOTH",
"830 545 OFFCURVE",
"841 571 OFFCURVE",
"838 586 CURVE SMOOTH"
);
},
{
closed = 1;
nodes = (
"767 571 OFFCURVE",
"792 581 OFFCURVE",
"772 550 CURVE SMOOTH",
"741 504 OFFCURVE",
"646 346 OFFCURVE",
"628 306 CURVE",
"616 306 OFFCURVE",
"603 306 OFFCURVE",
"595 306 CURVE SMOOTH",
"566 306 OFFCURVE",
"538 305 OFFCURVE",
"508 301 CURVE",
"553 352 OFFCURVE",
"687 502 OFFCURVE",
"742 550 CURVE SMOOTH"
);
}
);
width = 703;
},
{
anchors = (
{
name = bottom;
position = "{357, -62}";
},
{
name = ogonek;
position = "{687, -25}";
},
{
name = top;
position = "{848, 713}";
}
);
hints = (
{
horizontal = 1;
place = "{-180, 48}";
type = Stem;
},
{
horizontal = 1;
place = "{-44, 34}";
type = Stem;
},
{
horizontal = 1;
place = "{272, 35}";
type = Stem;
},
{
place = "{-149, 12}";
type = Stem;
},
{
place = "{11, 36}";
type = Stem;
},
{
place = "{540, 40}";
type = Stem;
},
{
place = "{706, 34}";
type = Stem;
}
);
layerId = "10EE7422-BC27-45A8-8DF8-0D41623AEA15";
paths = (
{
closed = 1;
nodes = (
"847 631 OFFCURVE",
"794 610 OFFCURVE",
"765 625 CURVE",
"745 604 OFFCURVE",
"733 582 OFFCURVE",
"712 561 CURVE SMOOTH",
"644 489 OFFCURVE",
"578 417 OFFCURVE",
"512 344 CURVE SMOOTH",
"468 295 LINE",
"347 276 OFFCURVE",
"224 238 OFFCURVE",
"104 226 CURVE SMOOTH",
"98 225 OFFCURVE",
"91 225 OFFCURVE",
"85 225 CURVE SMOOTH",
"77 225 OFFCURVE",
"47 226 OFFCURVE",
"47 238 CURVE SMOOTH",
"47 266 OFFCURVE",
"208 315 OFFCURVE",
"238 325 CURVE",
"238 326 OFFCURVE",
"240 329 OFFCURVE",
"240 330 CURVE SMOOTH",
"240 334 OFFCURVE",
"230 334 OFFCURVE",
"228 334 CURVE SMOOTH",
"183 334 OFFCURVE",
"11 286 OFFCURVE",
"11 233 CURVE SMOOTH",
"11 198 OFFCURVE",
"26 159 OFFCURVE",
"66 159 CURVE SMOOTH",
"68 159 OFFCURVE",
"70 159 OFFCURVE",
"72 159 CURVE SMOOTH",
"194 171 OFFCURVE",
"308 220 OFFCURVE",
"427 250 CURVE",
"397 217 OFFCURVE",
"368 184 OFFCURVE",
"339 150 CURVE SMOOTH",
"246 40 OFFCURVE",
"143 -109 OFFCURVE",
"-11 -130 CURVE SMOOTH",
"-25 -131 OFFCURVE",
"-39 -132 OFFCURVE",
"-53 -132 CURVE SMOOTH",
"-91 -132 OFFCURVE",
"-137 -123 OFFCURVE",
"-137 -75 CURVE SMOOTH",
"-137 -71 OFFCURVE",
"-139 -67 OFFCURVE",
"-143 -67 CURVE SMOOTH",
"-147 -67 OFFCURVE",
"-149 -71 OFFCURVE",
"-149 -74 CURVE SMOOTH",
"-149 -147 OFFCURVE",
"-64 -180 OFFCURVE",
"-2 -180 CURVE SMOOTH",
"186 -180 OFFCURVE",
"357 115 OFFCURVE",
"473 260 CURVE",
"511 267 OFFCURVE",
"550 272 OFFCURVE",
"589 272 CURVE SMOOTH",
"595 272 OFFCURVE",
"603 272 OFFCURVE",
"611 271 CURVE",
"570 179 OFFCURVE",
"536 84 OFFCURVE",
"540 26 CURVE SMOOTH",
"542 12 OFFCURVE",
"545 -1 OFFCURVE",
"558 -11 CURVE SMOOTH",
"568 -19 OFFCURVE",
"610 -44 OFFCURVE",
"623 -44 CURVE SMOOTH",
"649 -44 OFFCURVE",
"661 5 OFFCURVE",
"670 25 CURVE SMOOTH",
"674 33 OFFCURVE",
"677 38 OFFCURVE",
"679 46 CURVE SMOOTH",
"682 55 OFFCURVE",
"675 51 OFFCURVE",
"670 44 CURVE SMOOTH",
"656 24 OFFCURVE",
"627 -10 OFFCURVE",
"600 -10 CURVE SMOOTH",
"586 -10 OFFCURVE",
"581 4 OFFCURVE",
"580 16 CURVE SMOOTH",
"579 29 OFFCURVE",
"581 42 OFFCURVE",
"584 55 CURVE SMOOTH",
"599 120 OFFCURVE",
"632 191 OFFCURVE",
"670 261 CURVE",
"690 253 OFFCURVE",
"706 241 OFFCURVE",
"706 221 CURVE SMOOTH",
"706 178 OFFCURVE",
"654 152 OFFCURVE",
"654 145 CURVE SMOOTH",
"654 143 OFFCURVE",
"655 140 OFFCURVE",
"657 140 CURVE SMOOTH",
"665 140 OFFCURVE",
"680 154 OFFCURVE",
"689 158 CURVE SMOOTH",
"712 169 OFFCURVE",
"740 172 OFFCURVE",
"740 205 CURVE SMOOTH",
"740 218 OFFCURVE",
"728 236 OFFCURVE",
"722 247 CURVE",
"725 272 OFFCURVE",
"711 287 OFFCURVE",
"689 295 CURVE",
"723 354 OFFCURVE",
"759 410 OFFCURVE",
"789 458 CURVE SMOOTH",
"807 486 OFFCURVE",
"825 514 OFFCURVE",
"841 543 CURVE SMOOTH",
"848 554 OFFCURVE",
"853 567 OFFCURVE",
"852 582 CURVE SMOOTH"
);
},
{
closed = 1;
nodes = (
"727 505 OFFCURVE",
"720 493 OFFCURVE",
"717 487 CURVE SMOOTH",
"696 445 OFFCURVE",
"660 378 OFFCURVE",
"627 306 CURVE",
"615 307 OFFCURVE",
"605 307 OFFCURVE",
"596 307 CURVE SMOOTH",
"567 307 OFFCURVE",
"538 305 OFFCURVE",
"508 301 CURVE",
"562 362 OFFCURVE",
"702 517 OFFCURVE",
"724 517 CURVE SMOOTH",
"726 517 OFFCURVE",
"726 515 OFFCURVE",
"726 513 CURVE SMOOTH"
);
}
);
width = 703;
}
);
note = A;
unicode = 0041;
},
{
glyphname = AE;
lastChange = "2021-09-06 07:58:07 +0000";
layers = (
{
hints = (
{
horizontal = 1;
place = "{-169, 32}";
type = Stem;
},
{
horizontal = 1;
place = "{-61, 30}";
type = Stem;
},
{
horizontal = 1;
place = "{168, 41}";
type = Stem;
},
{
horizontal = 1;
place = "{311, 45}";
type = Stem;
},
{
horizontal = 1;
place = "{573, 38}";
type = Stem;
},
{
horizontal = 1;
place = "{662, -20}";
target = down;
type = TopGhost;
},
{
place = "{-149, 12}";
type = Stem;
},
{
place = "{11, 29}";
type = Stem;
},
{
place = "{1078, 21}";
type = Stem;
},
{
place = "{1126, 33}";
type = Stem;
}
);
layerId = "E1C4CDDB-EFDF-468A-8ACC-65E2DFDE53DF";
paths = (
{
closed = 1;
nodes = (
"169 -169 OFFCURVE",
"370 127 OFFCURVE",
"486 272 CURVE",
"531 281 OFFCURVE",
"575 289 OFFCURVE",
"621 286 CURVE",
"582 193 OFFCURVE",
"539 111 OFFCURVE",
"545 53 CURVE SMOOTH",
"546 47 OFFCURVE",
"555 35 OFFCURVE",
"565 24 CURVE",
"600 -39 OFFCURVE",
"690 -61 OFFCURVE",
"761 -61 CURVE SMOOTH",
"834 -61 OFFCURVE",
"915 -43 OFFCURVE",
"982 -15 CURVE SMOOTH",
"1029 5 OFFCURVE",
"1202 101 OFFCURVE",
"1149 172 CURVE",
"1149 198 OFFCURVE",
"1123 228 OFFCURVE",
"1098 239 CURVE",
"1094 237 OFFCURVE",
"1091 238 OFFCURVE",
"1091 238 CURVE",
"1091 238 OFFCURVE",
"1092 238 OFFCURVE",
"1093 236 CURVE",
"1103 229 OFFCURVE",
"1126 211 OFFCURVE",
"1126 182 CURVE SMOOTH",
"1126 117 OFFCURVE",
"1015 44 OFFCURVE",
"963 20 CURVE SMOOTH",
"897 -10 OFFCURVE",
"803 -31 OFFCURVE",
"732 -31 CURVE SMOOTH",
"685 -31 OFFCURVE",
"627 -23 OFFCURVE",
"595 8 CURVE",
"573 49 OFFCURVE",
"587 106 OFFCURVE",
"608 159 CURVE",
"628 181 OFFCURVE",
"654 199 OFFCURVE",
"678 214 CURVE SMOOTH",
"743 255 OFFCURVE",
"909 311 OFFCURVE",
"985 311 CURVE SMOOTH",
"993 311 OFFCURVE",
"1000 311 OFFCURVE",
"1007 309 CURVE",
"1004 334 OFFCURVE",
"991 356 OFFCURVE",
"963 356 CURVE SMOOTH",
"935 356 OFFCURVE",
"898 347 OFFCURVE",
"867 346 CURVE",
"863 345 OFFCURVE",
"829 351 OFFCURVE",
"824 352 CURVE",
"715 394 OFFCURVE",
"897 569 OFFCURVE",
"1070 573 CURVE SMOOTH",
"1097 574 OFFCURVE",
"1122 571 OFFCURVE",
"1136 559 CURVE",
"1126 545 OFFCURVE",
"1078 476 OFFCURVE",
"1078 430 CURVE SMOOTH",
"1078 407 OFFCURVE",
"1093 385 OFFCURVE",
"1118 385 CURVE SMOOTH",
"1119 385 OFFCURVE",
"1121 385 OFFCURVE",
"1121 387 CURVE SMOOTH",
"1121 392 OFFCURVE",
"1099 398 OFFCURVE",
"1099 423 CURVE SMOOTH",
"1099 456 OFFCURVE",
"1134 520 OFFCURVE",
"1160 539 CURVE",
"1174 538 OFFCURVE",
"1178 484 OFFCURVE",
"1178 473 CURVE SMOOTH",
"1178 465 OFFCURVE",
"1176 439 OFFCURVE",
"1185 462 CURVE SMOOTH",
"1190 476 OFFCURVE",
"1192 500 OFFCURVE",
"1192 505 CURVE SMOOTH",
"1192 526 OFFCURVE",
"1189 544 OFFCURVE",
"1177 562 CURVE",
"1199 591 OFFCURVE",
"1226 611 OFFCURVE",
"1251 637 CURVE",
"1249 657 OFFCURVE",
"1230 661 OFFCURVE",
"1212 662 CURVE",
"1187 639 OFFCURVE",
"1166 610 OFFCURVE",
"1147 581 CURVE",
"1120 603 OFFCURVE",
"1085 611 OFFCURVE",
"1050 611 CURVE SMOOTH",
"991 611 OFFCURVE",
"845 568 OFFCURVE",
"783 479 CURVE",
"808 524 LINE SMOOTH",
"814 535 OFFCURVE",
"827 561 OFFCURVE",
"824 576 CURVE SMOOTH",
"816 614 OFFCURVE",
"794 610 OFFCURVE",
"765 625 CURVE",
"745 604 OFFCURVE",
"733 582 OFFCURVE",
"712 561 CURVE SMOOTH",
"644 489 OFFCURVE",
"588 418 OFFCURVE",
"522 345 CURVE SMOOTH",
"478 297 LINE",
"357 278 OFFCURVE",
"226 230 OFFCURVE",
"98 211 CURVE SMOOTH",
"28 200 OFFCURVE",
"17 242 OFFCURVE",
"91 277 CURVE SMOOTH",
"132 297 OFFCURVE",
"195 317 OFFCURVE",
"226 323 CURVE SMOOTH",
"239 325 OFFCURVE",
"249 334 OFFCURVE",
"228 334 CURVE SMOOTH",
"183 334 OFFCURVE",
"11 275 OFFCURVE",
"11 233 CURVE SMOOTH",
"11 212 OFFCURVE",
"27 189 OFFCURVE",
"43 178 CURVE SMOOTH",
"72 159 OFFCURVE",
"102 173 OFFCURVE",
"133 178 CURVE SMOOTH",
"241 197 OFFCURVE",
"354 242 OFFCURVE",
"457 267 CURVE",
"428 234 OFFCURVE",
"375 172 OFFCURVE",
"347 138 CURVE SMOOTH",
"254 28 OFFCURVE",
"148 -114 OFFCURVE",
"-6 -135 CURVE SMOOTH",
"-20 -136 OFFCURVE",
"-34 -137 OFFCURVE",
"-48 -137 CURVE SMOOTH",
"-82 -137 OFFCURVE",
"-137 -123 OFFCURVE",
"-137 -75 CURVE SMOOTH",
"-137 -65 OFFCURVE",
"-149 -64 OFFCURVE",
"-149 -74 CURVE SMOOTH",
"-149 -147 OFFCURVE",
"-81 -169 OFFCURVE",
"-19 -169 CURVE SMOOTH"
);
},
{
closed = 1;
nodes = (
"644 238 OFFCURVE",
"647 243 OFFCURVE",
"650 249 CURVE SMOOTH",
"675 303 OFFCURVE",
"718 384 OFFCURVE",
"748 432 CURVE",
"733 366 OFFCURVE",
"801 335 OFFCURVE",
"845 331 CURVE",
"793 316 OFFCURVE",
"707 281 OFFCURVE",
"641 232 CURVE"
);
},
{
closed = 1;
nodes = (
"553 352 OFFCURVE",
"687 502 OFFCURVE",
"742 550 CURVE SMOOTH",
"767 571 OFFCURVE",
"792 581 OFFCURVE",
"772 550 CURVE SMOOTH",
"741 504 OFFCURVE",
"646 346 OFFCURVE",
"628 306 CURVE",
"616 306 OFFCURVE",
"603 306 OFFCURVE",
"595 306 CURVE SMOOTH",
"566 306 OFFCURVE",
"538 305 OFFCURVE",
"508 301 CURVE"
);
}
);
width = 1256;
},
{
hints = (
{
horizontal = 1;
place = "{-180, 48}";
type = Stem;
},
{
horizontal = 1;
place = "{-64, 40}";
type = Stem;
},
{
horizontal = 1;
place = "{303, 57}";
type = Stem;
},
{
horizontal = 1;
place = "{556, 56}";
type = Stem;
},
{
horizontal = 1;
place = "{662, -20}";
target = down;
type = TopGhost;
},
{
place = "{-149, 12}";
type = Stem;
},
{
place = "{11, 36}";
type = Stem;
},
{
place = "{541, 31}";
type = Stem;
},
{
place = "{725, 65}";
type = Stem;
},
{
place = "{1069, 37}";
type = Stem;
}
);
layerId = "10EE7422-BC27-45A8-8DF8-0D41623AEA15";
paths = (
{
closed = 1;
nodes = (
"1260 649 OFFCURVE",
"1228 662 OFFCURVE",
"1208 662 CURVE",
"1182 640 OFFCURVE",
"1162 612 OFFCURVE",
"1143 584 CURVE",
"1100 618 OFFCURVE",
"1026 623 OFFCURVE",
"927 588 CURVE SMOOTH",
"867 567 OFFCURVE",
"725 484 OFFCURVE",
"725 408 CURVE SMOOTH",
"725 366 OFFCURVE",
"755 334 OFFCURVE",
"820 327 CURVE",
"774 311 LINE SMOOTH",
"690 281 OFFCURVE",
"541 189 OFFCURVE",
"541 88 CURVE SMOOTH",
"541 -33 OFFCURVE",
"688 -64 OFFCURVE",
"780 -64 CURVE SMOOTH",
"913 -64 OFFCURVE",
"1113 3 OFFCURVE",
"1159 123 CURVE SMOOTH",
"1166 141 OFFCURVE",
"1163 154 OFFCURVE",
"1154 170 CURVE",
"1154 194 OFFCURVE",
"1121 245 OFFCURVE",
"1091 250 CURVE",
"1083 248 OFFCURVE",
"1080 243 OFFCURVE",
"1092 234 CURVE SMOOTH",
"1133 201 OFFCURVE",
"1104 152 OFFCURVE",
"1078 118 CURVE SMOOTH",
"1043 74 OFFCURVE",
"994 50 OFFCURVE",
"942 25 CURVE SMOOTH",
"854 -15 OFFCURVE",
"572 -81 OFFCURVE",
"572 73 CURVE SMOOTH",
"572 96 OFFCURVE",
"580 118 OFFCURVE",
"591 138 CURVE SMOOTH",
"609 167 OFFCURVE",
"640 188 OFFCURVE",
"668 205 CURVE SMOOTH",
"730 244 OFFCURVE",
"900 319 OFFCURVE",
"992 300 CURVE SMOOTH",
"998 299 OFFCURVE",
"1017 289 OFFCURVE",
"1019 295 CURVE",
"1018 324 OFFCURVE",
"992 360 OFFCURVE",
"961 360 CURVE SMOOTH",
"930 360 OFFCURVE",
"790 327 OFFCURVE",
"790 377 CURVE SMOOTH",
"790 459 OFFCURVE",
"999 556 OFFCURVE",
"1086 556 CURVE SMOOTH",
"1094 556 OFFCURVE",
"1114 556 OFFCURVE",
"1108 546 CURVE SMOOTH",
"1085 506 OFFCURVE",
"1033 402 OFFCURVE",
"1109 385 CURVE SMOOTH",
"1122 382 OFFCURVE",
"1124 392 OFFCURVE",
"1119 393 CURVE",
"1112 397 OFFCURVE",
"1106 405 OFFCURVE",
"1106 413 CURVE SMOOTH",
"1106 432 OFFCURVE",
"1151 519 OFFCURVE",
"1169 519 CURVE SMOOTH",
"1181 519 OFFCURVE",
"1178 467 OFFCURVE",
"1175 458 CURVE SMOOTH",
"1166 424 OFFCURVE",
"1200 435 OFFCURVE",
"1200 496 CURVE SMOOTH",
"1200 516 OFFCURVE",
"1197 538 OFFCURVE",
"1191 547 CURVE",
"1200 556 OFFCURVE",
"1248 614 OFFCURVE",
"1259 624 CURVE"
);
},
{
closed = 1;
nodes = (
"847 631 OFFCURVE",
"794 610 OFFCURVE",
"765 625 CURVE",
"745 604 OFFCURVE",
"733 582 OFFCURVE",
"712 561 CURVE SMOOTH",
"644 489 OFFCURVE",
"578 417 OFFCURVE",
"512 344 CURVE SMOOTH",
"468 295 LINE",
"347 276 OFFCURVE",
"224 238 OFFCURVE",
"104 226 CURVE SMOOTH",
"98 225 OFFCURVE",
"91 225 OFFCURVE",
"85 225 CURVE SMOOTH",
"77 225 OFFCURVE",
"47 226 OFFCURVE",
"47 238 CURVE SMOOTH",
"47 266 OFFCURVE",
"208 315 OFFCURVE",
"238 325 CURVE",
"238 326 OFFCURVE",
"240 329 OFFCURVE",
"240 330 CURVE SMOOTH",
"240 334 OFFCURVE",
"230 334 OFFCURVE",
"228 334 CURVE SMOOTH",
"183 334 OFFCURVE",
"11 286 OFFCURVE",
"11 233 CURVE SMOOTH",
"11 198 OFFCURVE",
"26 159 OFFCURVE",
"66 159 CURVE SMOOTH",
"68 159 OFFCURVE",
"70 159 OFFCURVE",
"72 159 CURVE SMOOTH",
"194 171 OFFCURVE",
"308 220 OFFCURVE",
"427 250 CURVE",
"397 217 OFFCURVE",
"368 184 OFFCURVE",
"339 150 CURVE SMOOTH",
"246 40 OFFCURVE",
"143 -109 OFFCURVE",
"-11 -130 CURVE SMOOTH",
"-25 -131 OFFCURVE",
"-39 -132 OFFCURVE",
"-53 -132 CURVE SMOOTH",
"-91 -132 OFFCURVE",
"-137 -123 OFFCURVE",
"-137 -75 CURVE SMOOTH",
"-137 -71 OFFCURVE",
"-139 -67 OFFCURVE",
"-143 -67 CURVE SMOOTH",
"-147 -67 OFFCURVE",
"-149 -71 OFFCURVE",
"-149 -74 CURVE SMOOTH",
"-149 -147 OFFCURVE",
"-64 -180 OFFCURVE",
"-2 -180 CURVE SMOOTH",
"186 -180 OFFCURVE",
"357 115 OFFCURVE",
"473 260 CURVE",
"511 267 OFFCURVE",
"584 271 OFFCURVE",
"623 271 CURVE",
"491 -18 OFFCURVE",
"631 239 OFFCURVE",
"658 229 CURVE",
"700 292 OFFCURVE",
"749 393 OFFCURVE",
"789 458 CURVE SMOOTH",
"807 486 OFFCURVE",
"825 514 OFFCURVE",
"841 543 CURVE SMOOTH",
"848 554 OFFCURVE",
"853 567 OFFCURVE",
"852 582 CURVE SMOOTH"
);
},
{
closed = 1;
nodes = (
"727 505 OFFCURVE",
"720 493 OFFCURVE",
"717 487 CURVE SMOOTH",
"696 445 OFFCURVE",
"660 378 OFFCURVE",
"627 306 CURVE",
"615 307 OFFCURVE",
"605 307 OFFCURVE",
"596 307 CURVE SMOOTH",
"567 307 OFFCURVE",
"538 305 OFFCURVE",
"508 301 CURVE",
"562 362 OFFCURVE",
"702 517 OFFCURVE",
"724 517 CURVE SMOOTH",
"726 517 OFFCURVE",
"726 515 OFFCURVE",
"726 513 CURVE SMOOTH"
);
}
);
width = 1169;
}
);
note = AE;
unicode = 00C6;
},
{
glyphname = B;
lastChange = "2021-09-06 07:58:07 +0000";
layers = (
{
hints = (
{
horizontal = 1;
place = "{-34, 24}";
type = Stem;
},
{
horizontal = 1;
place = "{260, 17}";
type = Stem;
},
{
horizontal = 1;
place = "{655, -20}";
target = down;
type = TopGhost;
},
{
place = "{-14, 39}";
type = Stem;
},
{
place = "{84, 24}";
type = Stem;
},
{
place = "{241, 26}";
type = Stem;
},
{
place = "{662, 11}";
type = Stem;
}
);
layerId = "E1C4CDDB-EFDF-468A-8ACC-65E2DFDE53DF";
paths = (
{
closed = 1;
nodes = (
"38 397 OFFCURVE",
"28 407 OFFCURVE",
"26 414 CURVE SMOOTH",
"13 459 OFFCURVE",
"104 507 OFFCURVE",
"272 538 CURVE SMOOTH",
"301 543 OFFCURVE",
"441 553 OFFCURVE",
"511 551 CURVE",
"404 437 OFFCURVE",
"241 219 OFFCURVE",
"241 109 CURVE SMOOTH",
"241 64 OFFCURVE",
"267 31 OFFCURVE",
"297 31 CURVE SMOOTH",
"304 31 OFFCURVE",
"306 36 OFFCURVE",
"301 36 CURVE SMOOTH",
"272 39 OFFCURVE",
"267 64 OFFCURVE",
"267 88 CURVE SMOOTH",
"267 222 OFFCURVE",
"466 435 OFFCURVE",
"545 523 CURVE SMOOTH",
"550 529 OFFCURVE",
"559 537 OFFCURVE",
"571 547 CURVE",
"644 541 OFFCURVE",
"716 520 OFFCURVE",
"716 471 CURVE SMOOTH",
"716 457 OFFCURVE",
"711 442 OFFCURVE",
"704 430 CURVE SMOOTH",
"658 355 OFFCURVE",
"570 313 OFFCURVE",
"492 285 CURVE SMOOTH",
"479 280 OFFCURVE",
"463 278 OFFCURVE",
"447 277 CURVE SMOOTH",
"431 276 OFFCURVE",
"415 276 OFFCURVE",
"402 273 CURVE SMOOTH",
"357 265 OFFCURVE",
"371 224 OFFCURVE",
"396 224 CURVE SMOOTH",
"417 224 OFFCURVE",
"444 250 OFFCURVE",
"466 255 CURVE SMOOTH",
"505 265 OFFCURVE",
"662 266 OFFCURVE",
"662 216 CURVE SMOOTH",
"662 156 OFFCURVE",
"487 63 OFFCURVE",
"441 44 CURVE SMOOTH",
"381 19 OFFCURVE",
"296 -10 OFFCURVE",
"230 -10 CURVE SMOOTH",
"25 -10 OFFCURVE",
"121 189 OFFCURVE",
"211 228 CURVE SMOOTH",
"217 231 OFFCURVE",
"220 239 OFFCURVE",
"206 233 CURVE SMOOTH",
"144 208 OFFCURVE",
"56 155 OFFCURVE",
"93 63 CURVE SMOOTH",
"107 28 OFFCURVE",
"133 -3 OFFCURVE",
"167 -19 CURVE SMOOTH",
"241 -54 OFFCURVE",
"397 -20 OFFCURVE",
"471 7 CURVE SMOOTH",
"569 43 OFFCURVE",
"655 106 OFFCURVE",
"692 167 CURVE SMOOTH",
"703 185 OFFCURVE",
"696 197 OFFCURVE",
"684 209 CURVE SMOOTH",
"680 214 OFFCURVE",
"672 221 OFFCURVE",
"673 228 CURVE",
"670 262 OFFCURVE",
"580 278 OFFCURVE",
"529 278 CURVE SMOOTH",
"521 278 OFFCURVE",
"520 282 OFFCURVE",
"526 283 CURVE SMOOTH",
"598 289 OFFCURVE",
"803 373 OFFCURVE",
"729 473 CURVE",
"721 537 OFFCURVE",
"645 552 OFFCURVE",
"590 564 CURVE",
"617 588 OFFCURVE",
"634 605 OFFCURVE",
"637 615 CURVE SMOOTH",
"648 644 OFFCURVE",
"613 654 OFFCURVE",
"592 655 CURVE",
"581 643 OFFCURVE",
"556 629 OFFCURVE",
"541 616 CURVE SMOOTH",
"525 601 OFFCURVE",
"518 593 OFFCURVE",
"531 579 CURVE",
"523 571 LINE",
"428 578 OFFCURVE",
"326 571 OFFCURVE",
"257 563 CURVE SMOOTH",
"118 547 OFFCURVE",
"-14 505 OFFCURVE",
"-14 456 CURVE SMOOTH",
"-14 440 OFFCURVE",
"5 402 OFFCURVE",
"37 385 CURVE SMOOTH",
"42 382 OFFCURVE",
"47 390 OFFCURVE",
"43 393 CURVE SMOOTH"
);
}
);
width = 682;
},
{
hints = (
{
horizontal = 1;
place = "{-39, 39}";
type = Stem;
},
{
horizontal = 1;
place = "{257, 24}";
type = Stem;
},
{
horizontal = 1;
place = "{655, -20}";
target = down;
type = TopGhost;
},
{
place = "{-19, 58}";
type = Stem;
},
{
place = "{79, 35}";
type = Stem;
},
{
place = "{236, 36}";
type = Stem;
},
{
place = "{657, 50}";
type = Stem;
}
);
layerId = "10EE7422-BC27-45A8-8DF8-0D41623AEA15";
paths = (
{
closed = 1;
nodes = (
"721 477 OFFCURVE",
"743 502 OFFCURVE",
"696 530 CURVE SMOOTH",
"673 544 OFFCURVE",
"642 554 OFFCURVE",
"608 561 CURVE",
"628 578 OFFCURVE",
"645 595 OFFCURVE",
"650 607 CURVE SMOOTH",
"651 610 OFFCURVE",
"652 614 OFFCURVE",
"652 618 CURVE SMOOTH",
"652 641 OFFCURVE",
"604 655 OFFCURVE",
"586 655 CURVE",
"564 638 OFFCURVE",
"498 603 OFFCURVE",
"524 575 CURVE",
"521 572 LINE",
"428 579 OFFCURVE",
"325 573 OFFCURVE",
"256 565 CURVE SMOOTH",
"120 549 OFFCURVE",
"-19 507 OFFCURVE",
"-19 454 CURVE SMOOTH",
"-19 429 OFFCURVE",
"27 388 OFFCURVE",
"50 385 CURVE SMOOTH",
"61 384 OFFCURVE",
"65 387 OFFCURVE",
"58 393 CURVE",
"48 393 OFFCURVE",
"39 399 OFFCURVE",
"39 406 CURVE SMOOTH",
"39 453 OFFCURVE",
"182 510 OFFCURVE",
"296 523 CURVE SMOOTH",
"326 527 OFFCURVE",
"406 536 OFFCURVE",
"489 538 CURVE",
"395 435 OFFCURVE",
"236 222 OFFCURVE",
"236 112 CURVE SMOOTH",
"236 84 OFFCURVE",
"259 34 OFFCURVE",
"293 34 CURVE SMOOTH",
"298 34 OFFCURVE",
"302 35 OFFCURVE",
"306 37 CURVE",
"306 45 LINE",
"277 45 OFFCURVE",
"272 66 OFFCURVE",
"272 91 CURVE SMOOTH",
"272 221 OFFCURVE",
"470 426 OFFCURVE",
"556 514 CURVE SMOOTH",
"562 520 OFFCURVE",
"570 528 OFFCURVE",
"580 536 CURVE",
"653 530 OFFCURVE",
"711 512 OFFCURVE",
"711 469 CURVE SMOOTH",
"711 456 OFFCURVE",
"706 442 OFFCURVE",
"699 431 CURVE SMOOTH",
"655 358 OFFCURVE",
"568 318 OFFCURVE",
"491 290 CURVE SMOOTH",
"466 281 OFFCURVE",
"427 283 OFFCURVE",
"402 279 CURVE SMOOTH",
"350 270 OFFCURVE",
"365 220 OFFCURVE",
"396 220 CURVE SMOOTH",
"419 220 OFFCURVE",
"446 246 OFFCURVE",
"467 251 CURVE SMOOTH",
"505 260 OFFCURVE",
"657 265 OFFCURVE",
"657 217 CURVE SMOOTH",
"657 163 OFFCURVE",
"487 72 OFFCURVE",
"439 53 CURVE SMOOTH",
"379 28 OFFCURVE",
"295 0 OFFCURVE",
"230 0 CURVE SMOOTH",
"34 0 OFFCURVE",
"126 188 OFFCURVE",
"213 225 CURVE SMOOTH",
"226 230 OFFCURVE",
"224 246 OFFCURVE",
"204 239 CURVE SMOOTH",
"143 215 OFFCURVE",
"49 160 OFFCURVE",
"88 65 CURVE SMOOTH",
"103 28 OFFCURVE",
"148 -8 OFFCURVE",
"183 -24 CURVE SMOOTH",
"259 -59 OFFCURVE",
"419 -27 OFFCURVE",
"493 0 CURVE SMOOTH",
"592 36 OFFCURVE",
"663 94 OFFCURVE",
"701 156 CURVE SMOOTH",
"723 191 OFFCURVE",
"679 208 OFFCURVE",
"682 218 CURVE",
"679 269 OFFCURVE",
"596 281 OFFCURVE",
"547 281 CURVE SMOOTH",
"537 281 OFFCURVE",
"535 286 OFFCURVE",
"542 287 CURVE SMOOTH",
"621 293 OFFCURVE",
"807 351 OFFCURVE",
"732 475 CURVE"
);
}
);
width = 682;
}
);
note = B;
unicode = 0042;
},
{
glyphname = C;
lastChange = "2021-09-06 07:58:07 +0000";
layers = (
{
hints = (
{
horizontal = 1;
place = "{-43, 23}";
type = Stem;
},
{
horizontal = 1;
place = "{548, 46}";
type = Stem;
},
{
place = "{13, 57}";
type = Stem;
}
);
layerId = "E1C4CDDB-EFDF-468A-8ACC-65E2DFDE53DF";
paths = (
{
closed = 1;
nodes = (
"539 296 OFFCURVE",
"751 436 OFFCURVE",
"665 553 CURVE",
"662 602 OFFCURVE",
"550 606 OFFCURVE",
"451 571 CURVE SMOOTH",
"260 504 OFFCURVE",
"28 305 OFFCURVE",
"12 149 CURVE SMOOTH",
"7 95 OFFCURVE",
"38 40 OFFCURVE",
"81 14 CURVE",
"189 -82 OFFCURVE",
"352 -40 OFFCURVE",
"468 17 CURVE SMOOTH",
"510 38 OFFCURVE",
"554 72 OFFCURVE",
"584 100 CURVE SMOOTH",
"592 108 OFFCURVE",
"594 117 OFFCURVE",
"576 105 CURVE SMOOTH",
"501 54 OFFCURVE",
"404 8 OFFCURVE",
"291 -13 CURVE SMOOTH",
"180 -34 OFFCURVE",
"57 -9 OFFCURVE",
"69 108 CURVE SMOOTH",
"94 361 OFFCURVE",
"413 548 OFFCURVE",
"586 548 CURVE SMOOTH",
"783 548 OFFCURVE",
"525 287 OFFCURVE",
"450 258 CURVE",
"442 249 OFFCURVE",
"450 246 OFFCURVE",
"458 253 CURVE"
);
}
);
width = 561;
},
{
anchors = (
{
name = bottom;
position = "{195, -21}";
},
{
name = top;
position = "{661, 710}";
}
);
hints = (
{
horizontal = 1;
place = "{-42, 35}";
type = Stem;
},
{
horizontal = 1;
place = "{527, 67}";
type = Stem;
},
{
place = "{7, 74}";
type = Stem;
},
{
place = "{643, 46}";
type = Stem;
}
);
layerId = "10EE7422-BC27-45A8-8DF8-0D41623AEA15";
paths = (
{
closed = 1;
nodes = (
"667 605 OFFCURVE",
"545 604 OFFCURVE",
"449 571 CURVE SMOOTH",
"258 505 OFFCURVE",
"23 308 OFFCURVE",
"7 151 CURVE SMOOTH",
"6 134 OFFCURVE",
"9 107 OFFCURVE",
"15 98 CURVE SMOOTH",
"27 82 OFFCURVE",
"46 68 OFFCURVE",
"61 52 CURVE SMOOTH",
"75 39 OFFCURVE",
"83 24 OFFCURVE",
"92 16 CURVE SMOOTH",
"202 -81 OFFCURVE",
"355 -40 OFFCURVE",
"470 17 CURVE SMOOTH",
"513 38 OFFCURVE",
"557 71 OFFCURVE",
"587 99 CURVE SMOOTH",
"609 120 OFFCURVE",
"610 134 OFFCURVE",
"567 107 CURVE SMOOTH",
"472 47 OFFCURVE",
"60 -114 OFFCURVE",
"82 103 CURVE SMOOTH",
"102 307 OFFCURVE",
"382 527 OFFCURVE",
"586 527 CURVE SMOOTH",
"678 527 OFFCURVE",
"638 451 OFFCURVE",
"610 401 CURVE SMOOTH",
"582 351 OFFCURVE",
"529 298 OFFCURVE",
"447 258 CURVE",
"438 250 OFFCURVE",
"447 238 OFFCURVE",
"461 249 CURVE",
"561 301 OFFCURVE",
"605 340 OFFCURVE",
"661 411 CURVE SMOOTH",
"694 454 OFFCURVE",
"700 511 OFFCURVE",
"670 550 CURVE"
);
}
);
width = 561;
}
);
note = C;
unicode = 0043;
},
{
glyphname = D;
lastChange = "2021-09-06 07:58:07 +0000";
layers = (
{
hints = (
{
horizontal = 1;
place = "{-30, 14}";
type = Stem;
},
{
horizontal = 1;
place = "{655, -20}";
target = down;
type = TopGhost;
},
{
place = "{33, 35}";
type = Stem;
},
{
place = "{134, 32}";
type = Stem;
},
{
place = "{278, 26}";
type = Stem;
},
{
place = "{858, 25}";
type = Stem;
}
);
layerId = "E1C4CDDB-EFDF-468A-8ACC-65E2DFDE53DF";
paths = (
{
closed = 1;
nodes = (
"78 384 OFFCURVE",
"87 384 OFFCURVE",
"82 390 CURVE SMOOTH",
"62 414 OFFCURVE",
"63 433 OFFCURVE",
"86 452 CURVE SMOOTH",
"175 527 OFFCURVE",
"419 544 OFFCURVE",
"538 548 CURVE",
"470 472 OFFCURVE",
"382 358 OFFCURVE",
"326 254 CURVE",
"246 225 OFFCURVE",
"207 203 OFFCURVE",
"173 168 CURVE SMOOTH",
"111 105 OFFCURVE",
"135 15 OFFCURVE",
"166 6 CURVE",
"206 -38 OFFCURVE",
"318 -35 OFFCURVE",
"404 -20 CURVE SMOOTH",
"592 15 OFFCURVE",
"783 155 OFFCURVE",
"854 288 CURVE SMOOTH",
"904 382 OFFCURVE",
"895 474 OFFCURVE",
"784 527 CURVE SMOOTH",
"752 542 OFFCURVE",
"696 559 OFFCURVE",
"630 567 CURVE",
"655 591 OFFCURVE",
"669 606 OFFCURVE",
"673 615 CURVE SMOOTH",
"674 618 OFFCURVE",
"675 621 OFFCURVE",
"675 625 CURVE SMOOTH",
"675 645 OFFCURVE",
"642 654 OFFCURVE",
"624 655 CURVE",
"619 651 OFFCURVE",
"611 646 OFFCURVE",
"603 640 CURVE SMOOTH",
"594 634 OFFCURVE",
"585 627 OFFCURVE",
"577 620 CURVE SMOOTH",
"561 605 OFFCURVE",
"555 593 OFFCURVE",
"568 579 CURVE",
"561 571 LINE",
"420 571 OFFCURVE",
"33 550 OFFCURVE",
"33 439 CURVE SMOOTH",
"33 423 OFFCURVE",
"55 400 OFFCURVE",
"76 386 CURVE"
);
},
{
closed = 1;
nodes = (
"309 39 OFFCURVE",
"304 64 OFFCURVE",
"304 88 CURVE SMOOTH",
"304 138 OFFCURVE",
"328 193 OFFCURVE",
"367 254 CURVE",
"406 269 OFFCURVE",
"449 277 OFFCURVE",
"495 287 CURVE SMOOTH",
"510 290 OFFCURVE",
"499 298 OFFCURVE",
"493 296 CURVE",
"456 290 OFFCURVE",
"422 282 OFFCURVE",
"378 270 CURVE",
"451 376 OFFCURVE",
"530 471 OFFCURVE",
"580 523 CURVE",
"587 529 OFFCURVE",
"596 538 OFFCURVE",
"609 549 CURVE",
"870 535 OFFCURVE",
"901 417 OFFCURVE",
"815 294 CURVE SMOOTH",
"707 139 OFFCURVE",
"449 -13 OFFCURVE",
"271 -16 CURVE SMOOTH",
"235 -17 OFFCURVE",
"202 -10 OFFCURVE",
"183 10 CURVE SMOOTH",
"170 24 OFFCURVE",
"163 43 OFFCURVE",
"166 70 CURVE SMOOTH",
"171 119 OFFCURVE",
"220 181 OFFCURVE",
"317 235 CURVE",
"290 178 OFFCURVE",
"278 139 OFFCURVE",
"278 109 CURVE SMOOTH",
"278 81 OFFCURVE",
"301 35 OFFCURVE",
"330 35 CURVE SMOOTH",
"333 35 OFFCURVE",
"336 36 OFFCURVE",
"338 36 CURVE SMOOTH"
);
}
);
width = 755;
},
{
hints = (
{
horizontal = 1;
place = "{-32, 24}";
type = Stem;
},
{
horizontal = 1;
place = "{655, -20}";
target = down;
type = TopGhost;
},
{
place = "{18, 58}";
type = Stem;
},
{
place = "{117, 54}";
type = Stem;
},
{
place = "{273, 36}";
type = Stem;
},
{
place = "{855, 33}";
type = Stem;
}
);
layerId = "10EE7422-BC27-45A8-8DF8-0D41623AEA15";
paths = (
{
closed = 1;
nodes = (
"914 372 OFFCURVE",
"885 470 OFFCURVE",
"787 528 CURVE SMOOTH",
"755 546 OFFCURVE",
"706 558 OFFCURVE",
"650 565 CURVE",
"668 581 OFFCURVE",
"683 596 OFFCURVE",
"687 607 CURVE SMOOTH",
"688 610 OFFCURVE",
"689 614 OFFCURVE",
"689 618 CURVE SMOOTH",
"689 641 OFFCURVE",
"641 655 OFFCURVE",
"623 655 CURVE",
"601 638 OFFCURVE",
"535 603 OFFCURVE",
"561 575 CURVE",
"559 573 LINE",
"459 577 OFFCURVE",
"356 572 OFFCURVE",
"293 565 CURVE SMOOTH",
"157 549 OFFCURVE",
"18 507 OFFCURVE",
"18 454 CURVE SMOOTH",
"18 429 OFFCURVE",
"64 388 OFFCURVE",
"87 385 CURVE SMOOTH",
"98 384 OFFCURVE",
"102 387 OFFCURVE",
"95 393 CURVE",
"85 393 OFFCURVE",
"76 399 OFFCURVE",
"76 406 CURVE SMOOTH",
"76 453 OFFCURVE",
"219 510 OFFCURVE",
"333 523 CURVE SMOOTH",
"383 529 OFFCURVE",
"454 537 OFFCURVE",
"526 539 CURVE",
"466 473 OFFCURVE",
"378 360 OFFCURVE",
"323 259 CURVE",
"244 231 OFFCURVE",
"187 196 OFFCURVE",
"152 161 CURVE SMOOTH",
"107 116 OFFCURVE",
"110 45 OFFCURVE",
"135 15 CURVE SMOOTH",
"145 3 OFFCURVE",
"162 -2 OFFCURVE",
"168 0 CURVE",
"208 -43 OFFCURVE",
"320 -35 OFFCURVE",
"405 -20 CURVE SMOOTH",
"594 14 OFFCURVE",
"792 143 OFFCURVE",
"863 276 CURVE SMOOTH"
);
},
{
closed = 1;
nodes = (
"756 219 OFFCURVE",
"562 86 OFFCURVE",
"402 21 CURVE SMOOTH",
"321 -12 OFFCURVE",
"159 -39 OFFCURVE",
"171 73 CURVE SMOOTH",
"176 119 OFFCURVE",
"223 179 OFFCURVE",
"306 225 CURVE",
"285 182 OFFCURVE",
"273 143 OFFCURVE",
"273 112 CURVE SMOOTH",
"273 84 OFFCURVE",
"296 34 OFFCURVE",
"330 34 CURVE SMOOTH",
"335 34 OFFCURVE",
"339 35 OFFCURVE",
"343 37 CURVE",
"343 45 LINE",
"314 45 OFFCURVE",
"309 66 OFFCURVE",
"309 91 CURVE SMOOTH",
"309 139 OFFCURVE",
"335 197 OFFCURVE",
"374 256 CURVE",
"411 270 OFFCURVE",
"453 280 OFFCURVE",
"500 287 CURVE",
"513 292 OFFCURVE",
"511 308 OFFCURVE",
"491 301 CURVE",
"455 295 OFFCURVE",
"421 288 OFFCURVE",
"390 279 CURVE",
"455 372 OFFCURVE",
"543 463 OFFCURVE",
"593 514 CURVE SMOOTH",
"599 520 OFFCURVE",
"609 529 OFFCURVE",
"620 538 CURVE",
"876 525 OFFCURVE",
"894 414 OFFCURVE",
"811 297 CURVE SMOOTH"
);
}
);
width = 755;
}
);
note = D;
unicode = 0044;
},
{
glyphname = Eth;
lastChange = "2021-09-06 07:58:07 +0000";
layers = (
{
hints = (
{
horizontal = 1;
place = "{-30, 14}";
type = Stem;
},
{
horizontal = 1;
place = "{655, -20}";
target = down;
type = TopGhost;
},
{
place = "{33, 35}";
type = Stem;
},
{
place = "{134, 32}";
type = Stem;
},
{
place = "{278, 26}";
type = Stem;
},
{
place = "{858, 25}";
type = Stem;
},
{
horizontal = 1;
place = "{121, 28}";
type = Stem;
}
);
layerId = "E1C4CDDB-EFDF-468A-8ACC-65E2DFDE53DF";
paths = (
{
closed = 1;
nodes = (
"278 217 OFFCURVE",
"278 109 CURVE SMOOTH",
"278 81 OFFCURVE",
"301 35 OFFCURVE",
"330 35 CURVE SMOOTH",
"333 35 OFFCURVE",
"336 36 OFFCURVE",
"338 36 CURVE SMOOTH",
"309 39 OFFCURVE",
"304 64 OFFCURVE",
"304 88 CURVE SMOOTH",
"304 138 OFFCURVE",
"328 193 OFFCURVE",
"367 254 CURVE SMOOTH",
"437 356 OFFCURVE",
"517 457 OFFCURVE",
"580 523 CURVE",
"587 529 OFFCURVE",
"596 538 OFFCURVE",
"609 549 CURVE",
"870 535 OFFCURVE",
"901 417 OFFCURVE",
"815 294 CURVE SMOOTH",
"707 139 OFFCURVE",
"449 -13 OFFCURVE",
"271 -16 CURVE SMOOTH",
"235 -17 OFFCURVE",
"202 -10 OFFCURVE",
"183 10 CURVE SMOOTH",
"175 19 OFFCURVE",
"169 30 OFFCURVE",
"166 45 CURVE",
"163 67 OFFCURVE",
"127 61 OFFCURVE",
"139 42 CURVE",
"145 23 OFFCURVE",
"158 14 OFFCURVE",
"166 6 CURVE SMOOTH",
"211 -41 OFFCURVE",
"318 -35 OFFCURVE",
"404 -20 CURVE SMOOTH",
"592 15 OFFCURVE",
"783 155 OFFCURVE",
"854 288 CURVE SMOOTH",
"904 382 OFFCURVE",
"895 474 OFFCURVE",
"784 527 CURVE SMOOTH",
"752 542 OFFCURVE",
"696 559 OFFCURVE",
"630 567 CURVE",
"655 591 OFFCURVE",
"669 606 OFFCURVE",
"673 615 CURVE SMOOTH",
"674 618 OFFCURVE",
"675 621 OFFCURVE",
"675 625 CURVE SMOOTH",
"675 645 OFFCURVE",
"642 654 OFFCURVE",
"624 655 CURVE",
"619 651 OFFCURVE",
"611 646 OFFCURVE",
"603 640 CURVE SMOOTH",
"594 634 OFFCURVE",
"585 627 OFFCURVE",
"577 620 CURVE SMOOTH",
"561 605 OFFCURVE",
"555 593 OFFCURVE",
"568 579 CURVE",
"561 571 LINE",
"420 571 OFFCURVE",
"33 550 OFFCURVE",
"33 439 CURVE SMOOTH",
"33 423 OFFCURVE",
"55 400 OFFCURVE",
"76 386 CURVE",
"78 384 OFFCURVE",
"87 384 OFFCURVE",
"82 390 CURVE SMOOTH",
"62 414 OFFCURVE",
"63 433 OFFCURVE",
"86 452 CURVE SMOOTH",
"175 527 OFFCURVE",
"419 544 OFFCURVE",
"538 548 CURVE",
"432 430 OFFCURVE"
);
},
{
closed = 1;
nodes = (
"418 148 OFFCURVE",
"383 149 OFFCURVE",
"371 149 CURVE SMOOTH",
"308 149 OFFCURVE",
"243 148 OFFCURVE",
"179 148 CURVE SMOOTH",
"170 148 OFFCURVE",
"160 139 OFFCURVE",
"160 129 CURVE SMOOTH",
"160 111 OFFCURVE",
"279 121 OFFCURVE",
"294 121 CURVE SMOOTH",
"310 121 OFFCURVE",
"379 125 OFFCURVE",
"420 133 CURVE SMOOTH",
"452 140 OFFCURVE",
"454 148 OFFCURVE",
"443 148 CURVE SMOOTH"
);
}
);
width = 755;
},
{
background = {
paths = (
{
closed = 1;
nodes = (
"278 217 OFFCURVE",
"278 109 CURVE SMOOTH",
"278 81 OFFCURVE",
"301 35 OFFCURVE",
"330 35 CURVE SMOOTH",
"333 35 OFFCURVE",
"336 36 OFFCURVE",
"338 36 CURVE SMOOTH",
"309 39 OFFCURVE",
"304 64 OFFCURVE",
"304 88 CURVE SMOOTH",
"304 138 OFFCURVE",
"328 193 OFFCURVE",
"367 254 CURVE SMOOTH",
"437 356 OFFCURVE",
"517 457 OFFCURVE",
"580 523 CURVE",
"587 529 OFFCURVE",
"596 538 OFFCURVE",
"609 549 CURVE",
"870 535 OFFCURVE",
"901 417 OFFCURVE",
"815 294 CURVE SMOOTH",
"707 139 OFFCURVE",
"449 -13 OFFCURVE",
"271 -16 CURVE SMOOTH",
"235 -17 OFFCURVE",
"202 -10 OFFCURVE",
"183 10 CURVE SMOOTH",
"175 19 OFFCURVE",
"169 30 OFFCURVE",
"166 45 CURVE",
"163 67 OFFCURVE",
"127 61 OFFCURVE",
"139 42 CURVE",
"145 23 OFFCURVE",
"158 14 OFFCURVE",
"166 6 CURVE SMOOTH",
"211 -41 OFFCURVE",
"318 -35 OFFCURVE",
"404 -20 CURVE SMOOTH",
"592 15 OFFCURVE",
"783 155 OFFCURVE",
"854 288 CURVE SMOOTH",
"904 382 OFFCURVE",
"895 474 OFFCURVE",
"784 527 CURVE SMOOTH",
"752 542 OFFCURVE",
"696 559 OFFCURVE",
"630 567 CURVE",
"655 591 OFFCURVE",
"669 606 OFFCURVE",
"673 615 CURVE SMOOTH",
"674 618 OFFCURVE",
"675 621 OFFCURVE",
"675 625 CURVE SMOOTH",
"675 645 OFFCURVE",
"642 654 OFFCURVE",
"624 655 CURVE",
"619 651 OFFCURVE",
"611 646 OFFCURVE",
"603 640 CURVE SMOOTH",
"594 634 OFFCURVE",
"585 627 OFFCURVE",
"577 620 CURVE SMOOTH",
"561 605 OFFCURVE",
"555 593 OFFCURVE",
"568 579 CURVE",
"561 571 LINE",
"420 571 OFFCURVE",
"33 550 OFFCURVE",
"33 439 CURVE SMOOTH",
"33 423 OFFCURVE",
"55 400 OFFCURVE",
"76 386 CURVE",
"78 384 OFFCURVE",
"87 384 OFFCURVE",
"82 390 CURVE SMOOTH",
"62 414 OFFCURVE",
"63 433 OFFCURVE",
"86 452 CURVE SMOOTH",
"175 527 OFFCURVE",
"419 544 OFFCURVE",
"538 548 CURVE",
"432 430 OFFCURVE"
);
},
{
closed = 1;
nodes = (
"418 148 OFFCURVE",
"383 149 OFFCURVE",
"371 149 CURVE SMOOTH",
"308 149 OFFCURVE",
"243 148 OFFCURVE",
"179 148 CURVE SMOOTH",
"170 148 OFFCURVE",
"160 139 OFFCURVE",
"160 129 CURVE SMOOTH",
"160 111 OFFCURVE",
"279 121 OFFCURVE",
"294 121 CURVE SMOOTH",
"310 121 OFFCURVE",
"379 125 OFFCURVE",
"420 133 CURVE SMOOTH",
"452 140 OFFCURVE",
"454 148 OFFCURVE",
"443 148 CURVE SMOOTH"
);
}
);
};
hints = (
{
horizontal = 1;
place = "{-32, 24}";
type = Stem;
},
{
horizontal = 1;
place = "{655, -20}";
target = down;
type = TopGhost;
},
{
place = "{18, 58}";
type = Stem;
},
{
place = "{117, 54}";
type = Stem;
},
{
place = "{273, 36}";
type = Stem;
},
{
place = "{855, 33}";
type = Stem;
},
{
horizontal = 1;
place = "{113, 39}";
type = Stem;
},
{
place = "{158.422, 211}";
type = Stem;
}
);
layerId = "10EE7422-BC27-45A8-8DF8-0D41623AEA15";
paths = (
{
closed = 1;
nodes = (
"130 45 OFFCURVE",
"137 25 OFFCURVE",
"144 15 CURVE SMOOTH",
"185 -50 OFFCURVE",
"309 -37 OFFCURVE",
"405 -20 CURVE SMOOTH",
"594 14 OFFCURVE",
"792 143 OFFCURVE",
"863 276 CURVE SMOOTH",
"914 372 OFFCURVE",
"885 470 OFFCURVE",
"787 528 CURVE SMOOTH",
"755 546 OFFCURVE",
"706 558 OFFCURVE",
"650 565 CURVE",
"668 581 OFFCURVE",
"683 596 OFFCURVE",
"687 607 CURVE SMOOTH",
"688 610 OFFCURVE",
"689 614 OFFCURVE",
"689 618 CURVE SMOOTH",
"689 641 OFFCURVE",
"641 655 OFFCURVE",
"623 655 CURVE",
"601 638 OFFCURVE",
"535 603 OFFCURVE",
"561 575 CURVE",
"559 573 LINE",
"459 577 OFFCURVE",
"356 572 OFFCURVE",
"293 565 CURVE SMOOTH",
"157 549 OFFCURVE",
"18 507 OFFCURVE",
"18 454 CURVE SMOOTH",
"18 429 OFFCURVE",
"64 388 OFFCURVE",
"87 385 CURVE SMOOTH",
"98 384 OFFCURVE",
"102 387 OFFCURVE",
"95 393 CURVE",
"85 393 OFFCURVE",
"76 399 OFFCURVE",
"76 406 CURVE SMOOTH",
"76 453 OFFCURVE",
"219 510 OFFCURVE",
"333 523 CURVE SMOOTH",
"383 529 OFFCURVE",
"454 537 OFFCURVE",
"526 539 CURVE",
"454 460 OFFCURVE",
"343 305 OFFCURVE",
"306 225 CURVE SMOOTH",
"286 181 OFFCURVE",
"273 143 OFFCURVE",
"273 112 CURVE SMOOTH",
"273 84 OFFCURVE",
"296 34 OFFCURVE",
"330 34 CURVE SMOOTH",
"335 34 OFFCURVE",
"339 35 OFFCURVE",
"343 37 CURVE",
"343 45 LINE",
"314 45 OFFCURVE",
"309 66 OFFCURVE",
"309 91 CURVE SMOOTH",
"309 204 OFFCURVE",
"455 373 OFFCURVE",
"593 514 CURVE SMOOTH",
"599 520 OFFCURVE",
"609 529 OFFCURVE",
"620 538 CURVE",
"876 525 OFFCURVE",
"894 414 OFFCURVE",
"811 297 CURVE SMOOTH",
"756 219 OFFCURVE",
"562 86 OFFCURVE",
"402 21 CURVE SMOOTH",
"323 -11 OFFCURVE",
"168 -37 OFFCURVE",
"170 64 CURVE",
"170 84 OFFCURVE",
"127 94 OFFCURVE",
"127 61 CURVE"
);
},
{
closed = 1;
nodes = (
"471 221 OFFCURVE",
"471 222 OFFCURVE",
"469 223 CURVE",
"445 221 OFFCURVE",
"420 221 OFFCURVE",
"395 221 CURVE SMOOTH",
"330 221 OFFCURVE",
"263 220 OFFCURVE",
"196 220 CURVE SMOOTH",
"186 220 OFFCURVE",
"177 211 OFFCURVE",
"177 201 CURVE SMOOTH",
"177 183 OFFCURVE",
"281 181 OFFCURVE",
"298 181 CURVE SMOOTH",
"327 181 OFFCURVE",
"471 201 OFFCURVE",
"471 220 CURVE SMOOTH"
);
}
);
width = 755;
}
);
unicode = 00D0;
},
{
glyphname = E;
lastChange = "2021-09-06 07:58:07 +0000";
layers = (
{
hints = (
{
horizontal = 1;
place = "{-61, 30}";
type = Stem;
},
{
horizontal = 1;
place = "{311, 45}";
type = Stem;
},
{
horizontal = 1;
place = "{573, 38}";
type = Stem;
},
{
horizontal = 1;
place = "{662, -20}";
target = down;
type = TopGhost;
},
{
place = "{5, 21}";
type = Stem;
},
{
place = "{189, 58}";
type = Stem;
},
{
place = "{534, 21}";
type = Stem;
},
{
place = "{582, 33}";
type = Stem;
}
);
layerId = "E1C4CDDB-EFDF-468A-8ACC-65E2DFDE53DF";
paths = (
{
closed = 1;
nodes = (
"460 334 OFFCURVE",
"447 356 OFFCURVE",
"419 356 CURVE SMOOTH",
"391 356 OFFCURVE",
"353 347 OFFCURVE",
"323 346 CURVE",
"318 345 OFFCURVE",
"284 351 OFFCURVE",
"280 352 CURVE SMOOTH",
"170 394 OFFCURVE",
"352 569 OFFCURVE",
"526 573 CURVE SMOOTH",
"553 574 OFFCURVE",
"577 571 OFFCURVE",
"592 559 CURVE",
"582 545 OFFCURVE",
"534 476 OFFCURVE",
"534 430 CURVE SMOOTH",
"534 407 OFFCURVE",
"549 385 OFFCURVE",
"574 385 CURVE SMOOTH",
"575 385 OFFCURVE",
"577 385 OFFCURVE",
"577 387 CURVE SMOOTH",
"577 392 OFFCURVE",
"555 398 OFFCURVE",
"555 423 CURVE SMOOTH",
"555 456 OFFCURVE",
"590 520 OFFCURVE",
"616 539 CURVE",
"630 538 OFFCURVE",
"634 484 OFFCURVE",
"634 473 CURVE SMOOTH",
"634 465 OFFCURVE",
"632 439 OFFCURVE",
"641 462 CURVE SMOOTH",
"646 476 OFFCURVE",
"648 500 OFFCURVE",
"648 505 CURVE SMOOTH",
"648 526 OFFCURVE",
"645 544 OFFCURVE",
"632 562 CURVE",
"655 591 OFFCURVE",
"682 611 OFFCURVE",
"707 637 CURVE",
"705 657 OFFCURVE",
"685 661 OFFCURVE",
"668 662 CURVE",
"642 639 OFFCURVE",
"622 610 OFFCURVE",
"603 581 CURVE",
"575 603 OFFCURVE",
"541 611 OFFCURVE",
"506 611 CURVE SMOOTH",
"408 611 OFFCURVE",
"189 513 OFFCURVE",
"189 409 CURVE SMOOTH",
"189 351 OFFCURVE",
"254 335 OFFCURVE",
"301 331 CURVE",
"207 304 OFFCURVE",
"5 213 OFFCURVE",
"5 86 CURVE SMOOTH",
"5 -25 OFFCURVE",
"127 -61 OFFCURVE",
"217 -61 CURVE SMOOTH",
"289 -61 OFFCURVE",
"371 -43 OFFCURVE",
"438 -15 CURVE SMOOTH",
"485 5 OFFCURVE",
"657 101 OFFCURVE",
"605 172 CURVE",
"604 198 OFFCURVE",
"578 228 OFFCURVE",
"554 239 CURVE",
"547 236 OFFCURVE",
"545 240 OFFCURVE",
"549 236 CURVE SMOOTH",
"558 229 OFFCURVE",
"581 211 OFFCURVE",
"581 182 CURVE SMOOTH",
"581 117 OFFCURVE",
"471 44 OFFCURVE",
"418 20 CURVE SMOOTH",
"353 -10 OFFCURVE",
"259 -31 OFFCURVE",
"187 -31 CURVE SMOOTH",
"119 -31 OFFCURVE",
"26 -14 OFFCURVE",
"26 70 CURVE SMOOTH",
"26 136 OFFCURVE",
"82 182 OFFCURVE",
"134 214 CURVE SMOOTH",
"199 255 OFFCURVE",
"365 311 OFFCURVE",
"441 311 CURVE SMOOTH",
"448 311 OFFCURVE",
"456 311 OFFCURVE",
"463 309 CURVE"
);
}
);
width = 632;
},
{
anchors = (
{
name = bottom;
position = "{200, -48}";
},
{
name = ogonek;
position = "{314, -51}";
},
{
name = top;
position = "{565, 730}";
},
{
name = topleft;
position = "{20, 688}";
}
);
hints = (
{
horizontal = 1;
place = "{-64, 40}";
type = Stem;
},
{
horizontal = 1;
place = "{303, 47}";
type = Stem;
},
{
horizontal = 1;
place = "{556, 56}";
type = Stem;
},
{
horizontal = 1;
place = "{662, -20}";
target = down;
type = TopGhost;
},
{
place = "{0, 31}";
type = Stem;
},
{
place = "{184, 65}";
type = Stem;
},
{
place = "{528, 37}";
type = Stem;
}
);
layerId = "10EE7422-BC27-45A8-8DF8-0D41623AEA15";
paths = (
{
closed = 1;
nodes = (
"718 649 OFFCURVE",
"687 662 OFFCURVE",
"666 662 CURVE",
"641 640 OFFCURVE",
"621 612 OFFCURVE",
"602 584 CURVE",
"558 618 OFFCURVE",
"485 623 OFFCURVE",
"386 588 CURVE SMOOTH",
"326 567 OFFCURVE",
"184 484 OFFCURVE",
"184 408 CURVE SMOOTH",
"184 366 OFFCURVE",
"214 334 OFFCURVE",
"278 327 CURVE",
"232 311 LINE SMOOTH",
"148 282 OFFCURVE",
"0 189 OFFCURVE",
"0 88 CURVE SMOOTH",
"0 -33 OFFCURVE",
"147 -64 OFFCURVE",
"239 -64 CURVE SMOOTH",
"372 -64 OFFCURVE",
"571 3 OFFCURVE",
"618 123 CURVE SMOOTH",
"625 141 OFFCURVE",
"621 154 OFFCURVE",
"613 170 CURVE",
"613 194 OFFCURVE",
"579 245 OFFCURVE",
"549 250 CURVE",
"541 248 OFFCURVE",
"539 243 OFFCURVE",
"550 234 CURVE SMOOTH",
"592 201 OFFCURVE",
"562 152 OFFCURVE",
"536 118 CURVE SMOOTH",
"502 74 OFFCURVE",
"453 50 OFFCURVE",
"400 25 CURVE SMOOTH",
"312 -15 OFFCURVE",
"31 -81 OFFCURVE",
"31 73 CURVE SMOOTH",
"31 96 OFFCURVE",
"38 118 OFFCURVE",
"50 138 CURVE SMOOTH",
"68 167 OFFCURVE",
"99 188 OFFCURVE",
"127 205 CURVE SMOOTH",
"195 248 OFFCURVE",
"396 335 OFFCURVE",
"477 291 CURVE",
"477 292 LINE",
"478 295 LINE",
"476 324 OFFCURVE",
"451 360 OFFCURVE",
"419 360 CURVE SMOOTH",
"389 360 OFFCURVE",
"249 327 OFFCURVE",
"249 377 CURVE SMOOTH",
"249 459 OFFCURVE",
"458 556 OFFCURVE",
"544 556 CURVE SMOOTH",
"552 556 OFFCURVE",
"573 556 OFFCURVE",
"567 546 CURVE SMOOTH",
"544 506 OFFCURVE",
"491 402 OFFCURVE",
"568 385 CURVE SMOOTH",
"581 382 OFFCURVE",
"583 392 OFFCURVE",
"577 393 CURVE",
"570 397 OFFCURVE",
"565 405 OFFCURVE",
"565 413 CURVE SMOOTH",
"565 432 OFFCURVE",
"610 519 OFFCURVE",
"628 519 CURVE SMOOTH",
"640 519 OFFCURVE",
"637 467 OFFCURVE",
"634 458 CURVE SMOOTH",
"625 424 OFFCURVE",
"659 435 OFFCURVE",
"659 496 CURVE SMOOTH",
"659 516 OFFCURVE",
"656 538 OFFCURVE",
"650 547 CURVE",
"659 556 OFFCURVE",
"707 614 OFFCURVE",
"718 624 CURVE"
);
}
);
width = 632;
}
);
note = E;
unicode = 0045;
},
{
glyphname = F;
lastChange = "2021-09-06 07:58:07 +0000";
layers = (
{
hints = (
{
horizontal = 1;
place = "{162, 43}";
type = Stem;
},
{
horizontal = 1;
place = "{631, 18}";
type = Stem;
},
{
place = "{10, 58}";
type = Stem;
},
{
place = "{102, 16}";
type = Stem;
},
{
place = "{793, 53}";
type = Stem;
}
);
layerId = "E1C4CDDB-EFDF-468A-8ACC-65E2DFDE53DF";
paths = (
{
closed = 1;
nodes = (
"492 119 OFFCURVE",
"555 202 OFFCURVE",
"621 274 CURVE",
"659 279 OFFCURVE",
"788 287 OFFCURVE",
"788 225 CURVE SMOOTH",
"788 181 OFFCURVE",
"754 160 OFFCURVE",
"735 145 CURVE SMOOTH",
"733 143 OFFCURVE",
"736 139 OFFCURVE",
"738 140 CURVE SMOOTH",
"771 162 OFFCURVE",
"821 183 OFFCURVE",
"821 205 CURVE SMOOTH",
"821 218 OFFCURVE",
"818 224 OFFCURVE",
"808 233 CURVE",
"815 290 OFFCURVE",
"675 301 OFFCURVE",
"640 300 CURVE",
"690 354 OFFCURVE",
"846 511 OFFCURVE",
"846 572 CURVE SMOOTH",
"846 675 OFFCURVE",
"652 661 OFFCURVE",
"434 606 CURVE SMOOTH",
"217 551 OFFCURVE",
"10 459 OFFCURVE",
"10 419 CURVE SMOOTH",
"10 394 OFFCURVE",
"70 356 OFFCURVE",
"86 353 CURVE SMOOTH",
"96 351 OFFCURVE",
"97 358 OFFCURVE",
"96 359 CURVE",
"59 371 OFFCURVE",
"63 402 OFFCURVE",
"84 420 CURVE SMOOTH",
"150 477 OFFCURVE",
"268 532 OFFCURVE",
"401 571 CURVE SMOOTH",
"524 608 OFFCURVE",
"662 631 OFFCURVE",
"728 631 CURVE SMOOTH",
"821 631 OFFCURVE",
"799 594 OFFCURVE",
"758 532 CURVE SMOOTH",
"712 460 OFFCURVE",
"637 366 OFFCURVE",
"579 290 CURVE",
"491 275 OFFCURVE",
"406 249 OFFCURVE",
"365 239 CURVE SMOOTH",
"339 233 OFFCURVE",
"270 216 OFFCURVE",
"217 208 CURVE SMOOTH",
"129 195 OFFCURVE",
"57 228 OFFCURVE",
"195 284 CURVE SMOOTH",
"227 297 OFFCURVE",
"265 313 OFFCURVE",
"286 316 CURVE SMOOTH",
"322 322 OFFCURVE",
"308 332 OFFCURVE",
"281 328 CURVE SMOOTH",
"218 318 OFFCURVE",
"102 266 OFFCURVE",
"102 232 CURVE SMOOTH",
"102 196 OFFCURVE",
"118 158 OFFCURVE",
"158 162 CURVE SMOOTH",
"219 168 OFFCURVE",
"282 185 OFFCURVE",
"347 205 CURVE SMOOTH",
"412 225 OFFCURVE",
"479 248 OFFCURVE",
"560 265 CURVE",
"540 240 OFFCURVE",
"531 227 OFFCURVE",
"523 216 CURVE SMOOTH",
"459 124 OFFCURVE",
"386 10 OFFCURVE",
"386 -14 CURVE SMOOTH",
"386 -58 OFFCURVE",
"424 -60 OFFCURVE",
"434 -47 CURVE",
"443 -26 OFFCURVE",
"456 -4 OFFCURVE",
"463 12 CURVE SMOOTH",
"468 23 OFFCURVE",
"483 45 OFFCURVE",
"470 39 CURVE SMOOTH",
"467 38 OFFCURVE",
"460 32 OFFCURVE",
"454 26 CURVE SMOOTH",
"451 23 OFFCURVE",
"449 31 OFFCURVE",
"447 31 CURVE"
);
}
);
width = 752;
},
{
hints = (
{
horizontal = 1;
place = "{159, 60}";
type = Stem;
},
{
horizontal = 1;
place = "{626, 21}";
target = up;
type = BottomGhost;
},
{
place = "{97, 29}";
type = Stem;
},
{
place = "{788, 72}";
type = Stem;
}
);
layerId = "10EE7422-BC27-45A8-8DF8-0D41623AEA15";
paths = (
{
closed = 1;
nodes = (
"860 784 OFFCURVE",
"5 506 OFFCURVE",
"5 417 CURVE SMOOTH",
"5 388 OFFCURVE",
"65 356 OFFCURVE",
"81 353 CURVE SMOOTH",
"102 350 OFFCURVE",
"105 357 OFFCURVE",
"96 363 CURVE",
"62 363 OFFCURVE",
"65 389 OFFCURVE",
"87 407 CURVE SMOOTH",
"212 515 OFFCURVE",
"611 626 OFFCURVE",
"729 626 CURVE SMOOTH",
"815 626 OFFCURVE",
"791 588 OFFCURVE",
"754 531 CURVE SMOOTH",
"708 461 OFFCURVE",
"633 368 OFFCURVE",
"576 295 CURVE",
"490 280 OFFCURVE",
"405 255 OFFCURVE",
"364 245 CURVE SMOOTH",
"338 239 OFFCURVE",
"267 222 OFFCURVE",
"214 219 CURVE SMOOTH",
"129 214 OFFCURVE",
"77 232 OFFCURVE",
"197 280 CURVE SMOOTH",
"236 296 OFFCURVE",
"274 309 OFFCURVE",
"323 325 CURVE",
"320 335 OFFCURVE",
"299 335 OFFCURVE",
"280 332 CURVE SMOOTH",
"219 323 OFFCURVE",
"97 272 OFFCURVE",
"97 233 CURVE SMOOTH",
"97 197 OFFCURVE",
"113 155 OFFCURVE",
"158 159 CURVE SMOOTH",
"282 170 OFFCURVE",
"413 229 OFFCURVE",
"547 258 CURVE",
"536 244 OFFCURVE",
"527 231 OFFCURVE",
"519 220 CURVE SMOOTH",
"456 130 OFFCURVE",
"381 16 OFFCURVE",
"381 -10 CURVE SMOOTH",
"381 -57 OFFCURVE",
"431 -63 OFFCURVE",
"443 -45 CURVE",
"461 -2 OFFCURVE",
"495 40 OFFCURVE",
"469 39 CURVE SMOOTH",
"464 39 OFFCURVE",
"463 40 OFFCURVE",
"460 40 CURVE",
"472 63 OFFCURVE",
"489 92 OFFCURVE",
"494 99 CURVE SMOOTH",
"527 152 OFFCURVE",
"580 212 OFFCURVE",
"634 270 CURVE",
"648 271 OFFCURVE",
"661 272 OFFCURVE",
"675 272 CURVE SMOOTH",
"708 272 OFFCURVE",
"792 267 OFFCURVE",
"792 221 CURVE SMOOTH",
"792 192 OFFCURVE",
"767 166 OFFCURVE",
"745 152 CURVE SMOOTH",
"735 146 OFFCURVE",
"740 140 OFFCURVE",
"743 140 CURVE",
"757 143 OFFCURVE",
"765 154 OFFCURVE",
"774 158 CURVE SMOOTH",
"797 168 OFFCURVE",
"820 171 OFFCURVE",
"825 196 CURVE SMOOTH",
"828 214 OFFCURVE",
"822 219 OFFCURVE",
"808 247 CURVE",
"814 293 OFFCURVE",
"764 299 OFFCURVE",
"738 303 CURVE SMOOTH",
"717 307 OFFCURVE",
"693 307 OFFCURVE",
"668 306 CURVE",
"731 373 OFFCURVE",
"791 434 OFFCURVE",
"820 476 CURVE SMOOTH",
"851 519 OFFCURVE",
"860 529 OFFCURVE",
"860 565 CURVE SMOOTH"
);
}
);
width = 752;
}
);
note = F;
unicode = 0046;
},
{
glyphname = G;
lastChange = "2021-09-06 07:58:07 +0000";
layers = (
{
hints = (
{
horizontal = 1;
place = "{-42, 28}";
type = Stem;
},
{
horizontal = 1;
place = "{302, 30}";
type = Stem;
},
{
horizontal = 1;
place = "{553, 41}";
type = Stem;
},
{
place = "{22, 51}";
type = Stem;
},
{
place = "{644, 47}";
type = Stem;
},
{
place = "{692, 24}";
type = Stem;
}
);
layerId = "E1C4CDDB-EFDF-468A-8ACC-65E2DFDE53DF";
paths = (
{
closed = 1;
nodes = (
"332 240 OFFCURVE",
"324 241 OFFCURVE",
"313 243 CURVE",
"391 276 OFFCURVE",
"476 301 OFFCURVE",
"542 301 CURVE SMOOTH",
"572 301 OFFCURVE",
"650 296 OFFCURVE",
"644 237 CURVE SMOOTH",
"637 169 OFFCURVE",
"573 101 OFFCURVE",
"498 59 CURVE SMOOTH",
"410 11 OFFCURVE",
"189 -59 OFFCURVE",
"101 26 CURVE SMOOTH",
"83 43 OFFCURVE",
"70 73 OFFCURVE",
"73 107 CURVE SMOOTH",
"94 314 OFFCURVE",
"353 510 OFFCURVE",
"544 548 CURVE SMOOTH",
"646 568 OFFCURVE",
"743 527 OFFCURVE",
"660 425 CURVE SMOOTH",
"654 418 OFFCURVE",
"648 407 OFFCURVE",
"664 418 CURVE SMOOTH",
"673 424 OFFCURVE",
"695 440 OFFCURVE",
"705 451 CURVE SMOOTH",
"721 468 OFFCURVE",
"717 492 OFFCURVE",
"706 514 CURVE SMOOTH",
"697 531 OFFCURVE",
"681 546 OFFCURVE",
"664 559 CURVE SMOOTH",
"562 636 OFFCURVE",
"422 570 OFFCURVE",
"326 514 CURVE SMOOTH",
"171 424 OFFCURVE",
"57 292 OFFCURVE",
"29 171 CURVE SMOOTH",
"13 101 OFFCURVE",
"21 72 OFFCURVE",
"76 32 CURVE",
"137 -30 OFFCURVE",
"220 -42 OFFCURVE",
"284 -42 CURVE SMOOTH",
"388 -42 OFFCURVE",
"516 1 OFFCURVE",
"627 102 CURVE SMOOTH",
"693 163 OFFCURVE",
"722 250 OFFCURVE",
"643 300 CURVE",
"688 302 OFFCURVE",
"730 307 OFFCURVE",
"770 266 CURVE",
"774 266 OFFCURVE",
"781 267 OFFCURVE",
"779 271 CURVE SMOOTH",
"772 285 OFFCURVE",
"756 299 OFFCURVE",
"742 307 CURVE SMOOTH",
"649 358 OFFCURVE",
"281 327 OFFCURVE",
"274 253 CURVE SMOOTH",
"271 221 OFFCURVE",
"325 233 OFFCURVE",
"335 233 CURVE SMOOTH",
"350 232 OFFCURVE",
"346 240 OFFCURVE",
"337 240 CURVE SMOOTH"
);
}
);
width = 664;
},
{
anchors = (
{
name = bottom;
position = "{244, -27}";
},
{
name = top;
position = "{649, 710}";
}
);
hints = (
{
horizontal = 1;
place = "{-42, 40}";
type = Stem;
},
{
horizontal = 1;
place = "{296, 42}";
type = Stem;
},
{
horizontal = 1;
place = "{527, 66}";
type = Stem;
},
{
place = "{7, 74}";
type = Stem;
},
{
place = "{639, 62}";
type = Stem;
}
);
layerId = "10EE7422-BC27-45A8-8DF8-0D41623AEA15";
paths = (
{
closed = 1;
nodes = (
"779 287 OFFCURVE",
"758 304 OFFCURVE",
"744 311 CURVE SMOOTH",
"653 360 OFFCURVE",
"278 341 OFFCURVE",
"269 260 CURVE SMOOTH",
"268 249 OFFCURVE",
"280 225 OFFCURVE",
"292 227 CURVE SMOOTH",
"376 243 LINE",
"376 244 OFFCURVE",
"375 246 OFFCURVE",
"375 246 CURVE",
"361 246 OFFCURVE",
"342 244 OFFCURVE",
"332 246 CURVE",
"392 271 OFFCURVE",
"477 296 OFFCURVE",
"542 296 CURVE SMOOTH",
"570 296 OFFCURVE",
"644 293 OFFCURVE",
"639 238 CURVE SMOOTH",
"625 105 OFFCURVE",
"379 17 OFFCURVE",
"272 1 CURVE SMOOTH",
"199 -10 OFFCURVE",
"71 1 OFFCURVE",
"81 103 CURVE SMOOTH",
"102 306 OFFCURVE",
"382 527 OFFCURVE",
"586 527 CURVE SMOOTH",
"595 527 OFFCURVE",
"700 525 OFFCURVE",
"696 486 CURVE SMOOTH",
"693 462 OFFCURVE",
"650 422 OFFCURVE",
"649 415 CURVE SMOOTH",
"649 412 OFFCURVE",
"650 411 OFFCURVE",
"650 410 CURVE",
"652 410 OFFCURVE",
"651 408 OFFCURVE",
"655 408 CURVE SMOOTH",
"667 408 OFFCURVE",
"714 450 OFFCURVE",
"713 464 CURVE SMOOTH",
"713 468 OFFCURVE",
"716 474 OFFCURVE",
"716 477 CURVE SMOOTH",
"721 525 OFFCURVE",
"655 575 OFFCURVE",
"616 587 CURVE SMOOTH",
"581 596 OFFCURVE",
"580 593 OFFCURVE",
"564 593 CURVE SMOOTH",
"366 593 OFFCURVE",
"26 343 OFFCURVE",
"7 151 CURVE SMOOTH",
"5 134 OFFCURVE",
"9 107 OFFCURVE",
"15 98 CURVE SMOOTH",
"26 82 OFFCURVE",
"45 68 OFFCURVE",
"61 52 CURVE SMOOTH",
"74 39 OFFCURVE",
"83 24 OFFCURVE",
"92 16 CURVE SMOOTH",
"140 -27 OFFCURVE",
"220 -42 OFFCURVE",
"284 -42 CURVE SMOOTH",
"389 -42 OFFCURVE",
"519 0 OFFCURVE",
"631 101 CURVE SMOOTH",
"669 136 OFFCURVE",
"698 176 OFFCURVE",
"701 209 CURVE SMOOTH",
"706 259 OFFCURVE",
"674 281 OFFCURVE",
"663 290 CURVE",
"700 298 OFFCURVE",
"729 301 OFFCURVE",
"768 262 CURVE",
"776 262 OFFCURVE",
"776 261 OFFCURVE",
"777 270 CURVE SMOOTH"
);
}
);
width = 664;
}
);
note = G;
unicode = 0047;
},
{
glyphname = H;
lastChange = "2021-09-06 07:58:07 +0000";
layers = (
{
hints = (
{
horizontal = 1;
place = "{235, 24}";
type = Stem;
},
{
horizontal = 1;
place = "{636, 15}";
type = Stem;
},
{
place = "{106, 15}";
type = Stem;
},
{
place = "{790, 52}";
type = Stem;
}
);
layerId = "E1C4CDDB-EFDF-468A-8ACC-65E2DFDE53DF";
paths = (
{
closed = 1;
nodes = (
"84 354 LINE",
"94 352 OFFCURVE",
"98 358 OFFCURVE",
"88 359 CURVE SMOOTH",
"54 364 OFFCURVE",
"59 399 OFFCURVE",
"79 416 CURVE SMOOTH",
"206 526 OFFCURVE",
"610 636 OFFCURVE",
"729 636 CURVE SMOOTH",
"822 636 OFFCURVE",
"791 581 OFFCURVE",
"745 517 CURVE SMOOTH",
"689 439 OFFCURVE",
"615 339 OFFCURVE",
"555 259 CURVE",
"439 261 OFFCURVE",
"244 267 OFFCURVE",
"148 224 CURVE SMOOTH",
"124 214 OFFCURVE",
"94 185 OFFCURVE",
"110 144 CURVE",
"106 127 OFFCURVE",
"103 118 OFFCURVE",
"102 110 CURVE SMOOTH",
"101 104 OFFCURVE",
"102 99 OFFCURVE",
"105 91 CURVE SMOOTH",
"113 75 OFFCURVE",
"127 73 OFFCURVE",
"142 71 CURVE SMOOTH",
"159 69 OFFCURVE",
"181 55 OFFCURVE",
"188 55 CURVE SMOOTH",
"194 55 OFFCURVE",
"189 60 OFFCURVE",
"187 60 CURVE",
"162 69 OFFCURVE",
"129 90 OFFCURVE",
"122 120 CURVE SMOOTH",
"108 177 OFFCURVE",
"186 197 OFFCURVE",
"225 206 CURVE SMOOTH",
"293 223 OFFCURVE",
"408 232 OFFCURVE",
"539 235 CURVE",
"537 233 OFFCURVE",
"386 20 OFFCURVE",
"386 -15 CURVE SMOOTH",
"386 -58 OFFCURVE",
"429 -60 OFFCURVE",
"438 -47 CURVE",
"448 -26 OFFCURVE",
"461 -5 OFFCURVE",
"468 11 CURVE SMOOTH",
"473 23 OFFCURVE",
"481 35 OFFCURVE",
"472 35 CURVE SMOOTH",
"466 35 OFFCURVE",
"459 31 OFFCURVE",
"451 31 CURVE",
"488 99 OFFCURVE",
"525 176 OFFCURVE",
"576 234 CURVE",
"673 237 OFFCURVE",
"785 233 OFFCURVE",
"876 237 CURVE",
"829 158 OFFCURVE",
"799 81 OFFCURVE",
"799 33 CURVE SMOOTH",
"799 5 OFFCURVE",
"812 -34 OFFCURVE",
"856 -34 CURVE SMOOTH",
"858 -34 OFFCURVE",
"863 -32 OFFCURVE",
"859 -31 CURVE",
"829 -28 OFFCURVE",
"824 -3 OFFCURVE",
"824 21 CURVE SMOOTH",
"824 84 OFFCURVE",
"868 163 OFFCURVE",
"924 240 CURVE",
"964 242 OFFCURVE",
"996 245 OFFCURVE",
"1021 249 CURVE SMOOTH",
"1051 254 OFFCURVE",
"1035 259 OFFCURVE",
"1020 257 CURVE SMOOTH",
"1003 253 OFFCURVE",
"962 251 OFFCURVE",
"929 251 CURVE",
"983 332 OFFCURVE",
"1054 405 OFFCURVE",
"1122 473 CURVE SMOOTH",
"1160 512 OFFCURVE",
"1195 544 OFFCURVE",
"1196 547 CURVE SMOOTH",
"1207 577 OFFCURVE",
"1166 587 OFFCURVE",
"1145 588 CURVE",
"1125 573 OFFCURVE",
"1063 540 OFFCURVE",
"1089 512 CURVE",
"1040 464 OFFCURVE",
"952 359 OFFCURVE",
"884 251 CURVE",
"819 251 OFFCURVE",
"716 251 OFFCURVE",
"596 255 CURVE",
"618 279 OFFCURVE",
"698 382 OFFCURVE",
"769 455 CURVE SMOOTH",
"850 539 OFFCURVE",
"874 612 OFFCURVE",
"784 641 CURVE SMOOTH",
"714 664 OFFCURVE",
"582 644 OFFCURVE",
"433 606 CURVE SMOOTH",
"217 551 OFFCURVE",
"10 459 OFFCURVE",
"10 419 CURVE SMOOTH",
"10 394 OFFCURVE",
"68 356 OFFCURVE",
"84 353 CURVE"
);
}
);
width = 936;
},
{
hints = (
{
horizontal = 1;
place = "{223, 42}";
type = Stem;
},
{
horizontal = 1;
place = "{626, 21}";
target = up;
type = BottomGhost;
},
{
place = "{101, 25}";
type = Stem;
},
{
place = "{793, 36}";
type = Stem;
}
);
layerId = "10EE7422-BC27-45A8-8DF8-0D41623AEA15";
paths = (
{
closed = 1;
nodes = (
"1210 575 OFFCURVE",
"1162 588 OFFCURVE",
"1144 589 CURVE",
"1122 571 OFFCURVE",
"1056 537 OFFCURVE",
"1082 509 CURVE",
"1036 465 OFFCURVE",
"948 361 OFFCURVE",
"882 256 CURVE",
"819 257 OFFCURVE",
"736 259 OFFCURVE",
"627 262 CURVE",
"703 345 OFFCURVE",
"784 425 OFFCURVE",
"820 476 CURVE SMOOTH",
"851 519 OFFCURVE",
"860 529 OFFCURVE",
"860 565 CURVE SMOOTH",
"860 784 OFFCURVE",
"5 506 OFFCURVE",
"5 417 CURVE SMOOTH",
"5 388 OFFCURVE",
"65 356 OFFCURVE",
"81 353 CURVE SMOOTH",
"102 350 OFFCURVE",
"105 357 OFFCURVE",
"96 363 CURVE",
"62 363 OFFCURVE",
"65 389 OFFCURVE",
"87 407 CURVE SMOOTH",
"212 515 OFFCURVE",
"611 626 OFFCURVE",
"729 626 CURVE SMOOTH",
"815 626 OFFCURVE",
"791 588 OFFCURVE",
"754 531 CURVE SMOOTH",
"702 451 OFFCURVE",
"611 341 OFFCURVE",
"553 265 CURVE",
"544 265 LINE SMOOTH",
"473 267 OFFCURVE",
"253 281 OFFCURVE",
"154 237 CURVE SMOOTH",
"129 226 OFFCURVE",
"88 189 OFFCURVE",
"105 145 CURVE",
"98 115 OFFCURVE",
"93 109 OFFCURVE",
"101 92 CURVE SMOOTH",
"112 69 OFFCURVE",
"134 71 OFFCURVE",
"159 67 CURVE SMOOTH",
"169 65 OFFCURVE",
"180 57 OFFCURVE",
"194 57 CURVE SMOOTH",
"196 57 OFFCURVE",
"200 65 OFFCURVE",
"189 69 CURVE SMOOTH",
"164 77 OFFCURVE",
"134 96 OFFCURVE",
"127 124 CURVE SMOOTH",
"116 169 OFFCURVE",
"192 186 OFFCURVE",
"225 194 CURVE SMOOTH",
"292 211 OFFCURVE",
"402 218 OFFCURVE",
"521 223 CURVE",
"519 220 LINE SMOOTH",
"456 130 OFFCURVE",
"381 16 OFFCURVE",
"381 -10 CURVE SMOOTH",
"381 -57 OFFCURVE",
"431 -63 OFFCURVE",
"443 -45 CURVE",
"461 -2 OFFCURVE",
"495 40 OFFCURVE",
"469 39 CURVE SMOOTH",
"464 39 OFFCURVE",
"463 40 OFFCURVE",
"460 40 CURVE",
"472 63 OFFCURVE",
"489 92 OFFCURVE",
"494 99 CURVE SMOOTH",
"519 138 OFFCURVE",
"554 181 OFFCURVE",
"593 225 CURVE",
"688 228 OFFCURVE",
"785 229 OFFCURVE",
"867 233 CURVE",
"825 163 OFFCURVE",
"794 94 OFFCURVE",
"794 46 CURVE SMOOTH",
"794 17 OFFCURVE",
"817 -32 OFFCURVE",
"851 -32 CURVE SMOOTH",
"856 -32 OFFCURVE",
"860 -31 OFFCURVE",
"864 -29 CURVE",
"864 -21 LINE",
"835 -21 OFFCURVE",
"829 0 OFFCURVE",
"829 25 CURVE SMOOTH",
"829 85 OFFCURVE",
"872 162 OFFCURVE",
"927 236 CURVE",
"964 238 OFFCURVE",
"997 241 OFFCURVE",
"1022 245 CURVE SMOOTH",
"1066 252 OFFCURVE",
"1036 265 OFFCURVE",
"1019 262 CURVE SMOOTH",
"1003 259 OFFCURVE",
"978 257 OFFCURVE",
"943 256 CURVE",
"1002 333 OFFCURVE",
"1072 405 OFFCURVE",
"1114 448 CURVE SMOOTH",
"1135 469 OFFCURVE",
"1199 517 OFFCURVE",
"1207 540 CURVE SMOOTH",
"1209 544 OFFCURVE",
"1210 548 OFFCURVE",
"1210 552 CURVE SMOOTH"
);
}
);
width = 936;
}
);
note = H;
unicode = 0048;
},
{
glyphname = I;
lastChange = "2021-09-06 07:58:07 +0000";
layers = (
{
hints = (
{
horizontal = 1;
place = "{-44, 35}";
type = Stem;
},
{
horizontal = 1;
place = "{-4, 43}";
type = Stem;
},
{
horizontal = 1;
place = "{550, 105}";
type = Stem;
},
{
place = "{241, 26}";
type = Stem;
},
{
place = "{506, 10}";
type = Stem;
}
);
layerId = "E1C4CDDB-EFDF-468A-8ACC-65E2DFDE53DF";
paths = (
{
closed = 1;
nodes = (
"272 417 OFFCURVE",
"254 440 OFFCURVE",
"254 474 CURVE SMOOTH",
"254 489 OFFCURVE",
"266 501 OFFCURVE",
"282 510 CURVE SMOOTH",
"326 534 OFFCURVE",
"408 549 OFFCURVE",
"506 554 CURVE",
"405 443 OFFCURVE",
"241 222 OFFCURVE",
"241 110 CURVE SMOOTH",
"241 82 OFFCURVE",
"248 41 OFFCURVE",
"293 36 CURVE SMOOTH",
"296 36 OFFCURVE",
"310 42 OFFCURVE",
"302 44 CURVE",
"272 46 OFFCURVE",
"267 65 OFFCURVE",
"267 89 CURVE SMOOTH",
"267 223 OFFCURVE",
"446 422 OFFCURVE",
"531 510 CURVE SMOOTH",
"549 529 OFFCURVE",
"576 548 OFFCURVE",
"608 550 CURVE SMOOTH",
"626 551 OFFCURVE",
"659 547 OFFCURVE",
"680 539 CURVE SMOOTH",
"691 535 OFFCURVE",
"690 548 OFFCURVE",
"687 546 CURVE",
"661 557 OFFCURVE",
"633 566 OFFCURVE",
"594 574 CURVE",
"594 574 OFFCURVE",
"615 595 OFFCURVE",
"621 602 CURVE SMOOTH",
"659 645 OFFCURVE",
"610 644 OFFCURVE",
"587 655 CURVE",
"577 647 OFFCURVE",
"559 636 OFFCURVE",
"545 624 CURVE SMOOTH",
"529 611 OFFCURVE",
"521 599 OFFCURVE",
"526 582 CURVE",
"366 594 OFFCURVE",
"224 561 OFFCURVE",
"224 505 CURVE SMOOTH",
"224 464 OFFCURVE",
"239 414 OFFCURVE",
"290 385 CURVE SMOOTH",
"302 379 OFFCURVE",
"306 383 OFFCURVE",
"299 390 CURVE SMOOTH"
);
},
{
closed = 1;
nodes = (
"473 -114 OFFCURVE",
"480 -120 OFFCURVE",
"497 -113 CURVE SMOOTH",
"520 -103 OFFCURVE",
"518 -77 OFFCURVE",
"512 -56 CURVE",
"523 24 OFFCURVE",
"464 42 OFFCURVE",
"397 40 CURVE SMOOTH",
"364 39 OFFCURVE",
"327 32 OFFCURVE",
"296 25 CURVE SMOOTH",
"264 18 OFFCURVE",
"236 10 OFFCURVE",
"220 7 CURVE SMOOTH",
"197 2 OFFCURVE",
"158 -7 OFFCURVE",
"120 -9 CURVE SMOOTH",
"82 -11 OFFCURVE",
"43 -5 OFFCURVE",
"23 23 CURVE SMOOTH",
"15 34 OFFCURVE",
"14 49 OFFCURVE",
"28 62 CURVE SMOOTH",
"35 69 OFFCURVE",
"24 72 OFFCURVE",
"22 70 CURVE SMOOTH",
"12 62 OFFCURVE",
"12 51 OFFCURVE",
"11 42 CURVE SMOOTH",
"8 -21 OFFCURVE",
"41 -41 OFFCURVE",
"83 -44 CURVE SMOOTH",
"126 -47 OFFCURVE",
"227 -27 OFFCURVE",
"268 -17 CURVE SMOOTH",
"305 -8 OFFCURVE",
"510 27 OFFCURVE",
"506 -68 CURVE SMOOTH",
"505 -88 OFFCURVE",
"492 -94 OFFCURVE",
"480 -106 CURVE SMOOTH"
);
}
);
width = 498;
},
{
hints = (
{
horizontal = 1;
place = "{-45, 44}";
type = Stem;
},
{
horizontal = 1;
place = "{655, -20}";
target = down;
type = TopGhost;
},
{
place = "{219, 41}";
type = Stem;
}
);
layerId = "10EE7422-BC27-45A8-8DF8-0D41623AEA15";
paths = (
{
closed = 1;
nodes = (
"676 554 OFFCURVE",
"648 562 OFFCURVE",
"617 569 CURVE",
"633 583 OFFCURVE",
"646 597 OFFCURVE",
"650 607 CURVE SMOOTH",
"651 610 OFFCURVE",
"652 614 OFFCURVE",
"652 618 CURVE SMOOTH",
"652 641 OFFCURVE",
"604 655 OFFCURVE",
"586 655 CURVE",
"566 639 OFFCURVE",
"510 609 OFFCURVE",
"519 583 CURVE",
"369 595 OFFCURVE",
"219 564 OFFCURVE",
"219 502 CURVE SMOOTH",
"219 460 OFFCURVE",
"256 397 OFFCURVE",
"288 379 CURVE SMOOTH",
"296 375 OFFCURVE",
"309 376 OFFCURVE",
"302 383 CURVE SMOOTH",
"275 409 OFFCURVE",
"259 438 OFFCURVE",
"259 471 CURVE SMOOTH",
"259 484 OFFCURVE",
"269 494 OFFCURVE",
"284 502 CURVE SMOOTH",
"327 526 OFFCURVE",
"408 541 OFFCURVE",
"494 544 CURVE",
"401 444 OFFCURVE",
"236 225 OFFCURVE",
"236 112 CURVE SMOOTH",
"236 84 OFFCURVE",
"259 34 OFFCURVE",
"293 34 CURVE SMOOTH",
"298 34 OFFCURVE",
"302 35 OFFCURVE",
"306 37 CURVE",
"306 45 LINE",
"277 45 OFFCURVE",
"272 66 OFFCURVE",
"272 91 CURVE SMOOTH",
"272 221 OFFCURVE",
"470 426 OFFCURVE",
"556 514 CURVE SMOOTH",
"563 522 OFFCURVE",
"576 533 OFFCURVE",
"590 544 CURVE",
"625 543 OFFCURVE",
"659 539 OFFCURVE",
"689 533 CURVE SMOOTH",
"699 531 OFFCURVE",
"711 539 OFFCURVE",
"702 543 CURVE SMOOTH"
);
},
{
closed = 1;
nodes = (
"523 -72 OFFCURVE",
"521 -89 OFFCURVE",
"511 -54 CURVE",
"533 112 OFFCURVE",
"282 28 OFFCURVE",
"219 15 CURVE SMOOTH",
"173 6 OFFCURVE",
"64 -22 OFFCURVE",
"27 29 CURVE SMOOTH",
"20 38 OFFCURVE",
"20 50 OFFCURVE",
"31 61 CURVE SMOOTH",
"41 70 OFFCURVE",
"31 82 OFFCURVE",
"24 77 CURVE SMOOTH",
"13 67 OFFCURVE",
"7 55 OFFCURVE",
"6 45 CURVE SMOOTH",
"-1 -86 OFFCURVE",
"150 -40 OFFCURVE",
"210 -26 CURVE SMOOTH",
"246 -18 OFFCURVE",
"505 28 OFFCURVE",
"501 -64 CURVE SMOOTH",
"500 -88 OFFCURVE",
"484 -110 OFFCURVE",
"470 -120 CURVE SMOOTH",
"464 -124 OFFCURVE",
"467 -130 OFFCURVE",
"468 -130 CURVE SMOOTH",
"477 -129 OFFCURVE",
"483 -120 OFFCURVE",
"488 -117 CURVE SMOOTH",
"502 -110 OFFCURVE",
"516 -109 OFFCURVE",
"520 -88 CURVE SMOOTH"
);
}
);
width = 498;
}
);
note = I;
unicode = 0049;
},
{
glyphname = J;
lastChange = "2021-09-06 07:58:07 +0000";
layers = (
{
hints = (
{
horizontal = 1;
place = "{-145, 12}";
type = Stem;
},
{
horizontal = 1;
place = "{512, 22}";
type = Stem;
},
{
place = "{-58, 34}";
type = Stem;
},
{
place = "{161, 30}";
type = Stem;
},
{
place = "{516, 45}";
type = Stem;
}
);
layerId = "E1C4CDDB-EFDF-468A-8ACC-65E2DFDE53DF";
paths = (
{
closed = 1;
nodes = (
"628 506 OFFCURVE",
"594 512 OFFCURVE",
"549 518 CURVE",
"540 533 OFFCURVE",
"515 553 OFFCURVE",
"496 546 CURVE",
"501 541 OFFCURVE",
"506 535 OFFCURVE",
"512 523 CURVE",
"440 534 OFFCURVE",
"282 543 OFFCURVE",
"213 517 CURVE SMOOTH",
"131 486 OFFCURVE",
"158 382 OFFCURVE",
"201 328 CURVE SMOOTH",
"223 300 OFFCURVE",
"254 277 OFFCURVE",
"294 252 CURVE SMOOTH",
"304 246 OFFCURVE",
"315 252 OFFCURVE",
"305 256 CURVE",
"256 282 OFFCURVE",
"191 343 OFFCURVE",
"191 403 CURVE SMOOTH",
"191 494 OFFCURVE",
"315 512 OFFCURVE",
"433 512 CURVE SMOOTH",
"454 512 OFFCURVE",
"491 510 OFFCURVE",
"515 507 CURVE",
"516 500 OFFCURVE",
"516 497 OFFCURVE",
"516 493 CURVE SMOOTH",
"516 412 OFFCURVE",
"465 288 OFFCURVE",
"426 220 CURVE SMOOTH",
"361 108 OFFCURVE",
"251 -42 OFFCURVE",
"133 -104 CURVE SMOOTH",
"93 -125 OFFCURVE",
"-24 -165 OFFCURVE",
"-24 -87 CURVE SMOOTH",
"-24 -40 OFFCURVE",
"30 11 OFFCURVE",
"62 34 CURVE SMOOTH",
"123 79 OFFCURVE",
"207 118 OFFCURVE",
"285 118 CURVE",
"296 119 OFFCURVE",
"295 125 OFFCURVE",
"284 125 CURVE SMOOTH",
"204 125 OFFCURVE",
"106 94 OFFCURVE",
"41 48 CURVE SMOOTH",
"1 19 OFFCURVE",
"-58 -33 OFFCURVE",
"-58 -84 CURVE SMOOTH",
"-58 -129 OFFCURVE",
"-13 -145 OFFCURVE",
"28 -145 CURVE SMOOTH",
"207 -145 OFFCURVE",
"388 61 OFFCURVE",
"476 205 CURVE SMOOTH",
"518 274 OFFCURVE",
"561 385 OFFCURVE",
"561 466 CURVE SMOOTH",
"561 476 OFFCURVE",
"560 486 OFFCURVE",
"557 502 CURVE",
"581 499 OFFCURVE",
"605 496 OFFCURVE",
"629 493 CURVE SMOOTH",
"642 491 OFFCURVE",
"648 498 OFFCURVE",
"638 502 CURVE SMOOTH"
);
}
);
width = 433;
},
{
hints = (
{
horizontal = 1;
place = "{-145, 15}";
type = Stem;
},
{
horizontal = 1;
place = "{119, 12}";
type = Stem;
},
{
horizontal = 1;
place = "{502, 23}";
type = Stem;
},
{
place = "{-63, 44}";
type = Stem;
},
{
place = "{157, 39}";
type = Stem;
}
);
layerId = "10EE7422-BC27-45A8-8DF8-0D41623AEA15";
paths = (
{
closed = 1;
nodes = (
"648 497 OFFCURVE",
"646 498 OFFCURVE",
"645 499 CURVE",
"631 505 OFFCURVE",
"595 512 OFFCURVE",
"552 519 CURVE",
"544 530 OFFCURVE",
"532 539 OFFCURVE",
"514 545 CURVE SMOOTH",
"510 546 OFFCURVE",
"507 547 OFFCURVE",
"503 547 CURVE SMOOTH",
"497 547 OFFCURVE",
"491 544 OFFCURVE",
"486 541 CURVE",
"494 537 OFFCURVE",
"499 532 OFFCURVE",
"503 525 CURVE",
"447 531 OFFCURVE",
"391 536 OFFCURVE",
"369 536 CURVE SMOOTH",
"319 536 OFFCURVE",
"157 531 OFFCURVE",
"157 453 CURVE SMOOTH",
"157 360 OFFCURVE",
"219 288 OFFCURVE",
"301 251 CURVE SMOOTH",
"304 250 OFFCURVE",
"307 249 OFFCURVE",
"310 249 CURVE SMOOTH",
"311 249 OFFCURVE",
"318 249 OFFCURVE",
"318 252 CURVE SMOOTH",
"318 253 OFFCURVE",
"316 254 OFFCURVE",
"316 255 CURVE",
"285 270 OFFCURVE",
"258 288 OFFCURVE",
"236 315 CURVE SMOOTH",
"218 338 OFFCURVE",
"196 369 OFFCURVE",
"196 400 CURVE SMOOTH",
"196 488 OFFCURVE",
"387 502 OFFCURVE",
"450 502 CURVE SMOOTH",
"470 502 OFFCURVE",
"490 501 OFFCURVE",
"510 498 CURVE",
"511 495 OFFCURVE",
"511 492 OFFCURVE",
"511 489 CURVE SMOOTH",
"511 411 OFFCURVE",
"442 277 OFFCURVE",
"403 210 CURVE SMOOTH",
"338 100 OFFCURVE",
"238 -46 OFFCURVE",
"121 -107 CURVE SMOOTH",
"97 -120 OFFCURVE",
"69 -130 OFFCURVE",
"41 -130 CURVE SMOOTH",
"12 -130 OFFCURVE",
"-19 -115 OFFCURVE",
"-19 -82 CURVE SMOOTH",
"-19 -39 OFFCURVE",
"33 9 OFFCURVE",
"65 33 CURVE SMOOTH",
"125 77 OFFCURVE",
"213 119 OFFCURVE",
"290 119 CURVE SMOOTH",
"302 119 OFFCURVE",
"293 131 OFFCURVE",
"284 131 CURVE SMOOTH",
"203 131 OFFCURVE",
"104 101 OFFCURVE",
"38 54 CURVE SMOOTH",
"-1 26 OFFCURVE",
"-63 -27 OFFCURVE",
"-63 -80 CURVE SMOOTH",
"-63 -129 OFFCURVE",
"-12 -145 OFFCURVE",
"28 -145 CURVE SMOOTH",
"153 -145 OFFCURVE",
"285 -35 OFFCURVE",
"363 53 CURVE SMOOTH",
"404 100 OFFCURVE",
"439 150 OFFCURVE",
"472 203 CURVE SMOOTH",
"514 271 OFFCURVE",
"566 381 OFFCURVE",
"566 462 CURVE SMOOTH",
"566 472 OFFCURVE",
"565 483 OFFCURVE",
"563 492 CURVE",
"584 489 OFFCURVE",
"605 486 OFFCURVE",
"627 484 CURVE SMOOTH",
"629 484 LINE SMOOTH",
"634 484 OFFCURVE",
"648 489 OFFCURVE",
"648 496 CURVE SMOOTH"
);
}
);
width = 433;
}
);
note = J;
unicode = 004A;
},
{
glyphname = K;
lastChange = "2021-09-06 07:58:07 +0000";
layers = (
{
hints = (
{
horizontal = 1;
place = "{278, 12}";
type = Stem;
},
{
horizontal = 1;
place = "{636, 13}";
type = Stem;
},
{
horizontal = 1;
place = "{671, 16}";
type = Stem;
},
{
place = "{10, 55}";
type = Stem;
},
{
place = "{658, 57}";
type = Stem;
},
{
place = "{775, 59}";
type = Stem;
},
{
place = "{866, 55}";
type = Stem;
}
);
layerId = "E1C4CDDB-EFDF-468A-8ACC-65E2DFDE53DF";
paths = (
{
closed = 1;
nodes = (
"97 350 OFFCURVE",
"107 355 OFFCURVE",
"96 359 CURVE",
"52 359 OFFCURVE",
"61 407 OFFCURVE",
"82 425 CURVE SMOOTH",
"191 519 OFFCURVE",
"590 635 OFFCURVE",
"729 635 CURVE SMOOTH",
"893 635 OFFCURVE",
"563 274 OFFCURVE",
"523 217 CURVE SMOOTH",
"460 125 OFFCURVE",
"386 12 OFFCURVE",
"386 -13 CURVE SMOOTH",
"386 -57 OFFCURVE",
"429 -58 OFFCURVE",
"438 -46 CURVE",
"448 -24 OFFCURVE",
"461 7 OFFCURVE",
"473 23 CURVE SMOOTH",
"481 32 OFFCURVE",
"480 40 OFFCURVE",
"472 35 CURVE SMOOTH",
"453 24 OFFCURVE",
"450 28 OFFCURVE",
"451 33 CURVE",
"468 64 OFFCURVE",
"485 93 OFFCURVE",
"489 100 CURVE SMOOTH",
"522 151 OFFCURVE",
"561 202 OFFCURVE",
"611 259 CURVE",
"626 262 OFFCURVE",
"649 266 OFFCURVE",
"679 270 CURVE",
"612 200 OFFCURVE",
"540 128 OFFCURVE",
"484 50 CURVE SMOOTH",
"481 46 OFFCURVE",
"489 46 OFFCURVE",
"491 48 CURVE SMOOTH",
"543 114 OFFCURVE",
"615 193 OFFCURVE",
"704 273 CURVE",
"757 278 OFFCURVE",
"815 285 OFFCURVE",
"846 265 CURVE SMOOTH",
"892 235 OFFCURVE",
"869 116 OFFCURVE",
"687 -121 CURVE SMOOTH",
"636 -187 OFFCURVE",
"652 -207 OFFCURVE",
"727 -230 CURVE SMOOTH",
"731 -231 OFFCURVE",
"732 -224 OFFCURVE",
"729 -223 CURVE SMOOTH",
"720 -220 OFFCURVE",
"714 -213 OFFCURVE",
"714 -201 CURVE SMOOTH",
"714 -183 OFFCURVE",
"741 -138 OFFCURVE",
"770 -94 CURVE SMOOTH",
"799 -49 OFFCURVE",
"832 -3 OFFCURVE",
"846 20 CURVE SMOOTH",
"1006 276 OFFCURVE",
"883 303 OFFCURVE",
"716 286 CURVE",
"817 375 OFFCURVE",
"1359 797 OFFCURVE",
"1447 634 CURVE SMOOTH",
"1452 625 OFFCURVE",
"1457 635 OFFCURVE",
"1451 645 CURVE SMOOTH",
"1439 666 OFFCURVE",
"1403 687 OFFCURVE",
"1361 687 CURVE SMOOTH",
"1158 687 OFFCURVE",
"895 490 OFFCURVE",
"690 283 CURVE",
"674 280 OFFCURVE",
"650 277 OFFCURVE",
"621 272 CURVE",
"674 332 OFFCURVE",
"926 604 OFFCURVE",
"798 642 CURVE SMOOTH",
"657 684 OFFCURVE",
"10 517 OFFCURVE",
"10 419 CURVE SMOOTH",
"10 394 OFFCURVE",
"72 355 OFFCURVE",
"88 352 CURVE SMOOTH"
);
}
);
width = 934;
},
{
hints = (
{
horizontal = 1;
place = "{626, 21}";
target = up;
type = BottomGhost;
},
{
horizontal = 1;
place = "{664, 24}";
type = Stem;
},
{
place = "{653, 67}";
type = Stem;
},
{
place = "{788, 73}";
type = Stem;
},
{
place = "{861, 65}";
type = Stem;
}
);
layerId = "10EE7422-BC27-45A8-8DF8-0D41623AEA15";
paths = (
{
closed = 1;
nodes = (
"1442 666 OFFCURVE",
"1404 688 OFFCURVE",
"1361 688 CURVE SMOOTH",
"1155 688 OFFCURVE",
"892 491 OFFCURVE",
"688 287 CURVE",
"673 285 OFFCURVE",
"658 282 OFFCURVE",
"643 280 CURVE",
"715 357 OFFCURVE",
"787 429 OFFCURVE",
"820 476 CURVE SMOOTH",
"881 560 OFFCURVE",
"870 613 OFFCURVE",
"808 636 CURVE SMOOTH",
"647 695 OFFCURVE",
"5 508 OFFCURVE",
"5 417 CURVE SMOOTH",
"5 388 OFFCURVE",
"65 356 OFFCURVE",
"81 353 CURVE SMOOTH",
"102 350 OFFCURVE",
"105 357 OFFCURVE",
"96 363 CURVE",
"62 363 OFFCURVE",
"65 389 OFFCURVE",
"87 407 CURVE SMOOTH",
"212 515 OFFCURVE",
"611 626 OFFCURVE",
"729 626 CURVE SMOOTH",
"815 626 OFFCURVE",
"791 588 OFFCURVE",
"754 531 CURVE SMOOTH",
"691 434 OFFCURVE",
"570 292 OFFCURVE",
"519 220 CURVE SMOOTH",
"456 130 OFFCURVE",
"381 16 OFFCURVE",
"381 -10 CURVE SMOOTH",
"381 -57 OFFCURVE",
"431 -63 OFFCURVE",
"443 -45 CURVE",
"461 -2 OFFCURVE",
"495 40 OFFCURVE",
"469 39 CURVE SMOOTH",
"464 39 OFFCURVE",
"463 40 OFFCURVE",
"460 40 CURVE",
"472 63 OFFCURVE",
"489 92 OFFCURVE",
"494 99 CURVE SMOOTH",
"526 149 OFFCURVE",
"575 206 OFFCURVE",
"626 262 CURVE",
"639 264 OFFCURVE",
"654 266 OFFCURVE",
"670 269 CURVE",
"599 197 OFFCURVE",
"537 125 OFFCURVE",
"487 61 CURVE SMOOTH",
"481 53 OFFCURVE",
"493 48 OFFCURVE",
"499 56 CURVE SMOOTH",
"551 120 OFFCURVE",
"623 196 OFFCURVE",
"710 274 CURVE",
"762 279 OFFCURVE",
"814 279 OFFCURVE",
"843 260 CURVE SMOOTH",
"883 234 OFFCURVE",
"867 123 OFFCURVE",
"683 -114 CURVE SMOOTH",
"629 -184 OFFCURVE",
"649 -204 OFFCURVE",
"726 -227 CURVE SMOOTH",
"735 -230 OFFCURVE",
"740 -216 OFFCURVE",
"730 -213 CURVE SMOOTH",
"724 -211 OFFCURVE",
"719 -206 OFFCURVE",
"719 -196 CURVE SMOOTH",
"719 -165 OFFCURVE",
"822 -25 OFFCURVE",
"850 20 CURVE SMOOTH",
"1014 278 OFFCURVE",
"885 307 OFFCURVE",
"731 292 CURVE",
"811 361 OFFCURVE",
"902 431 OFFCURVE",
"1002 495 CURVE SMOOTH",
"1138 583 OFFCURVE",
"1393 726 OFFCURVE",
"1445 633 CURVE SMOOTH",
"1450 624 OFFCURVE",
"1460 635 OFFCURVE",
"1455 643 CURVE SMOOTH"
);
}
);
width = 934;
}
);
note = K;
unicode = 004B;
},
{
glyphname = L;
lastChange = "2021-09-06 07:58:07 +0000";
layers = (
{
hints = (
{
horizontal = 1;
place = "{-44, 29}";
type = Stem;
},
{
horizontal = 1;
place = "{-8, 42}";
type = Stem;
},
{
place = "{39, 12}";
type = Stem;
},
{
place = "{112, 15}";
type = Stem;
},
{
place = "{601, 16}";
type = Stem;
}
);
layerId = "E1C4CDDB-EFDF-468A-8ACC-65E2DFDE53DF";
paths = (
{
closed = 1;
nodes = (
"149 146 OFFCURVE",
"149 132 OFFCURVE",
"158 144 CURVE SMOOTH",
"179 173 OFFCURVE",
"230 228 OFFCURVE",
"286 277 CURVE SMOOTH",
"346 330 OFFCURVE",
"524 476 OFFCURVE",
"510 562 CURVE",
"485 578 OFFCURVE",
"476 625 OFFCURVE",
"445 628 CURVE SMOOTH",
"399 633 OFFCURVE",
"286 499 OFFCURVE",
"203 352 CURVE SMOOTH",
"119 202 OFFCURVE",
"76 52 OFFCURVE",
"150 29 CURVE SMOOTH",
"156 27 OFFCURVE",
"168 30 OFFCURVE",
"154 35 CURVE SMOOTH",
"105 54 OFFCURVE",
"134 146 OFFCURVE",
"148 178 CURVE SMOOTH",
"178 247 OFFCURVE",
"224 328 OFFCURVE",
"273 386 CURVE SMOOTH",
"297 415 OFFCURVE",
"438 601 OFFCURVE",
"482 566 CURVE SMOOTH",
"528 528 OFFCURVE",
"301 313 OFFCURVE",
"263 274 CURVE SMOOTH",
"220 228 OFFCURVE",
"173 181 OFFCURVE",
"153 153 CURVE SMOOTH"
);
},
{
closed = 1;
nodes = (
"621 -94 OFFCURVE",
"622 -72 OFFCURVE",
"608 -57 CURVE",
"621 22 OFFCURVE",
"566 36 OFFCURVE",
"495 34 CURVE SMOOTH",
"384 30 OFFCURVE",
"129 -62 OFFCURVE",
"59 16 CURVE SMOOTH",
"49 28 OFFCURVE",
"47 48 OFFCURVE",
"63 60 CURVE SMOOTH",
"69 65 OFFCURVE",
"63 70 OFFCURVE",
"60 68 CURVE SMOOTH",
"33 50 OFFCURVE",
"34 14 OFFCURVE",
"51 -11 CURVE SMOOTH",
"67 -33 OFFCURVE",
"96 -42 OFFCURVE",
"130 -44 CURVE SMOOTH",
"182 -47 OFFCURVE",
"234 -35 OFFCURVE",
"286 -26 CURVE SMOOTH",
"331 -17 OFFCURVE",
"606 26 OFFCURVE",
"601 -67 CURVE SMOOTH",
"600 -89 OFFCURVE",
"586 -107 OFFCURVE",
"572 -119 CURVE SMOOTH",
"566 -124 OFFCURVE",
"574 -124 OFFCURVE",
"576 -123 CURVE SMOOTH",
"580 -121 OFFCURVE",
"596 -109 OFFCURVE",
"600 -107 CURVE SMOOTH"
);
}
);
width = 600;
},
{
hints = (
{
horizontal = 1;
place = "{-46, 44}";
type = Stem;
},
{
place = "{35, 20}";
type = Stem;
},
{
place = "{107, 24}";
type = Stem;
},
{
place = "{596, 12}";
type = Stem;
}
);
layerId = "10EE7422-BC27-45A8-8DF8-0D41623AEA15";
paths = (
{
closed = 1;
nodes = (
"499 560 OFFCURVE",
"480 624 OFFCURVE",
"446 628 CURVE SMOOTH",
"346 639 OFFCURVE",
"-14 82 OFFCURVE",
"149 32 CURVE SMOOTH",
"170 26 OFFCURVE",
"169 38 OFFCURVE",
"156 43 CURVE SMOOTH",
"109 60 OFFCURVE",
"140 147 OFFCURVE",
"152 176 CURVE SMOOTH",
"212 311 OFFCURVE",
"341 432 OFFCURVE",
"416 513 CURVE SMOOTH",
"481 581 OFFCURVE",
"516 549 OFFCURVE",
"466 486 CURVE SMOOTH",
"450 465 OFFCURVE",
"412 433 OFFCURVE",
"389 409 CURVE SMOOTH",
"362 379 OFFCURVE",
"153 178 OFFCURVE",
"143 136 CURVE SMOOTH",
"140 125 OFFCURVE",
"147 122 OFFCURVE",
"152 133 CURVE SMOOTH",
"170 177 OFFCURVE",
"397 352 OFFCURVE",
"460 420 CURVE SMOOTH",
"547 514 OFFCURVE",
"519 516 OFFCURVE",
"522 549 CURVE"
);
},
{
closed = 1;
nodes = (
"623 -71 OFFCURVE",
"621 -87 OFFCURVE",
"608 -53 CURVE",
"636 111 OFFCURVE",
"376 26 OFFCURVE",
"298 14 CURVE SMOOTH",
"241 5 OFFCURVE",
"106 -23 OFFCURVE",
"61 27 CURVE SMOOTH",
"53 37 OFFCURVE",
"52 48 OFFCURVE",
"66 59 CURVE SMOOTH",
"78 68 OFFCURVE",
"66 80 OFFCURVE",
"58 74 CURVE SMOOTH",
"44 65 OFFCURVE",
"36 53 OFFCURVE",
"35 43 CURVE SMOOTH",
"26 -86 OFFCURVE",
"213 -41 OFFCURVE",
"286 -27 CURVE SMOOTH",
"331 -19 OFFCURVE",
"601 28 OFFCURVE",
"596 -63 CURVE SMOOTH",
"595 -87 OFFCURVE",
"575 -108 OFFCURVE",
"558 -118 CURVE SMOOTH",
"550 -123 OFFCURVE",
"554 -129 OFFCURVE",
"556 -128 CURVE",
"566 -127 OFFCURVE",
"573 -118 OFFCURVE",
"580 -115 CURVE SMOOTH",
"598 -109 OFFCURVE",
"615 -107 OFFCURVE",
"620 -86 CURVE SMOOTH"
);
}
);
width = 600;
}
);
note = L;
unicode = 004C;
},
{
glyphname = M;
lastChange = "2021-09-06 07:58:07 +0000";
layers = (
{
hints = (
{
horizontal = 1;
place = "{636, 13}";
type = Stem;
},
{
place = "{803, 52}";
type = Stem;
},
{
place = "{1005, 25}";
type = Stem;
}
);
layerId = "E1C4CDDB-EFDF-468A-8ACC-65E2DFDE53DF";
paths = (
{
closed = 1;
nodes = (
"1131 35 OFFCURVE",
"1126 38 OFFCURVE",
"1122 31 CURVE SMOOTH",
"1112 15 OFFCURVE",
"1094 -6 OFFCURVE",
"1086 -11 CURVE SMOOTH",
"1018 -54 OFFCURVE",
"1018 16 OFFCURVE",
"1054 78 CURVE SMOOTH",
"1083 128 OFFCURVE",
"1161 261 OFFCURVE",
"1189 326 CURVE SMOOTH",
"1206 362 OFFCURVE",
"1194 374 OFFCURVE",
"1181 376 CURVE SMOOTH",
"1170 378 OFFCURVE",
"1155 378 OFFCURVE",
"1147 384 CURVE",
"1084 323 OFFCURVE",
"1026 262 OFFCURVE",
"973 188 CURVE SMOOTH",
"964 176 OFFCURVE",
"894 73 OFFCURVE",
"885 55 CURVE SMOOTH",
"881 47 OFFCURVE",
"883 38 OFFCURVE",
"891 52 CURVE SMOOTH",
"922 105 OFFCURVE",
"995 199 OFFCURVE",
"1040 245 CURVE SMOOTH",
"1062 268 OFFCURVE",
"1094 298 OFFCURVE",
"1104 301 CURVE SMOOTH",
"1113 304 OFFCURVE",
"1118 298 OFFCURVE",
"1117 290 CURVE SMOOTH",
"1115 283 OFFCURVE",
"1111 272 OFFCURVE",
"1103 258 CURVE SMOOTH",
"1088 231 OFFCURVE",
"1028 125 OFFCURVE",
"1011 55 CURVE SMOOTH",
"1003 19 OFFCURVE",
"1003 -11 OFFCURVE",
"1020 -23 CURVE SMOOTH",
"1043 -41 OFFCURVE",
"1061 -47 OFFCURVE",
"1069 -47 CURVE SMOOTH",
"1082 -47 OFFCURVE",
"1094 -33 OFFCURVE",
"1106 -12 CURVE SMOOTH",
"1114 1 OFFCURVE",
"1121 15 OFFCURVE",
"1128 29 CURVE SMOOTH"
);
},
{
closed = 1;
nodes = (
"103 345 OFFCURVE",
"116 359 OFFCURVE",
"96 359 CURVE SMOOTH",
"52 358 OFFCURVE",
"62 394 OFFCURVE",
"83 413 CURVE SMOOTH",
"141 463 OFFCURVE",
"257 516 OFFCURVE",
"376 557 CURVE SMOOTH",
"517 605 OFFCURVE",
"664 636 OFFCURVE",
"729 636 CURVE SMOOTH",
"822 636 OFFCURVE",
"815 590 OFFCURVE",
"774 527 CURVE SMOOTH",
"711 429 OFFCURVE",
"573 266 OFFCURVE",
"523 193 CURVE SMOOTH",
"459 101 OFFCURVE",
"386 10 OFFCURVE",
"386 -15 CURVE SMOOTH",
"386 -59 OFFCURVE",
"444 -66 OFFCURVE",
"453 -54 CURVE",
"511 37 OFFCURVE",
"836 423 OFFCURVE",
"948 426 CURVE SMOOTH",
"966 426 OFFCURVE",
"982 403 OFFCURVE",
"965 364 CURVE SMOOTH",
"946 317 OFFCURVE",
"923 276 OFFCURVE",
"901 235 CURVE SMOOTH",
"880 193 OFFCURVE",
"859 141 OFFCURVE",
"845 91 CURVE SMOOTH",
"834 52 OFFCURVE",
"830 22 OFFCURVE",
"856 18 CURVE SMOOTH",
"871 16 OFFCURVE",
"882 24 OFFCURVE",
"870 28 CURVE SMOOTH",
"867 29 OFFCURVE",
"868 34 OFFCURVE",
"868 37 CURVE",
"889 171 OFFCURVE",
"1046 344 OFFCURVE",
"1046 406 CURVE SMOOTH",
"1046 420 OFFCURVE",
"1023 454 OFFCURVE",
"1000 454 CURVE SMOOTH",
"969 454 OFFCURVE",
"917 435 OFFCURVE",
"870 405 CURVE SMOOTH",
"743 322 OFFCURVE",
"587 160 OFFCURVE",
"533 100 CURVE",
"528 93 OFFCURVE",
"520 95 OFFCURVE",
"521 104 CURVE SMOOTH",
"521 108 OFFCURVE",
"523 114 OFFCURVE",
"525 118 CURVE SMOOTH",
"587 216 OFFCURVE",
"855 493 OFFCURVE",
"855 569 CURVE SMOOTH",
"855 686 OFFCURVE",
"603 658 OFFCURVE",
"370 590 CURVE SMOOTH",
"186 537 OFFCURVE",
"10 459 OFFCURVE",
"10 419 CURVE SMOOTH",
"10 394 OFFCURVE",
"32 369 OFFCURVE",
"90 349 CURVE SMOOTH"
);
}
);
width = 1128;
},
{
hints = (
{
horizontal = 1;
place = "{-56, 38}";
type = Stem;
},
{
horizontal = 1;
place = "{626, 21}";
target = up;
type = BottomGhost;
},
{
place = "{788, 72}";
type = Stem;
},
{
place = "{1002, 48}";
type = Stem;
}
);
layerId = "10EE7422-BC27-45A8-8DF8-0D41623AEA15";
paths = (
{
closed = 1;
nodes = (
"1199 385 OFFCURVE",
"1161 380 OFFCURVE",
"1146 389 CURVE",
"1082 327 OFFCURVE",
"1023 267 OFFCURVE",
"969 192 CURVE SMOOTH",
"960 180 OFFCURVE",
"906 101 OFFCURVE",
"898 83 CURVE SMOOTH",
"886 59 OFFCURVE",
"899 58 OFFCURVE",
"908 73 CURVE SMOOTH",
"969 177 OFFCURVE",
"1150 363 OFFCURVE",
"1086 248 CURVE SMOOTH",
"1064 207 OFFCURVE",
"966 14 OFFCURVE",
"1017 -23 CURVE SMOOTH",
"1040 -40 OFFCURVE",
"1069 -56 OFFCURVE",
"1079 -56 CURVE SMOOTH",
"1111 -56 OFFCURVE",
"1133 13 OFFCURVE",
"1150 34 CURVE",
"1155 43 OFFCURVE",
"1149 40 OFFCURVE",
"1143 35 CURVE SMOOTH",
"1130 25 OFFCURVE",
"1106 -1 OFFCURVE",
"1093 -11 CURVE",
"1055 -34 OFFCURVE",
"1045 3 OFFCURVE",
"1052 37 CURVE SMOOTH",
"1069 113 OFFCURVE",
"1256 345 OFFCURVE",
"1217 372 CURVE SMOOTH"
);
},
{
closed = 1;
nodes = (
"1051 420 OFFCURVE",
"1026 456 OFFCURVE",
"1000 456 CURVE SMOOTH",
"967 456 OFFCURVE",
"914 437 OFFCURVE",
"868 407 CURVE SMOOTH",
"740 326 OFFCURVE",
"583 165 OFFCURVE",
"530 106 CURVE SMOOTH",
"523 98 OFFCURVE",
"525 111 OFFCURVE",
"530 118 CURVE SMOOTH",
"610 243 OFFCURVE",
"760 391 OFFCURVE",
"820 476 CURVE SMOOTH",
"851 519 OFFCURVE",
"860 529 OFFCURVE",
"860 565 CURVE SMOOTH",
"860 706 OFFCURVE",
"510 626 OFFCURVE",
"438 609 CURVE SMOOTH",
"359 591 OFFCURVE",
"281 562 OFFCURVE",
"207 536 CURVE SMOOTH",
"171 524 OFFCURVE",
"5 453 OFFCURVE",
"5 417 CURVE SMOOTH",
"5 388 OFFCURVE",
"65 356 OFFCURVE",
"81 353 CURVE SMOOTH",
"102 350 OFFCURVE",
"105 357 OFFCURVE",
"96 363 CURVE",
"62 363 OFFCURVE",
"65 389 OFFCURVE",
"87 407 CURVE SMOOTH",
"212 515 OFFCURVE",
"611 626 OFFCURVE",
"729 626 CURVE SMOOTH",
"815 626 OFFCURVE",
"791 588 OFFCURVE",
"754 531 CURVE SMOOTH",
"691 434 OFFCURVE",
"570 292 OFFCURVE",
"519 220 CURVE SMOOTH",
"456 130 OFFCURVE",
"381 16 OFFCURVE",
"381 -10 CURVE SMOOTH",
"381 -57 OFFCURVE",
"445 -70 OFFCURVE",
"457 -51 CURVE SMOOTH",
"527 56 OFFCURVE",
"627 163 OFFCURVE",
"713 249 CURVE SMOOTH",
"760 295 OFFCURVE",
"821 340 OFFCURVE",
"864 374 CURVE SMOOTH",
"940 432 OFFCURVE",
"981 438 OFFCURVE",
"953 370 CURVE SMOOTH",
"915 278 OFFCURVE",
"859 211 OFFCURVE",
"837 110 CURVE SMOOTH",
"826 60 OFFCURVE",
"827 12 OFFCURVE",
"870 17 CURVE",
"877 153 OFFCURVE",
"1051 338 OFFCURVE",
"1051 405 CURVE SMOOTH"
);
}
);
width = 1128;
}
);
note = M;
unicode = 004D;
},
{
glyphname = N;
lastChange = "2021-09-06 07:58:07 +0000";
layers = (
{
hints = (
{
horizontal = 1;
place = "{636, 13}";
type = Stem;
},
{
place = "{803, 52}";
type = Stem;
},
{
place = "{979, 59}";
type = Stem;
}
);
layerId = "E1C4CDDB-EFDF-468A-8ACC-65E2DFDE53DF";
paths = (
{
closed = 1;
nodes = (
"103 345 OFFCURVE",
"116 359 OFFCURVE",
"96 359 CURVE SMOOTH",
"52 358 OFFCURVE",
"62 394 OFFCURVE",
"83 413 CURVE SMOOTH",
"141 463 OFFCURVE",
"257 516 OFFCURVE",
"376 557 CURVE SMOOTH",
"517 605 OFFCURVE",
"664 636 OFFCURVE",
"729 636 CURVE SMOOTH",
"822 636 OFFCURVE",
"815 590 OFFCURVE",
"774 527 CURVE SMOOTH",
"711 429 OFFCURVE",
"573 266 OFFCURVE",
"523 193 CURVE SMOOTH",
"459 101 OFFCURVE",
"386 10 OFFCURVE",
"386 -15 CURVE SMOOTH",
"386 -59 OFFCURVE",
"444 -66 OFFCURVE",
"453 -54 CURVE",
"511 37 OFFCURVE",
"836 423 OFFCURVE",
"948 426 CURVE SMOOTH",
"966 426 OFFCURVE",
"990 416 OFFCURVE",
"973 377 CURVE SMOOTH",
"954 330 OFFCURVE",
"923 276 OFFCURVE",
"901 235 CURVE SMOOTH",
"884 201 OFFCURVE",
"797 48 OFFCURVE",
"845 13 CURVE SMOOTH",
"868 -4 OFFCURVE",
"886 -11 OFFCURVE",
"894 -11 CURVE SMOOTH",
"907 -11 OFFCURVE",
"920 3 OFFCURVE",
"932 24 CURVE SMOOTH",
"939 38 OFFCURVE",
"946 52 OFFCURVE",
"954 65 CURVE SMOOTH",
"957 71 OFFCURVE",
"951 74 OFFCURVE",
"947 68 CURVE SMOOTH",
"933 44 OFFCURVE",
"912 21 OFFCURVE",
"888 13 CURVE SMOOTH",
"863 4 OFFCURVE",
"862 26 OFFCURVE",
"866 46 CURVE SMOOTH",
"894 178 OFFCURVE",
"1038 348 OFFCURVE",
"1038 408 CURVE SMOOTH",
"1038 421 OFFCURVE",
"1023 454 OFFCURVE",
"1000 454 CURVE SMOOTH",
"969 454 OFFCURVE",
"917 435 OFFCURVE",
"870 405 CURVE SMOOTH",
"743 322 OFFCURVE",
"587 160 OFFCURVE",
"533 100 CURVE",
"528 93 OFFCURVE",
"520 95 OFFCURVE",
"521 104 CURVE SMOOTH",
"521 108 OFFCURVE",
"523 114 OFFCURVE",
"525 118 CURVE SMOOTH",
"587 216 OFFCURVE",
"855 493 OFFCURVE",
"855 569 CURVE SMOOTH",
"855 686 OFFCURVE",
"603 658 OFFCURVE",
"370 590 CURVE SMOOTH",
"186 537 OFFCURVE",
"10 459 OFFCURVE",
"10 419 CURVE SMOOTH",
"10 394 OFFCURVE",
"32 369 OFFCURVE",
"90 349 CURVE SMOOTH"
);
}
);
width = 969;
},
{
hints = (
{
horizontal = 1;
place = "{626, 21}";
target = up;
type = BottomGhost;
},
{
place = "{788, 72}";
type = Stem;
},
{
place = "{960, 81}";
type = Stem;
}
);
layerId = "10EE7422-BC27-45A8-8DF8-0D41623AEA15";
paths = (
{
closed = 1;
nodes = (
"1041 420 OFFCURVE",
"1016 456 OFFCURVE",
"990 456 CURVE SMOOTH",
"957 456 OFFCURVE",
"914 437 OFFCURVE",
"868 407 CURVE SMOOTH",
"740 326 OFFCURVE",
"583 165 OFFCURVE",
"530 106 CURVE SMOOTH",
"523 98 OFFCURVE",
"525 111 OFFCURVE",
"530 118 CURVE SMOOTH",
"610 243 OFFCURVE",
"760 391 OFFCURVE",
"820 476 CURVE SMOOTH",
"851 519 OFFCURVE",
"860 529 OFFCURVE",
"860 565 CURVE SMOOTH",
"860 784 OFFCURVE",
"5 506 OFFCURVE",
"5 417 CURVE SMOOTH",
"5 388 OFFCURVE",
"65 356 OFFCURVE",
"81 353 CURVE SMOOTH",
"102 350 OFFCURVE",
"105 357 OFFCURVE",
"96 363 CURVE",
"62 363 OFFCURVE",
"65 389 OFFCURVE",
"87 407 CURVE SMOOTH",
"212 515 OFFCURVE",
"611 626 OFFCURVE",
"729 626 CURVE SMOOTH",
"815 626 OFFCURVE",
"791 588 OFFCURVE",
"754 531 CURVE SMOOTH",
"691 434 OFFCURVE",
"570 292 OFFCURVE",
"519 220 CURVE SMOOTH",
"456 130 OFFCURVE",
"381 16 OFFCURVE",
"381 -10 CURVE SMOOTH",
"381 -57 OFFCURVE",
"445 -70 OFFCURVE",
"457 -51 CURVE SMOOTH",
"527 56 OFFCURVE",
"627 163 OFFCURVE",
"713 249 CURVE SMOOTH",
"760 295 OFFCURVE",
"821 340 OFFCURVE",
"864 374 CURVE SMOOTH",
"954 442 OFFCURVE",
"992 453 OFFCURVE",
"931 343 CURVE SMOOTH",
"882 254 OFFCURVE",
"821 163 OFFCURVE",
"808 80 CURVE SMOOTH",
"804 55 OFFCURVE",
"799 39 OFFCURVE",
"821 23 CURVE SMOOTH",
"844 6 OFFCURVE",
"873 -10 OFFCURVE",
"883 -10 CURVE SMOOTH",
"915 -10 OFFCURVE",
"937 59 OFFCURVE",
"954 80 CURVE",
"959 89 OFFCURVE",
"953 86 OFFCURVE",
"947 81 CURVE SMOOTH",
"934 71 OFFCURVE",
"910 45 OFFCURVE",
"897 35 CURVE SMOOTH",
"865 11 OFFCURVE",
"863 21 OFFCURVE",
"873 54 CURVE SMOOTH",
"901 145 OFFCURVE",
"1041 365 OFFCURVE",
"1041 405 CURVE SMOOTH"
);
}
);
width = 969;
}
);
note = N;
unicode = 004E;
},
{
color = 4;
glyphname = Eng;
lastChange = "2021-09-06 07:58:07 +0000";
layers = (
{
hints = (
{
horizontal = 1;
place = "{636, 13}";
type = Stem;
},
{
place = "{803, 52}";
type = Stem;
},
{
place = "{979, 59}";
type = Stem;
},
{
horizontal = 1;
place = "{-145, 12}";
type = Stem;
},
{
horizontal = 1;
place = "{512, 22}";
type = Stem;
},
{
place = "{911, 34}";
type = Stem;
},
{
place = "{1130, 30}";
type = Stem;
},
{
place = "{1485, 45}";
type = Stem;
}
);
layerId = "E1C4CDDB-EFDF-468A-8ACC-65E2DFDE53DF";
paths = (
{
closed = 1;
nodes = (
"969 454 OFFCURVE",
"917 435 OFFCURVE",
"870 405 CURVE SMOOTH",
"743 322 OFFCURVE",
"587 160 OFFCURVE",
"533 100 CURVE",
"528 93 OFFCURVE",
"520 95 OFFCURVE",
"521 104 CURVE SMOOTH",
"521 108 OFFCURVE",
"523 114 OFFCURVE",
"525 118 CURVE SMOOTH",
"587 216 OFFCURVE",
"855 493 OFFCURVE",
"855 569 CURVE SMOOTH",
"855 686 OFFCURVE",
"603 658 OFFCURVE",
"370 590 CURVE SMOOTH",
"186 537 OFFCURVE",
"10 459 OFFCURVE",
"10 419 CURVE SMOOTH",
"10 394 OFFCURVE",
"32 369 OFFCURVE",
"90 349 CURVE SMOOTH",
"103 345 OFFCURVE",
"116 359 OFFCURVE",
"96 359 CURVE SMOOTH",
"52 358 OFFCURVE",
"62 394 OFFCURVE",
"83 413 CURVE SMOOTH",
"141 463 OFFCURVE",
"257 516 OFFCURVE",
"376 557 CURVE SMOOTH",
"517 605 OFFCURVE",
"664 636 OFFCURVE",
"729 636 CURVE SMOOTH",
"822 636 OFFCURVE",
"815 590 OFFCURVE",
"774 527 CURVE SMOOTH",
"711 429 OFFCURVE",
"573 266 OFFCURVE",
"523 193 CURVE SMOOTH",
"459 101 OFFCURVE",
"386 10 OFFCURVE",
"386 -15 CURVE SMOOTH",
"386 -59 OFFCURVE",
"444 -66 OFFCURVE",
"453 -54 CURVE",
"511 37 OFFCURVE",
"836 423 OFFCURVE",
"948 426 CURVE SMOOTH",
"966 426 OFFCURVE",
"990 416 OFFCURVE",
"973 377 CURVE SMOOTH",
"955 333 OFFCURVE",
"927 283 OFFCURVE",
"905 243 CURVE SMOOTH",
"904 241 OFFCURVE",
"903 238 OFFCURVE",
"901 235 CURVE SMOOTH",
"892 216 LINE SMOOTH",
"831 97 OFFCURVE",
"638 -228 OFFCURVE",
"558 -279 CURVE SMOOTH",
"529 -298 OFFCURVE",
"444 -334 OFFCURVE",
"444 -265 CURVE SMOOTH",
"444 -224 OFFCURVE",
"483 -178 OFFCURVE",
"506 -158 CURVE SMOOTH",
"551 -118 OFFCURVE",
"611 -84 OFFCURVE",
"668 -84 CURVE",
"676 -83 OFFCURVE",
"675 -77 OFFCURVE",
"667 -77 CURVE SMOOTH",
"609 -77 OFFCURVE",
"538 -105 OFFCURVE",
"491 -145 CURVE SMOOTH",
"462 -171 OFFCURVE",
"419 -217 OFFCURVE",
"419 -262 CURVE SMOOTH",
"419 -302 OFFCURVE",
"452 -317 OFFCURVE",
"482 -317 CURVE SMOOTH",
"611 -317 OFFCURVE",
"757 -107 OFFCURVE",
"836 24 CURVE SMOOTH",
"952 213 OFFCURVE",
"1038 348 OFFCURVE",
"1038 408 CURVE SMOOTH",
"1038 421 OFFCURVE",
"1023 454 OFFCURVE",
"1000 454 CURVE SMOOTH"
);
}
);
width = 1013;
},
{
background = {
paths = (
{
closed = 1;
nodes = (
"103 345 OFFCURVE",
"116 359 OFFCURVE",
"96 359 CURVE SMOOTH",
"52 358 OFFCURVE",
"62 394 OFFCURVE",
"83 413 CURVE SMOOTH",
"141 463 OFFCURVE",
"257 516 OFFCURVE",
"376 557 CURVE SMOOTH",
"517 605 OFFCURVE",
"664 636 OFFCURVE",
"729 636 CURVE SMOOTH",
"822 636 OFFCURVE",
"815 590 OFFCURVE",
"774 527 CURVE SMOOTH",
"711 429 OFFCURVE",
"573 266 OFFCURVE",
"523 193 CURVE SMOOTH",
"459 101 OFFCURVE",
"386 10 OFFCURVE",
"386 -15 CURVE SMOOTH",
"386 -59 OFFCURVE",
"444 -66 OFFCURVE",
"453 -54 CURVE",
"511 37 OFFCURVE",
"836 423 OFFCURVE",
"948 426 CURVE SMOOTH",
"966 426 OFFCURVE",
"990 416 OFFCURVE",
"973 377 CURVE SMOOTH",
"954 330 OFFCURVE",
"923 276 OFFCURVE",
"901 235 CURVE SMOOTH",
"813 58 OFFCURVE",
"819 -3 OFFCURVE",
"836 24 CURVE SMOOTH",
"952 213 OFFCURVE",
"1038 348 OFFCURVE",
"1038 408 CURVE SMOOTH",
"1038 421 OFFCURVE",
"1023 454 OFFCURVE",
"1000 454 CURVE SMOOTH",
"969 454 OFFCURVE",
"917 435 OFFCURVE",
"870 405 CURVE SMOOTH",
"743 322 OFFCURVE",
"587 160 OFFCURVE",
"533 100 CURVE",
"528 93 OFFCURVE",
"520 95 OFFCURVE",
"521 104 CURVE SMOOTH",
"521 108 OFFCURVE",
"523 114 OFFCURVE",
"525 118 CURVE SMOOTH",
"587 216 OFFCURVE",
"855 493 OFFCURVE",
"855 569 CURVE SMOOTH",
"855 686 OFFCURVE",
"603 658 OFFCURVE",
"370 590 CURVE SMOOTH",
"186 537 OFFCURVE",
"10 459 OFFCURVE",
"10 419 CURVE SMOOTH",
"10 394 OFFCURVE",
"32 369 OFFCURVE",
"90 349 CURVE SMOOTH"
);
},
{
closed = 1;
nodes = (
"904 137 OFFCURVE",
"930 295 OFFCURVE",
"901 235 CURVE SMOOTH",
"854 135 OFFCURVE",
"643 -225 OFFCURVE",
"558 -279 CURVE SMOOTH",
"529 -298 OFFCURVE",
"444 -334 OFFCURVE",
"444 -265 CURVE SMOOTH",
"444 -224 OFFCURVE",
"483 -178 OFFCURVE",
"506 -158 CURVE SMOOTH",
"551 -118 OFFCURVE",
"611 -84 OFFCURVE",
"668 -84 CURVE",
"676 -83 OFFCURVE",
"675 -77 OFFCURVE",
"667 -77 CURVE SMOOTH",
"609 -77 OFFCURVE",
"538 -105 OFFCURVE",
"491 -145 CURVE SMOOTH",
"462 -171 OFFCURVE",
"419 -217 OFFCURVE",
"419 -262 CURVE SMOOTH",
"419 -302 OFFCURVE",
"452 -317 OFFCURVE",
"482 -317 CURVE SMOOTH",
"611 -317 OFFCURVE",
"757 -107 OFFCURVE",
"836 24 CURVE SMOOTH"
);
}
);
};
hints = (
{
horizontal = 1;
place = "{626, 21}";
target = up;
type = BottomGhost;
},
{
place = "{788, 72}";
type = Stem;
},
{
place = "{960, 81}";
type = Stem;
},
{
horizontal = 1;
place = "{-145, 15}";
type = Stem;
},
{
horizontal = 1;
place = "{119, 12}";
type = Stem;
},
{
horizontal = 1;
place = "{502, 23}";
type = Stem;
},
{
place = "{906, 44}";
type = Stem;
},
{
place = "{1126, 39}";
type = Stem;
}
);
layerId = "10EE7422-BC27-45A8-8DF8-0D41623AEA15";
paths = (
{
closed = 1;
nodes = (
"1041 420 OFFCURVE",
"1016 456 OFFCURVE",
"990 456 CURVE SMOOTH",
"957 456 OFFCURVE",
"914 437 OFFCURVE",
"868 407 CURVE SMOOTH",
"740 326 OFFCURVE",
"583 165 OFFCURVE",
"530 106 CURVE SMOOTH",
"523 98 OFFCURVE",
"525 111 OFFCURVE",
"530 118 CURVE SMOOTH",
"610 243 OFFCURVE",
"760 391 OFFCURVE",
"820 476 CURVE SMOOTH",
"851 519 OFFCURVE",
"860 529 OFFCURVE",
"860 565 CURVE SMOOTH",
"860 784 OFFCURVE",
"5 506 OFFCURVE",
"5 417 CURVE SMOOTH",
"5 388 OFFCURVE",
"65 356 OFFCURVE",
"81 353 CURVE SMOOTH",
"102 350 OFFCURVE",
"105 357 OFFCURVE",
"96 363 CURVE",
"62 363 OFFCURVE",
"65 389 OFFCURVE",
"87 407 CURVE SMOOTH",
"212 515 OFFCURVE",
"611 626 OFFCURVE",
"729 626 CURVE SMOOTH",
"815 626 OFFCURVE",
"791 588 OFFCURVE",
"754 531 CURVE SMOOTH",
"691 434 OFFCURVE",
"570 292 OFFCURVE",
"519 220 CURVE SMOOTH",
"456 130 OFFCURVE",
"381 16 OFFCURVE",
"381 -10 CURVE SMOOTH",
"381 -57 OFFCURVE",
"445 -70 OFFCURVE",
"457 -51 CURVE SMOOTH",
"527 56 OFFCURVE",
"627 163 OFFCURVE",
"713 249 CURVE SMOOTH",
"760 295 OFFCURVE",
"821 340 OFFCURVE",
"864 374 CURVE SMOOTH",
"954 442 OFFCURVE",
"992 453 OFFCURVE",
"931 343 CURVE SMOOTH",
"882 254 OFFCURVE",
"823 124 OFFCURVE",
"778 41 CURVE SMOOTH",
"745 -21 OFFCURVE",
"736 -103 OFFCURVE",
"794 -33 CURVE SMOOTH",
"855 41 OFFCURVE",
"1041 365 OFFCURVE",
"1041 405 CURVE SMOOTH"
);
},
{
closed = 1;
nodes = (
"914 157 OFFCURVE",
"905 284 OFFCURVE",
"876 224 CURVE SMOOTH",
"829 124 OFFCURVE",
"643 -225 OFFCURVE",
"558 -279 CURVE SMOOTH",
"529 -298 OFFCURVE",
"444 -334 OFFCURVE",
"444 -265 CURVE SMOOTH",
"444 -224 OFFCURVE",
"483 -178 OFFCURVE",
"506 -158 CURVE SMOOTH",
"551 -118 OFFCURVE",
"611 -84 OFFCURVE",
"668 -84 CURVE",
"676 -83 OFFCURVE",
"675 -77 OFFCURVE",
"667 -77 CURVE SMOOTH",
"609 -77 OFFCURVE",
"519 -105 OFFCURVE",
"472 -145 CURVE SMOOTH",
"443 -171 OFFCURVE",
"408 -217 OFFCURVE",
"408 -262 CURVE SMOOTH",
"408 -302 OFFCURVE",
"452 -317 OFFCURVE",
"482 -317 CURVE SMOOTH",
"627 -317 OFFCURVE",
"762 -95 OFFCURVE",
"846 44 CURVE SMOOTH"
);
}
);
width = 1402;
}
);
unicode = 014A;
},
{
glyphname = O;
lastChange = "2021-09-06 07:58:07 +0000";
layers = (
{
hints = (
{
horizontal = 1;
place = "{-45, 15}";
type = Stem;
},
{
horizontal = 1;
place = "{571, 13}";
type = Stem;
},
{
place = "{16, 37}";
type = Stem;
},
{
place = "{542, 53}";
type = Stem;
}
);
layerId = "E1C4CDDB-EFDF-468A-8ACC-65E2DFDE53DF";
paths = (
{
closed = 1;
nodes = (
"371 -48 OFFCURVE",
"631 238 OFFCURVE",
"591 447 CURVE SMOOTH",
"556 632 OFFCURVE",
"295 591 OFFCURVE",
"192 547 CURVE SMOOTH",
"113 512 OFFCURVE",
"45 463 OFFCURVE",
"52 411 CURVE",
"41 397 OFFCURVE",
"42 385 OFFCURVE",
"50 370 CURVE SMOOTH",
"58 357 OFFCURVE",
"54 355 OFFCURVE",
"52 338 CURVE",
"54 334 OFFCURVE",
"56 337 OFFCURVE",
"57 339 CURVE",
"61 386 OFFCURVE",
"89 433 OFFCURVE",
"131 473 CURVE SMOOTH",
"195 533 OFFCURVE",
"289 571 OFFCURVE",
"368 571 CURVE SMOOTH",
"498 571 OFFCURVE",
"568 505 OFFCURVE",
"534 330 CURVE SMOOTH",
"501 156 OFFCURVE",
"321 -36 OFFCURVE",
"156 -30 CURVE SMOOTH",
"-39 -24 OFFCURVE",
"76 337 OFFCURVE",
"222 385 CURVE SMOOTH",
"232 388 OFFCURVE",
"248 393 OFFCURVE",
"260 389 CURVE SMOOTH",
"267 386 OFFCURVE",
"273 393 OFFCURVE",
"265 397 CURVE SMOOTH",
"247 406 OFFCURVE",
"236 413 OFFCURVE",
"215 413 CURVE SMOOTH",
"157 413 OFFCURVE",
"77 349 OFFCURVE",
"42 265 CURVE SMOOTH",
"-14 130 OFFCURVE",
"15 -43 OFFCURVE",
"171 -45 CURVE SMOOTH"
);
}
);
width = 534;
},
{
hints = (
{
horizontal = 1;
place = "{-45, 24}";
type = Stem;
},
{
horizontal = 1;
place = "{383, 32}";
type = Stem;
},
{
horizontal = 1;
place = "{563, 21}";
target = up;
type = BottomGhost;
},
{
place = "{22, 35}";
type = Stem;
},
{
place = "{524, 88}";
type = Stem;
}
);
layerId = "10EE7422-BC27-45A8-8DF8-0D41623AEA15";
paths = (
{
closed = 1;
nodes = (
"571 632 OFFCURVE",
"314 592 OFFCURVE",
"185 544 CURVE SMOOTH",
"98 513 OFFCURVE",
"22 463 OFFCURVE",
"31 405 CURVE",
"4 374 OFFCURVE",
"48 370 OFFCURVE",
"42 318 CURVE",
"49 300 OFFCURVE",
"58 318 OFFCURVE",
"58 318 CURVE",
"63 399 OFFCURVE",
"133 477 OFFCURVE",
"217 523 CURVE SMOOTH",
"307 573 OFFCURVE",
"463 595 OFFCURVE",
"510 474 CURVE SMOOTH",
"525 434 OFFCURVE",
"528 383 OFFCURVE",
"518 331 CURVE SMOOTH",
"494 209 OFFCURVE",
"318 -26 OFFCURVE",
"156 -21 CURVE SMOOTH",
"-45 -14 OFFCURVE",
"123 383 OFFCURVE",
"273 383 CURVE SMOOTH",
"287 383 OFFCURVE",
"303 385 OFFCURVE",
"290 394 CURVE SMOOTH",
"269 410 OFFCURVE",
"241 415 OFFCURVE",
"215 415 CURVE SMOOTH",
"154 415 OFFCURVE",
"73 351 OFFCURVE",
"38 267 CURVE SMOOTH",
"-18 134 OFFCURVE",
"9 -42 OFFCURVE",
"171 -45 CURVE SMOOTH",
"374 -48 OFFCURVE",
"649 235 OFFCURVE",
"608 444 CURVE SMOOTH"
);
}
);
width = 534;
}
);
note = O;
unicode = 004F;
},
{
glyphname = Oslash;
lastChange = "2021-09-06 07:58:07 +0000";
layers = (
{
hints = (
{
horizontal = 1;
place = "{-45, 15}";
type = Stem;
},
{
horizontal = 1;
place = "{571, 13}";
type = Stem;
},
{
place = "{16, 37}";
type = Stem;
},
{
place = "{56, 23}";
type = Stem;
},
{
place = "{542, 53}";
type = Stem;
}
);
layerId = "E1C4CDDB-EFDF-468A-8ACC-65E2DFDE53DF";
paths = (
{
closed = 1;
nodes = (
"80 -121 OFFCURVE",
"90 -116 OFFCURVE",
"91 -112 CURVE",
"89 -111 LINE SMOOTH",
"81 -105 OFFCURVE",
"78 -98 OFFCURVE",
"78 -87 CURVE SMOOTH",
"78 -71 OFFCURVE",
"86 -50 OFFCURVE",
"98 -28 CURVE",
"118 -38 OFFCURVE",
"142 -45 OFFCURVE",
"171 -45 CURVE SMOOTH",
"371 -48 OFFCURVE",
"631 238 OFFCURVE",
"591 447 CURVE SMOOTH",
"584 482 OFFCURVE",
"570 509 OFFCURVE",
"549 530 CURVE",
"552 533 LINE SMOOTH",
"586 572 OFFCURVE",
"615 608 OFFCURVE",
"615 615 CURVE SMOOTH",
"615 631 OFFCURVE",
"575 635 OFFCURVE",
"563 635 CURVE SMOOTH",
"556 635 OFFCURVE",
"530 606 OFFCURVE",
"496 565 CURVE",
"400 605 OFFCURVE",
"261 576 OFFCURVE",
"192 547 CURVE SMOOTH",
"113 512 OFFCURVE",
"45 463 OFFCURVE",
"52 411 CURVE",
"41 397 OFFCURVE",
"42 385 OFFCURVE",
"50 370 CURVE SMOOTH",
"58 357 OFFCURVE",
"54 355 OFFCURVE",
"52 338 CURVE",
"54 334 OFFCURVE",
"56 337 OFFCURVE",
"57 339 CURVE",
"61 386 OFFCURVE",
"89 433 OFFCURVE",
"131 473 CURVE SMOOTH",
"195 533 OFFCURVE",
"289 571 OFFCURVE",
"368 571 CURVE SMOOTH",
"413 571 OFFCURVE",
"451 563 OFFCURVE",
"480 545 CURVE",
"399 445 OFFCURVE",
"287 292 OFFCURVE",
"270 268 CURVE SMOOTH",
"234 219 OFFCURVE",
"198 169 OFFCURVE",
"164 119 CURVE SMOOTH",
"144 89 OFFCURVE",
"110 43 OFFCURVE",
"85 -3 CURVE",
"-1 84 OFFCURVE",
"100 344 OFFCURVE",
"222 385 CURVE SMOOTH",
"232 388 OFFCURVE",
"248 393 OFFCURVE",
"260 389 CURVE SMOOTH",
"267 386 OFFCURVE",
"273 393 OFFCURVE",
"265 397 CURVE SMOOTH",
"247 406 OFFCURVE",
"236 413 OFFCURVE",
"215 413 CURVE SMOOTH",
"157 413 OFFCURVE",
"77 349 OFFCURVE",
"42 265 CURVE SMOOTH",
"0 163 OFFCURVE",
"6 40 OFFCURVE",
"78 -15 CURVE",
"65 -42 OFFCURVE",
"55 -68 OFFCURVE",
"55 -90 CURVE SMOOTH",
"55 -102 OFFCURVE",
"64 -121 OFFCURVE",
"75 -121 CURVE SMOOTH"
);
},
{
closed = 1;
nodes = (
"136 -30 OFFCURVE",
"118 -25 OFFCURVE",
"104 -17 CURVE",
"129 24 OFFCURVE",
"165 68 OFFCURVE",
"183 92 CURVE SMOOTH",
"276 213 OFFCURVE",
"373 329 OFFCURVE",
"472 444 CURVE SMOOTH",
"480 452 OFFCURVE",
"500 474 OFFCURVE",
"523 500 CURVE",
"544 461 OFFCURVE",
"549 406 OFFCURVE",
"534 330 CURVE SMOOTH",
"501 156 OFFCURVE",
"321 -36 OFFCURVE",
"156 -30 CURVE SMOOTH"
);
}
);
width = 534;
},
{
components = (
{
name = O;
},
{
name = slash;
transform = "{0.97291, 0, 0, 1.3469, 92, -28}";
}
);
hints = (
{
horizontal = 1;
place = "{-45, 24}";
type = Stem;
},
{
horizontal = 1;
place = "{383, 32}";
type = Stem;
},
{
horizontal = 1;
place = "{563, 21}";
target = up;
type = BottomGhost;
},
{
place = "{22, 35}";
type = Stem;
},
{
place = "{524, 88}";
type = Stem;
}
);
layerId = "10EE7422-BC27-45A8-8DF8-0D41623AEA15";
width = 534;
}
);
note = Oslash;
unicode = 00D8;
},
{
glyphname = OE;
lastChange = "2021-09-06 07:58:07 +0000";
layers = (
{
hints = (
{
horizontal = 1;
place = "{-45, 15}";
type = Stem;
},
{
horizontal = 1;
place = "{311, 45}";
type = Stem;
},
{
horizontal = 1;
place = "{571, 13}";
type = Stem;
},
{
horizontal = 1;
place = "{662, -20}";
target = down;
type = TopGhost;
},
{
place = "{11, 37}";
type = Stem;
},
{
place = "{538, 98}";
type = Stem;
},
{
place = "{923, 21}";
type = Stem;
},
{
place = "{971, 33}";
type = Stem;
}
);
layerId = "E1C4CDDB-EFDF-468A-8ACC-65E2DFDE53DF";
paths = (
{
closed = 1;
nodes = (
"678 -61 OFFCURVE",
"760 -43 OFFCURVE",
"827 -15 CURVE SMOOTH",
"874 5 OFFCURVE",
"1046 101 OFFCURVE",
"994 172 CURVE",
"993 198 OFFCURVE",
"967 228 OFFCURVE",
"943 239 CURVE",
"938 237 OFFCURVE",
"936 238 OFFCURVE",
"936 238 CURVE",
"936 238 OFFCURVE",
"936 238 OFFCURVE",
"938 236 CURVE SMOOTH",
"947 229 OFFCURVE",
"970 211 OFFCURVE",
"970 182 CURVE SMOOTH",
"970 117 OFFCURVE",
"860 44 OFFCURVE",
"807 20 CURVE SMOOTH",
"742 -10 OFFCURVE",
"648 -31 OFFCURVE",
"576 -31 CURVE SMOOTH",
"508 -31 OFFCURVE",
"415 -14 OFFCURVE",
"415 70 CURVE",
"464 114 OFFCURVE",
"507 167 OFFCURVE",
"538 223 CURVE",
"611 262 OFFCURVE",
"759 311 OFFCURVE",
"830 311 CURVE SMOOTH",
"837 311 OFFCURVE",
"845 311 OFFCURVE",
"852 309 CURVE",
"849 334 OFFCURVE",
"836 356 OFFCURVE",
"808 356 CURVE SMOOTH",
"780 356 OFFCURVE",
"742 347 OFFCURVE",
"712 346 CURVE",
"707 345 OFFCURVE",
"673 351 OFFCURVE",
"669 352 CURVE SMOOTH",
"559 394 OFFCURVE",
"741 569 OFFCURVE",
"915 573 CURVE SMOOTH",
"942 574 OFFCURVE",
"966 571 OFFCURVE",
"981 559 CURVE",
"971 545 OFFCURVE",
"923 476 OFFCURVE",
"923 430 CURVE SMOOTH",
"923 407 OFFCURVE",
"938 385 OFFCURVE",
"963 385 CURVE SMOOTH",
"964 385 OFFCURVE",
"966 385 OFFCURVE",
"966 387 CURVE SMOOTH",
"966 392 OFFCURVE",
"944 398 OFFCURVE",
"944 423 CURVE SMOOTH",
"944 456 OFFCURVE",
"979 520 OFFCURVE",
"1005 539 CURVE",
"1019 538 OFFCURVE",
"1023 484 OFFCURVE",
"1023 473 CURVE SMOOTH",
"1023 465 OFFCURVE",
"1021 439 OFFCURVE",
"1030 462 CURVE SMOOTH",
"1035 476 OFFCURVE",
"1037 500 OFFCURVE",
"1037 505 CURVE SMOOTH",
"1037 526 OFFCURVE",
"1034 544 OFFCURVE",
"1021 562 CURVE",
"1044 591 OFFCURVE",
"1071 611 OFFCURVE",
"1096 637 CURVE",
"1094 657 OFFCURVE",
"1074 661 OFFCURVE",
"1057 662 CURVE",
"1031 639 OFFCURVE",
"1011 610 OFFCURVE",
"992 581 CURVE",
"964 603 OFFCURVE",
"930 611 OFFCURVE",
"895 611 CURVE SMOOTH",
"808 611 OFFCURVE",
"628 535 OFFCURVE",
"586 446 CURVE",
"586 447 LINE SMOOTH",
"551 632 OFFCURVE",
"290 591 OFFCURVE",
"187 547 CURVE SMOOTH",
"108 512 OFFCURVE",
"40 463 OFFCURVE",
"47 411 CURVE",
"36 397 OFFCURVE",
"37 385 OFFCURVE",
"45 370 CURVE SMOOTH",
"53 357 OFFCURVE",
"49 355 OFFCURVE",
"47 338 CURVE",
"49 334 OFFCURVE",
"51 337 OFFCURVE",
"52 339 CURVE",
"56 386 OFFCURVE",
"84 433 OFFCURVE",
"126 473 CURVE SMOOTH",
"190 533 OFFCURVE",
"284 571 OFFCURVE",
"363 571 CURVE SMOOTH",
"493 571 OFFCURVE",
"563 505 OFFCURVE",
"529 330 CURVE SMOOTH",
"496 156 OFFCURVE",
"316 -36 OFFCURVE",
"151 -30 CURVE SMOOTH",
"-44 -24 OFFCURVE",
"71 337 OFFCURVE",
"217 385 CURVE SMOOTH",
"227 388 OFFCURVE",
"243 393 OFFCURVE",
"255 389 CURVE SMOOTH",
"262 386 OFFCURVE",
"268 393 OFFCURVE",
"260 397 CURVE SMOOTH",
"242 406 OFFCURVE",
"231 413 OFFCURVE",
"210 413 CURVE SMOOTH",
"152 413 OFFCURVE",
"72 349 OFFCURVE",
"37 265 CURVE SMOOTH",
"-19 130 OFFCURVE",
"10 -43 OFFCURVE",
"166 -45 CURVE SMOOTH",
"241 -46 OFFCURVE",
"324 -7 OFFCURVE",
"397 54 CURVE",
"418 -32 OFFCURVE",
"525 -61 OFFCURVE",
"606 -61 CURVE SMOOTH"
);
},
{
closed = 1;
nodes = (
"577 311 OFFCURVE",
"585 342 OFFCURVE",
"589 373 CURVE",
"609 344 OFFCURVE",
"655 334 OFFCURVE",
"690 331 CURVE",
"657 321 OFFCURVE",
"611 304 OFFCURVE",
"565 281 CURVE"
);
}
);
width = 1005;
},
{
hints = (
{
horizontal = 1;
place = "{-64, 40}";
type = Stem;
},
{
horizontal = 1;
place = "{303, 57}";
type = Stem;
},
{
horizontal = 1;
place = "{383, 32}";
type = Stem;
},
{
horizontal = 1;
place = "{556, 56}";
type = Stem;
},
{
horizontal = 1;
place = "{662, -20}";
target = down;
type = TopGhost;
},
{
place = "{22, 35}";
type = Stem;
},
{
place = "{524, 98}";
type = Stem;
},
{
place = "{900, 37}";
type = Stem;
}
);
layerId = "10EE7422-BC27-45A8-8DF8-0D41623AEA15";
paths = (
{
closed = 1;
nodes = (
"1091 649 OFFCURVE",
"1059 662 OFFCURVE",
"1039 662 CURVE",
"1014 640 OFFCURVE",
"993 612 OFFCURVE",
"975 584 CURVE",
"931 618 OFFCURVE",
"858 623 OFFCURVE",
"759 588 CURVE SMOOTH",
"718 574 OFFCURVE",
"642 532 OFFCURVE",
"595 484 CURVE",
"532 626 OFFCURVE",
"304 588 OFFCURVE",
"185 544 CURVE SMOOTH",
"98 513 OFFCURVE",
"22 463 OFFCURVE",
"31 405 CURVE",
"4 374 OFFCURVE",
"48 370 OFFCURVE",
"42 318 CURVE",
"49 300 OFFCURVE",
"58 318 OFFCURVE",
"58 318 CURVE",
"63 399 OFFCURVE",
"133 477 OFFCURVE",
"217 523 CURVE SMOOTH",
"307 573 OFFCURVE",
"463 595 OFFCURVE",
"510 474 CURVE SMOOTH",
"525 434 OFFCURVE",
"528 383 OFFCURVE",
"518 331 CURVE SMOOTH",
"494 209 OFFCURVE",
"318 -26 OFFCURVE",
"156 -21 CURVE SMOOTH",
"-45 -14 OFFCURVE",
"123 383 OFFCURVE",
"273 383 CURVE SMOOTH",
"287 383 OFFCURVE",
"303 385 OFFCURVE",
"290 394 CURVE SMOOTH",
"269 410 OFFCURVE",
"241 415 OFFCURVE",
"215 415 CURVE SMOOTH",
"154 415 OFFCURVE",
"73 351 OFFCURVE",
"38 267 CURVE SMOOTH",
"-18 134 OFFCURVE",
"9 -42 OFFCURVE",
"171 -45 CURVE SMOOTH",
"238 -46 OFFCURVE",
"314 -15 OFFCURVE",
"384 34 CURVE",
"421 -42 OFFCURVE",
"535 -64 OFFCURVE",
"612 -64 CURVE SMOOTH",
"744 -64 OFFCURVE",
"944 3 OFFCURVE",
"990 123 CURVE SMOOTH",
"998 141 OFFCURVE",
"994 154 OFFCURVE",
"985 170 CURVE",
"985 194 OFFCURVE",
"952 245 OFFCURVE",
"922 250 CURVE",
"914 248 OFFCURVE",
"912 243 OFFCURVE",
"923 234 CURVE SMOOTH",
"964 201 OFFCURVE",
"935 152 OFFCURVE",
"909 118 CURVE SMOOTH",
"874 74 OFFCURVE",
"826 50 OFFCURVE",
"773 25 CURVE SMOOTH",
"690 -13 OFFCURVE",
"432 -74 OFFCURVE",
"406 51 CURVE",
"471 102 OFFCURVE",
"530 170 OFFCURVE",
"567 241 CURVE",
"657 282 OFFCURVE",
"788 324 OFFCURVE",
"849 291 CURVE",
"849 292 LINE",
"851 295 LINE",
"849 324 OFFCURVE",
"823 360 OFFCURVE",
"792 360 CURVE SMOOTH",
"761 360 OFFCURVE",
"622 327 OFFCURVE",
"622 377 CURVE SMOOTH",
"622 459 OFFCURVE",
"830 556 OFFCURVE",
"917 556 CURVE SMOOTH",
"925 556 OFFCURVE",
"945 556 OFFCURVE",
"940 546 CURVE SMOOTH",
"917 506 OFFCURVE",
"864 402 OFFCURVE",
"941 385 CURVE SMOOTH",
"953 382 OFFCURVE",
"956 392 OFFCURVE",
"950 393 CURVE",
"943 397 OFFCURVE",
"937 405 OFFCURVE",
"937 413 CURVE SMOOTH",
"937 432 OFFCURVE",
"983 519 OFFCURVE",
"1001 519 CURVE SMOOTH",
"1013 519 OFFCURVE",
"1009 467 OFFCURVE",
"1007 458 CURVE SMOOTH",
"998 424 OFFCURVE",
"1032 435 OFFCURVE",
"1032 496 CURVE SMOOTH",
"1032 516 OFFCURVE",
"1029 538 OFFCURVE",
"1023 547 CURVE",
"1032 556 OFFCURVE",
"1080 614 OFFCURVE",
"1091 624 CURVE"
);
},
{
closed = 1;
nodes = (
"605 311 LINE SMOOTH",
"602 310 OFFCURVE",
"599 309 OFFCURVE",
"596 308 CURVE",
"599 318 OFFCURVE",
"602 328 OFFCURVE",
"605 339 CURVE",
"617 333 OFFCURVE",
"633 329 OFFCURVE",
"651 327 CURVE"
);
}
);
width = 1005;
}
);
note = OE;
unicode = 0152;
},
{
glyphname = P;
lastChange = "2021-09-06 07:58:07 +0000";
layers = (
{
hints = (
{
horizontal = 1;
place = "{653, -20}";
target = down;
type = TopGhost;
},
{
place = "{-8, 42}";
type = Stem;
},
{
place = "{240, 27}";
type = Stem;
}
);
layerId = "E1C4CDDB-EFDF-468A-8ACC-65E2DFDE53DF";
paths = (
{
closed = 1;
nodes = (
"40 400 OFFCURVE",
"34 401 OFFCURVE",
"34 408 CURVE SMOOTH",
"34 468 OFFCURVE",
"95 503 OFFCURVE",
"252 530 CURVE SMOOTH",
"393 555 OFFCURVE",
"474 549 OFFCURVE",
"515 551 CURVE",
"402 447 OFFCURVE",
"240 214 OFFCURVE",
"240 104 CURVE SMOOTH",
"240 68 OFFCURVE",
"257 36 OFFCURVE",
"301 31 CURVE",
"232 17 OFFCURVE",
"193 3 OFFCURVE",
"169 -19 CURVE SMOOTH",
"161 -27 OFFCURVE",
"152 -40 OFFCURVE",
"152 -57 CURVE SMOOTH",
"152 -59 OFFCURVE",
"151 -80 OFFCURVE",
"157 -74 CURVE SMOOTH",
"232 -1 OFFCURVE",
"355 33 OFFCURVE",
"423 33 CURVE SMOOTH",
"426 33 OFFCURVE",
"427 40 OFFCURVE",
"424 40 CURVE SMOOTH",
"393 40 OFFCURVE",
"369 41 OFFCURVE",
"320 33 CURVE",
"281 41 OFFCURVE",
"267 42 OFFCURVE",
"267 89 CURVE SMOOTH",
"267 220 OFFCURVE",
"475 461 OFFCURVE",
"575 548 CURVE",
"680 546 OFFCURVE",
"789 531 OFFCURVE",
"789 474 CURVE SMOOTH",
"789 460 OFFCURVE",
"783 445 OFFCURVE",
"776 433 CURVE SMOOTH",
"708 319 OFFCURVE",
"483 251 OFFCURVE",
"369 231 CURVE SMOOTH",
"348 227 OFFCURVE",
"339 227 OFFCURVE",
"340 224 CURVE SMOOTH",
"341 220 OFFCURVE",
"351 220 OFFCURVE",
"364 220 CURVE SMOOTH",
"366 220 OFFCURVE",
"372 222 OFFCURVE",
"379 224 CURVE SMOOTH",
"387 226 OFFCURVE",
"395 229 OFFCURVE",
"401 230 CURVE SMOOTH",
"437 239 OFFCURVE",
"486 244 OFFCURVE",
"509 249 CURVE SMOOTH",
"606 269 OFFCURVE",
"872 353 OFFCURVE",
"801 476 CURVE",
"794 479 OFFCURVE",
"797 491 OFFCURVE",
"795 498 CURVE SMOOTH",
"794 506 OFFCURVE",
"789 518 OFFCURVE",
"766 532 CURVE SMOOTH",
"734 551 OFFCURVE",
"667 562 OFFCURVE",
"594 570 CURVE",
"610 585 OFFCURVE",
"627 599 OFFCURVE",
"636 612 CURVE SMOOTH",
"646 626 OFFCURVE",
"649 638 OFFCURVE",
"630 646 CURVE",
"619 649 OFFCURVE",
"608 648 OFFCURVE",
"598 653 CURVE",
"582 640 OFFCURVE",
"564 631 OFFCURVE",
"549 617 CURVE SMOOTH",
"532 603 OFFCURVE",
"525 585 OFFCURVE",
"536 574 CURVE",
"423 578 OFFCURVE",
"317 571 OFFCURVE",
"257 563 CURVE SMOOTH",
"118 547 OFFCURVE",
"-8 496 OFFCURVE",
"-8 447 CURVE SMOOTH",
"-8 430 OFFCURVE",
"13 402 OFFCURVE",
"35 388 CURVE SMOOTH",
"45 382 OFFCURVE",
"50 387 OFFCURVE",
"43 393 CURVE"
);
}
);
width = 652;
},
{
hints = (
{
horizontal = 1;
place = "{31, 18}";
type = Stem;
},
{
horizontal = 1;
place = "{656, -20}";
target = down;
type = TopGhost;
},
{
place = "{-19, 58}";
type = Stem;
},
{
place = "{231, 41}";
type = Stem;
}
);
layerId = "10EE7422-BC27-45A8-8DF8-0D41623AEA15";
paths = (
{
closed = 1;
nodes = (
"794 480 OFFCURVE",
"816 505 OFFCURVE",
"769 533 CURVE SMOOTH",
"736 552 OFFCURVE",
"681 564 OFFCURVE",
"619 570 CURVE",
"634 584 OFFCURVE",
"646 597 OFFCURVE",
"650 607 CURVE SMOOTH",
"651 610 OFFCURVE",
"652 614 OFFCURVE",
"652 618 CURVE SMOOTH",
"652 641 OFFCURVE",
"595 655 OFFCURVE",
"577 656 CURVE",
"555 638 OFFCURVE",
"490 604 OFFCURVE",
"515 576 CURVE",
"413 579 OFFCURVE",
"317 572 OFFCURVE",
"256 565 CURVE SMOOTH",
"120 549 OFFCURVE",
"-19 507 OFFCURVE",
"-19 454 CURVE SMOOTH",
"-19 429 OFFCURVE",
"27 388 OFFCURVE",
"50 385 CURVE SMOOTH",
"61 384 OFFCURVE",
"65 387 OFFCURVE",
"58 393 CURVE",
"48 393 OFFCURVE",
"39 399 OFFCURVE",
"39 406 CURVE SMOOTH",
"39 453 OFFCURVE",
"182 510 OFFCURVE",
"296 523 CURVE SMOOTH",
"323 526 OFFCURVE",
"393 535 OFFCURVE",
"480 539 CURVE",
"386 436 OFFCURVE",
"231 222 OFFCURVE",
"231 112 CURVE SMOOTH",
"231 75 OFFCURVE",
"255 43 OFFCURVE",
"284 35 CURVE",
"236 26 OFFCURVE",
"191 11 OFFCURVE",
"166 -11 CURVE SMOOTH",
"145 -31 OFFCURVE",
"144 -99 OFFCURVE",
"163 -81 CURVE SMOOTH",
"237 -10 OFFCURVE",
"357 31 OFFCURVE",
"423 31 CURVE SMOOTH",
"433 31 OFFCURVE",
"434 49 OFFCURVE",
"424 49 CURVE SMOOTH",
"393 49 OFFCURVE",
"350 46 OFFCURVE",
"306 39 CURVE",
"306 45 LINE",
"277 45 OFFCURVE",
"272 66 OFFCURVE",
"272 91 CURVE SMOOTH",
"272 218 OFFCURVE",
"485 454 OFFCURVE",
"584 540 CURVE",
"690 538 OFFCURVE",
"784 522 OFFCURVE",
"784 472 CURVE SMOOTH",
"784 459 OFFCURVE",
"779 445 OFFCURVE",
"772 434 CURVE SMOOTH",
"705 324 OFFCURVE",
"482 256 OFFCURVE",
"369 237 CURVE SMOOTH",
"317 228 OFFCURVE",
"333 216 OFFCURVE",
"364 216 CURVE SMOOTH",
"370 216 OFFCURVE",
"390 223 OFFCURVE",
"402 226 CURVE SMOOTH",
"438 235 OFFCURVE",
"487 243 OFFCURVE",
"509 245 CURVE SMOOTH",
"588 251 OFFCURVE",
"880 354 OFFCURVE",
"805 478 CURVE"
);
}
);
width = 652;
}
);
note = P;
unicode = 0050;
},
{
glyphname = Thorn;
lastChange = "2021-09-06 07:58:07 +0000";
layers = (
{
hints = (
{
horizontal = 1;
place = "{653, -20}";
target = down;
type = TopGhost;
},
{
place = "{-8, 42}";
type = Stem;
},
{
place = "{240, 27}";
type = Stem;
}
);
layerId = "E1C4CDDB-EFDF-468A-8ACC-65E2DFDE53DF";
paths = (
{
closed = 1;
nodes = (
"40 400 OFFCURVE",
"34 401 OFFCURVE",
"34 408 CURVE SMOOTH",
"34 468 OFFCURVE",
"95 503 OFFCURVE",
"252 530 CURVE SMOOTH",
"393 555 OFFCURVE",
"474 549 OFFCURVE",
"515 551 CURVE",
"402 447 OFFCURVE",
"186 110 OFFCURVE",
"186 0 CURVE SMOOTH",
"186 -36 OFFCURVE",
"200 -67 OFFCURVE",
"247 -73 CURVE SMOOTH",
"257 -74 OFFCURVE",
"274 -68 OFFCURVE",
"266 -63 CURVE",
"247 -59 OFFCURVE",
"213 -47 OFFCURVE",
"213 -15 CURVE SMOOTH",
"213 116 OFFCURVE",
"475 461 OFFCURVE",
"575 548 CURVE",
"680 546 OFFCURVE",
"789 531 OFFCURVE",
"789 474 CURVE SMOOTH",
"789 460 OFFCURVE",
"783 445 OFFCURVE",
"776 433 CURVE SMOOTH",
"708 319 OFFCURVE",
"483 251 OFFCURVE",
"369 231 CURVE SMOOTH",
"348 227 OFFCURVE",
"339 227 OFFCURVE",
"340 224 CURVE SMOOTH",
"341 220 OFFCURVE",
"351 220 OFFCURVE",
"364 220 CURVE SMOOTH",
"366 220 OFFCURVE",
"372 222 OFFCURVE",
"379 224 CURVE SMOOTH",
"387 226 OFFCURVE",
"395 229 OFFCURVE",
"401 230 CURVE SMOOTH",
"437 239 OFFCURVE",
"486 244 OFFCURVE",
"509 249 CURVE SMOOTH",
"606 269 OFFCURVE",
"877 353 OFFCURVE",
"806 476 CURVE",
"799 479 OFFCURVE",
"802 491 OFFCURVE",
"800 498 CURVE SMOOTH",
"799 506 OFFCURVE",
"789 518 OFFCURVE",
"766 532 CURVE SMOOTH",
"734 551 OFFCURVE",
"667 562 OFFCURVE",
"594 570 CURVE",
"684 661 OFFCURVE",
"701 675 OFFCURVE",
"710 688 CURVE SMOOTH",
"720 702 OFFCURVE",
"723 714 OFFCURVE",
"704 722 CURVE",
"693 725 OFFCURVE",
"682 724 OFFCURVE",
"672 729 CURVE",
"656 716 OFFCURVE",
"638 707 OFFCURVE",
"623 693 CURVE SMOOTH",
"606 679 OFFCURVE",
"552 606 OFFCURVE",
"536 574 CURVE",
"423 578 OFFCURVE",
"317 571 OFFCURVE",
"257 563 CURVE SMOOTH",
"118 547 OFFCURVE",
"-8 496 OFFCURVE",
"-8 447 CURVE SMOOTH",
"-8 430 OFFCURVE",
"13 402 OFFCURVE",
"35 388 CURVE SMOOTH",
"45 382 OFFCURVE",
"50 387 OFFCURVE",
"43 393 CURVE"
);
}
);
width = 652;
},
{
background = {
paths = (
{
closed = 1;
nodes = (
"40 400 OFFCURVE",
"34 401 OFFCURVE",
"34 408 CURVE SMOOTH",
"34 468 OFFCURVE",
"95 503 OFFCURVE",
"252 530 CURVE SMOOTH",
"393 555 OFFCURVE",
"474 549 OFFCURVE",
"515 551 CURVE",
"402 447 OFFCURVE",
"186 110 OFFCURVE",
"186 0 CURVE SMOOTH",
"186 -36 OFFCURVE",
"200 -67 OFFCURVE",
"247 -73 CURVE SMOOTH",
"257 -74 OFFCURVE",
"274 -68 OFFCURVE",
"266 -63 CURVE",
"247 -59 OFFCURVE",
"213 -47 OFFCURVE",
"213 -15 CURVE SMOOTH",
"213 116 OFFCURVE",
"475 461 OFFCURVE",
"575 548 CURVE",
"680 546 OFFCURVE",
"789 531 OFFCURVE",
"789 474 CURVE SMOOTH",
"789 460 OFFCURVE",
"783 445 OFFCURVE",
"776 433 CURVE SMOOTH",
"708 319 OFFCURVE",
"483 251 OFFCURVE",
"369 231 CURVE SMOOTH",
"348 227 OFFCURVE",
"339 227 OFFCURVE",
"340 224 CURVE SMOOTH",
"341 220 OFFCURVE",
"351 220 OFFCURVE",
"364 220 CURVE SMOOTH",
"366 220 OFFCURVE",
"372 222 OFFCURVE",
"379 224 CURVE SMOOTH",
"387 226 OFFCURVE",
"395 229 OFFCURVE",
"401 230 CURVE SMOOTH",
"437 239 OFFCURVE",
"486 244 OFFCURVE",
"509 249 CURVE SMOOTH",
"606 269 OFFCURVE",
"877 353 OFFCURVE",
"806 476 CURVE",
"799 479 OFFCURVE",
"802 491 OFFCURVE",
"800 498 CURVE SMOOTH",
"799 506 OFFCURVE",
"789 518 OFFCURVE",
"766 532 CURVE SMOOTH",
"734 551 OFFCURVE",
"667 562 OFFCURVE",
"594 570 CURVE",
"684 661 OFFCURVE",
"701 675 OFFCURVE",
"710 688 CURVE SMOOTH",
"720 702 OFFCURVE",
"723 714 OFFCURVE",
"704 722 CURVE",
"693 725 OFFCURVE",
"682 724 OFFCURVE",
"672 729 CURVE",
"656 716 OFFCURVE",
"638 707 OFFCURVE",
"623 693 CURVE SMOOTH",
"606 679 OFFCURVE",
"552 606 OFFCURVE",
"536 574 CURVE",
"423 578 OFFCURVE",
"317 571 OFFCURVE",
"257 563 CURVE SMOOTH",
"118 547 OFFCURVE",
"-8 496 OFFCURVE",
"-8 447 CURVE SMOOTH",
"-8 430 OFFCURVE",
"13 402 OFFCURVE",
"35 388 CURVE SMOOTH",
"45 382 OFFCURVE",
"50 387 OFFCURVE",
"43 393 CURVE"
);
}
);
};
hints = (
{
horizontal = 1;
place = "{31, 18}";
type = Stem;
},
{
horizontal = 1;
place = "{656, -20}";
target = down;
type = TopGhost;
},
{
place = "{-19, 58}";
type = Stem;
},
{
place = "{231, 41}";
type = Stem;
}
);
layerId = "10EE7422-BC27-45A8-8DF8-0D41623AEA15";
paths = (
{
closed = 1;
nodes = (
"794 480 OFFCURVE",
"816 505 OFFCURVE",
"769 533 CURVE SMOOTH",
"736 552 OFFCURVE",
"681 564 OFFCURVE",
"619 570 CURVE",
"729 673 OFFCURVE",
"741 686 OFFCURVE",
"745 696 CURVE SMOOTH",
"746 699 OFFCURVE",
"747 703 OFFCURVE",
"747 707 CURVE SMOOTH",
"747 730 OFFCURVE",
"690 744 OFFCURVE",
"672 745 CURVE",
"650 727 OFFCURVE",
"551 637 OFFCURVE",
"515 576 CURVE",
"413 579 OFFCURVE",
"317 572 OFFCURVE",
"256 565 CURVE SMOOTH",
"120 549 OFFCURVE",
"-19 507 OFFCURVE",
"-19 454 CURVE SMOOTH",
"-19 429 OFFCURVE",
"27 388 OFFCURVE",
"50 385 CURVE SMOOTH",
"61 384 OFFCURVE",
"65 387 OFFCURVE",
"58 393 CURVE",
"48 393 OFFCURVE",
"39 399 OFFCURVE",
"39 406 CURVE SMOOTH",
"39 453 OFFCURVE",
"182 510 OFFCURVE",
"296 523 CURVE SMOOTH",
"323 526 OFFCURVE",
"393 535 OFFCURVE",
"480 539 CURVE",
"386 436 OFFCURVE",
"186 110 OFFCURVE",
"186 0 CURVE SMOOTH",
"186 -37 OFFCURVE",
"210 -69 OFFCURVE",
"239 -77 CURVE",
"261 -73 LINE",
"261 -67 LINE",
"232 -67 OFFCURVE",
"227 -46 OFFCURVE",
"227 -21 CURVE SMOOTH",
"227 106 OFFCURVE",
"485 454 OFFCURVE",
"584 540 CURVE",
"690 538 OFFCURVE",
"784 522 OFFCURVE",
"784 472 CURVE SMOOTH",
"784 459 OFFCURVE",
"779 445 OFFCURVE",
"772 434 CURVE SMOOTH",
"705 324 OFFCURVE",
"482 256 OFFCURVE",
"369 237 CURVE SMOOTH",
"317 228 OFFCURVE",
"333 216 OFFCURVE",
"364 216 CURVE SMOOTH",
"370 216 OFFCURVE",
"390 223 OFFCURVE",
"402 226 CURVE SMOOTH",
"438 235 OFFCURVE",
"487 243 OFFCURVE",
"509 245 CURVE SMOOTH",
"588 251 OFFCURVE",
"880 354 OFFCURVE",
"805 478 CURVE"
);
}
);
width = 652;
}
);
unicode = 00DE;
},
{
glyphname = Q;
lastChange = "2021-09-06 07:58:07 +0000";
layers = (
{
hints = (
{
horizontal = 1;
place = "{-45, 15}";
type = Stem;
},
{
horizontal = 1;
place = "{-26, 19}";
type = Stem;
},
{
horizontal = 1;
place = "{571, 13}";
type = Stem;
},
{
place = "{-13, 16}";
type = Stem;
},
{
place = "{16, 37}";
type = Stem;
},
{
place = "{542, 53}";
type = Stem;
},
{
place = "{745, 19}";
type = Stem;
}
);
layerId = "E1C4CDDB-EFDF-468A-8ACC-65E2DFDE53DF";
paths = (
{
closed = 1;
nodes = (
"160 28 OFFCURVE",
"125 13 OFFCURVE",
"90 -7 CURVE",
"-5 74 OFFCURVE",
"97 344 OFFCURVE",
"222 385 CURVE SMOOTH",
"232 388 OFFCURVE",
"248 393 OFFCURVE",
"260 389 CURVE SMOOTH",
"267 386 OFFCURVE",
"273 393 OFFCURVE",
"265 397 CURVE SMOOTH",
"247 406 OFFCURVE",
"236 413 OFFCURVE",
"215 413 CURVE SMOOTH",
"157 413 OFFCURVE",
"77 349 OFFCURVE",
"42 265 CURVE SMOOTH",
"0 164 OFFCURVE",
"6 41 OFFCURVE",
"77 -15 CURVE",
"30 -44 OFFCURVE",
"-13 -80 OFFCURVE",
"-13 -107 CURVE SMOOTH",
"-13 -153 OFFCURVE",
"17 -194 OFFCURVE",
"62 -190 CURVE SMOOTH",
"253 -171 OFFCURVE",
"414 -62 OFFCURVE",
"610 -62 CURVE SMOOTH",
"649 -62 OFFCURVE",
"744 -71 OFFCURVE",
"744 -132 CURVE SMOOTH",
"744 -171 OFFCURVE",
"717 -201 OFFCURVE",
"691 -219 CURVE SMOOTH",
"682 -226 OFFCURVE",
"691 -232 OFFCURVE",
"695 -228 CURVE SMOOTH",
"700 -224 OFFCURVE",
"712 -211 OFFCURVE",
"718 -208 CURVE SMOOTH",
"724 -205 OFFCURVE",
"731 -203 OFFCURVE",
"737 -200 CURVE SMOOTH",
"778 -182 OFFCURVE",
"764 -149 OFFCURVE",
"749 -106 CURVE",
"752 -84 OFFCURVE",
"760 -66 OFFCURVE",
"729 -48 CURVE SMOOTH",
"665 -9 OFFCURVE",
"524 -37 OFFCURVE",
"458 -53 CURVE SMOOTH",
"334 -83 OFFCURVE",
"209 -135 OFFCURVE",
"81 -145 CURVE SMOOTH",
"-8 -152 OFFCURVE",
"-24 -119 OFFCURVE",
"48 -59 CURVE SMOOTH",
"61 -49 OFFCURVE",
"77 -37 OFFCURVE",
"94 -26 CURVE",
"115 -38 OFFCURVE",
"140 -45 OFFCURVE",
"171 -45 CURVE SMOOTH",
"371 -48 OFFCURVE",
"631 238 OFFCURVE",
"591 447 CURVE SMOOTH",
"556 632 OFFCURVE",
"295 591 OFFCURVE",
"192 547 CURVE SMOOTH",
"113 512 OFFCURVE",
"45 463 OFFCURVE",
"52 411 CURVE",
"41 397 OFFCURVE",
"42 385 OFFCURVE",
"50 370 CURVE SMOOTH",
"58 357 OFFCURVE",
"54 355 OFFCURVE",
"52 338 CURVE",
"54 334 OFFCURVE",
"56 337 OFFCURVE",
"57 339 CURVE",
"61 386 OFFCURVE",
"89 433 OFFCURVE",
"131 473 CURVE SMOOTH",
"195 533 OFFCURVE",
"289 571 OFFCURVE",
"368 571 CURVE SMOOTH",
"498 571 OFFCURVE",
"568 505 OFFCURVE",
"534 330 CURVE SMOOTH",
"501 156 OFFCURVE",
"321 -36 OFFCURVE",
"156 -30 CURVE SMOOTH",
"136 -30 OFFCURVE",
"120 -26 OFFCURVE",
"106 -18 CURVE",
"132 -2 OFFCURVE",
"160 13 OFFCURVE",
"185 24 CURVE SMOOTH",
"196 29 OFFCURVE",
"193 33 OFFCURVE",
"181 31 CURVE SMOOTH"
);
}
);
width = 512;
},
{
hints = (
{
horizontal = 1;
place = "{-45, 24}";
type = Stem;
},
{
horizontal = 1;
place = "{383, 32}";
type = Stem;
},
{
horizontal = 1;
place = "{563, 21}";
target = up;
type = BottomGhost;
},
{
place = "{-18, 26}";
type = Stem;
},
{
place = "{11, 53}";
type = Stem;
},
{
place = "{524, 88}";
type = Stem;
},
{
place = "{739, 38}";
type = Stem;
}
);
layerId = "10EE7422-BC27-45A8-8DF8-0D41623AEA15";
paths = (
{
closed = 1;
nodes = (
"780 -137 OFFCURVE",
"773 -131 OFFCURVE",
"757 -96 CURVE",
"764 -38 OFFCURVE",
"709 -30 OFFCURVE",
"680 -25 CURVE SMOOTH",
"561 -2 OFFCURVE",
"342 -78 OFFCURVE",
"265 -98 CURVE SMOOTH",
"241 -104 OFFCURVE",
"147 -131 OFFCURVE",
"81 -136 CURVE SMOOTH",
"-4 -142 OFFCURVE",
"-17 -116 OFFCURVE",
"51 -60 CURVE SMOOTH",
"64 -49 OFFCURVE",
"80 -38 OFFCURVE",
"96 -28 CURVE",
"117 -39 OFFCURVE",
"142 -45 OFFCURVE",
"171 -45 CURVE SMOOTH",
"374 -48 OFFCURVE",
"649 234 OFFCURVE",
"608 444 CURVE SMOOTH",
"571 632 OFFCURVE",
"314 592 OFFCURVE",
"185 544 CURVE SMOOTH",
"98 513 OFFCURVE",
"22 463 OFFCURVE",
"31 405 CURVE",
"4 374 OFFCURVE",
"48 370 OFFCURVE",
"42 318 CURVE",
"49 300 OFFCURVE",
"58 318 OFFCURVE",
"58 318 CURVE",
"63 399 OFFCURVE",
"133 477 OFFCURVE",
"217 523 CURVE SMOOTH",
"307 573 OFFCURVE",
"463 595 OFFCURVE",
"510 474 CURVE SMOOTH",
"525 434 OFFCURVE",
"528 383 OFFCURVE",
"518 331 CURVE SMOOTH",
"494 209 OFFCURVE",
"318 -26 OFFCURVE",
"156 -21 CURVE SMOOTH",
"142 -20 OFFCURVE",
"130 -18 OFFCURVE",
"120 -14 CURVE",
"159 9 OFFCURVE",
"197 27 OFFCURVE",
"209 31 CURVE",
"217 39 OFFCURVE",
"202 42 OFFCURVE",
"180 38 CURVE SMOOTH",
"156 34 OFFCURVE",
"123 21 OFFCURVE",
"92 4 CURVE",
"2 91 OFFCURVE",
"144 383 OFFCURVE",
"273 383 CURVE SMOOTH",
"287 383 OFFCURVE",
"303 385 OFFCURVE",
"290 394 CURVE SMOOTH",
"269 410 OFFCURVE",
"241 415 OFFCURVE",
"215 415 CURVE SMOOTH",
"154 415 OFFCURVE",
"73 351 OFFCURVE",
"38 267 CURVE SMOOTH",
"-3 169 OFFCURVE",
"0 49 OFFCURVE",
"69 -10 CURVE",
"22 -40 OFFCURVE",
"-18 -77 OFFCURVE",
"-18 -104 CURVE SMOOTH",
"-18 -149 OFFCURVE",
"4 -201 OFFCURVE",
"54 -196 CURVE SMOOTH",
"235 -178 OFFCURVE",
"412 -64 OFFCURVE",
"610 -64 CURVE SMOOTH",
"647 -64 OFFCURVE",
"739 -70 OFFCURVE",
"739 -128 CURVE SMOOTH",
"739 -165 OFFCURVE",
"712 -198 OFFCURVE",
"687 -215 CURVE SMOOTH",
"677 -223 OFFCURVE",
"683 -231 OFFCURVE",
"685 -231 CURVE",
"701 -227 OFFCURVE",
"710 -213 OFFCURVE",
"720 -208 CURVE SMOOTH",
"745 -196 OFFCURVE",
"770 -191 OFFCURVE",
"776 -160 CURVE SMOOTH"
);
}
);
width = 512;
}
);
note = Q;
unicode = 0051;
},
{
glyphname = R;
lastChange = "2021-09-06 07:58:07 +0000";
layers = (
{
hints = (
{
horizontal = 1;
place = "{-55, 29}";
type = Stem;
},
{
horizontal = 1;
place = "{291, 281}";
type = Stem;
},
{
horizontal = 1;
place = "{657, -20}";
target = down;
type = TopGhost;
},
{
place = "{241, 26}";
type = Stem;
}
);
layerId = "E1C4CDDB-EFDF-468A-8ACC-65E2DFDE53DF";
paths = (
{
closed = 1;
nodes = (
"37 387 OFFCURVE",
"48 389 OFFCURVE",
"42 396 CURVE SMOOTH",
"25 415 OFFCURVE",
"40 445 OFFCURVE",
"57 459 CURVE SMOOTH",
"155 536 OFFCURVE",
"388 547 OFFCURVE",
"513 550 CURVE",
"396 438 OFFCURVE",
"241 219 OFFCURVE",
"241 109 CURVE SMOOTH",
"241 81 OFFCURVE",
"264 35 OFFCURVE",
"293 35 CURVE SMOOTH",
"296 35 OFFCURVE",
"299 36 OFFCURVE",
"301 37 CURVE",
"272 39 OFFCURVE",
"267 64 OFFCURVE",
"267 88 CURVE SMOOTH",
"267 223 OFFCURVE",
"462 438 OFFCURVE",
"548 526 CURVE SMOOTH",
"553 532 OFFCURVE",
"564 542 OFFCURVE",
"569 547 CURVE",
"642 541 OFFCURVE",
"716 521 OFFCURVE",
"716 471 CURVE SMOOTH",
"716 457 OFFCURVE",
"711 442 OFFCURVE",
"704 430 CURVE SMOOTH",
"635 316 OFFCURVE",
"516 293 OFFCURVE",
"402 274 CURVE SMOOTH",
"388 271 OFFCURVE",
"380 268 OFFCURVE",
"376 265 CURVE SMOOTH",
"375 264 OFFCURVE",
"368 259 OFFCURVE",
"369 253 CURVE SMOOTH",
"388 148 OFFCURVE",
"436 -51 OFFCURVE",
"519 -55 CURVE SMOOTH",
"560 -56 OFFCURVE",
"591 -27 OFFCURVE",
"623 14 CURVE SMOOTH",
"643 38 OFFCURVE",
"672 82 OFFCURVE",
"685 101 CURVE SMOOTH",
"689 108 OFFCURVE",
"686 117 OFFCURVE",
"679 106 CURVE SMOOTH",
"675 101 OFFCURVE",
"666 87 OFFCURVE",
"653 69 CURVE SMOOTH",
"640 50 OFFCURVE",
"621 28 OFFCURVE",
"604 9 CURVE SMOOTH",
"540 -64 OFFCURVE",
"490 -8 OFFCURVE",
"465 64 CURVE SMOOTH",
"447 117 OFFCURVE",
"431 207 OFFCURVE",
"431 267 CURVE",
"471 277 OFFCURVE",
"520 290 OFFCURVE",
"542 291 CURVE SMOOTH",
"607 297 OFFCURVE",
"729 344 OFFCURVE",
"743 418 CURVE SMOOTH",
"747 437 OFFCURVE",
"741 468 OFFCURVE",
"730 478 CURVE",
"715 539 OFFCURVE",
"651 561 OFFCURVE",
"597 569 CURVE",
"624 594 OFFCURVE",
"636 608 OFFCURVE",
"640 618 CURVE SMOOTH",
"641 621 OFFCURVE",
"642 624 OFFCURVE",
"642 628 CURVE SMOOTH",
"642 648 OFFCURVE",
"623 653 OFFCURVE",
"605 655 CURVE",
"596 650 OFFCURVE",
"592 645 OFFCURVE",
"583 640 CURVE",
"575 633 OFFCURVE",
"565 627 OFFCURVE",
"558 619 CURVE",
"541 604 OFFCURVE",
"536 592 OFFCURVE",
"542 580 CURVE",
"533 572 LINE",
"438 580 OFFCURVE",
"326 571 OFFCURVE",
"257 563 CURVE SMOOTH",
"118 547 OFFCURVE",
"-14 505 OFFCURVE",
"-14 456 CURVE SMOOTH",
"-14 440 OFFCURVE",
"14 402 OFFCURVE",
"35 388 CURVE SMOOTH"
);
}
);
width = 637;
},
{
hints = (
{
horizontal = 1;
place = "{-57, 42}";
type = Stem;
},
{
horizontal = 1;
place = "{655, -20}";
target = down;
type = TopGhost;
},
{
place = "{-19, 58}";
type = Stem;
},
{
place = "{236, 36}";
type = Stem;
}
);
layerId = "10EE7422-BC27-45A8-8DF8-0D41623AEA15";
paths = (
{
closed = 1;
nodes = (
"721 477 OFFCURVE",
"743 502 OFFCURVE",
"696 530 CURVE SMOOTH",
"673 544 OFFCURVE",
"642 554 OFFCURVE",
"608 561 CURVE",
"628 578 OFFCURVE",
"645 595 OFFCURVE",
"650 607 CURVE SMOOTH",
"651 610 OFFCURVE",
"652 614 OFFCURVE",
"652 618 CURVE SMOOTH",
"652 641 OFFCURVE",
"604 655 OFFCURVE",
"586 655 CURVE",
"564 638 OFFCURVE",
"498 603 OFFCURVE",
"524 575 CURVE",
"521 572 LINE",
"428 579 OFFCURVE",
"325 573 OFFCURVE",
"256 565 CURVE SMOOTH",
"120 549 OFFCURVE",
"-19 507 OFFCURVE",
"-19 454 CURVE SMOOTH",
"-19 429 OFFCURVE",
"27 388 OFFCURVE",
"50 385 CURVE SMOOTH",
"61 384 OFFCURVE",
"65 387 OFFCURVE",
"58 393 CURVE",
"48 393 OFFCURVE",
"39 399 OFFCURVE",
"39 406 CURVE SMOOTH",
"39 453 OFFCURVE",
"182 510 OFFCURVE",
"296 523 CURVE SMOOTH",
"326 527 OFFCURVE",
"406 536 OFFCURVE",
"489 538 CURVE",
"395 435 OFFCURVE",
"236 222 OFFCURVE",
"236 112 CURVE SMOOTH",
"236 84 OFFCURVE",
"259 34 OFFCURVE",
"293 34 CURVE SMOOTH",
"298 34 OFFCURVE",
"302 35 OFFCURVE",
"306 37 CURVE",
"306 45 LINE",
"277 45 OFFCURVE",
"272 66 OFFCURVE",
"272 91 CURVE SMOOTH",
"272 221 OFFCURVE",
"470 426 OFFCURVE",
"556 514 CURVE SMOOTH",
"562 520 OFFCURVE",
"570 528 OFFCURVE",
"580 536 CURVE",
"653 530 OFFCURVE",
"711 512 OFFCURVE",
"711 469 CURVE SMOOTH",
"711 456 OFFCURVE",
"706 442 OFFCURVE",
"699 431 CURVE SMOOTH",
"632 321 OFFCURVE",
"515 298 OFFCURVE",
"402 279 CURVE SMOOTH",
"373 274 OFFCURVE",
"366 266 OFFCURVE",
"371 260 CURVE",
"368 259 OFFCURVE",
"365 257 OFFCURVE",
"363 256 CURVE",
"382 156 OFFCURVE",
"431 -53 OFFCURVE",
"519 -57 CURVE SMOOTH",
"563 -59 OFFCURVE",
"598 -29 OFFCURVE",
"629 12 CURVE SMOOTH",
"648 38 OFFCURVE",
"665 65 OFFCURVE",
"678 83 CURVE SMOOTH",
"706 125 OFFCURVE",
"711 165 OFFCURVE",
"673 112 CURVE SMOOTH",
"665 102 OFFCURVE",
"635 55 OFFCURVE",
"600 16 CURVE SMOOTH",
"483 -115 OFFCURVE",
"441 204 OFFCURVE",
"441 269 CURVE SMOOTH",
"441 270 LINE",
"477 278 OFFCURVE",
"521 285 OFFCURVE",
"542 287 CURVE SMOOTH",
"621 293 OFFCURVE",
"807 351 OFFCURVE",
"732 475 CURVE"
);
}
);
width = 637;
}
);
note = R;
unicode = 0052;
},
{
glyphname = S;
lastChange = "2021-09-06 07:58:07 +0000";
layers = (
{
hints = (
{
horizontal = 1;
place = "{-25, 39}";
type = Stem;
},
{
horizontal = 1;
place = "{602, 34}";
type = Stem;
},
{
place = "{94, 52}";
type = Stem;
},
{
place = "{287, 10}";
type = Stem;
},
{
place = "{503, 15}";
type = Stem;
}
);
layerId = "E1C4CDDB-EFDF-468A-8ACC-65E2DFDE53DF";
paths = (
{
closed = 1;
nodes = (
"46 123 OFFCURVE",
"49 131 OFFCURVE",
"40 122 CURVE",
"33 117 OFFCURVE",
"26 107 OFFCURVE",
"22 92 CURVE SMOOTH",
"-1 11 OFFCURVE",
"63 -25 OFFCURVE",
"132 -25 CURVE SMOOTH",
"162 -25 OFFCURVE",
"194 -17 OFFCURVE",
"220 -3 CURVE SMOOTH",
"262 21 OFFCURVE",
"297 62 OFFCURVE",
"297 110 CURVE SMOOTH",
"297 139 OFFCURVE",
"286 160 OFFCURVE",
"269 178 CURVE SMOOTH",
"219 230 OFFCURVE",
"143 255 OFFCURVE",
"146 345 CURVE SMOOTH",
"150 477 OFFCURVE",
"294 602 OFFCURVE",
"419 602 CURVE SMOOTH",
"445 602 OFFCURVE",
"485 589 OFFCURVE",
"498 570 CURVE SMOOTH",
"513 550 OFFCURVE",
"493 522 OFFCURVE",
"475 511 CURVE SMOOTH",
"470 508 OFFCURVE",
"476 506 OFFCURVE",
"476 506 CURVE",
"517 525 OFFCURVE",
"537 584 OFFCURVE",
"496 614 CURVE SMOOTH",
"475 629 OFFCURVE",
"435 636 OFFCURVE",
"407 636 CURVE SMOOTH",
"275 636 OFFCURVE",
"87 489 OFFCURVE",
"94 346 CURVE SMOOTH",
"96 315 OFFCURVE",
"110 289 OFFCURVE",
"129 267 CURVE SMOOTH",
"163 228 OFFCURVE",
"209 200 OFFCURVE",
"248 166 CURVE SMOOTH",
"263 153 OFFCURVE",
"275 140 OFFCURVE",
"282 127 CURVE SMOOTH",
"297 99 OFFCURVE",
"277 62 OFFCURVE",
"227 34 CURVE SMOOTH",
"206 22 OFFCURVE",
"172 14 OFFCURVE",
"138 14 CURVE SMOOTH",
"95 14 OFFCURVE",
"53 27 OFFCURVE",
"39 62 CURVE SMOOTH",
"31 81 OFFCURVE",
"31 106 OFFCURVE",
"44 120 CURVE"
);
}
);
width = 307;
},
{
hints = (
{
horizontal = 1;
place = "{-25, 53}";
type = Stem;
},
{
horizontal = 1;
place = "{587, 49}";
type = Stem;
},
{
place = "{89, 65}";
type = Stem;
},
{
place = "{283, 19}";
type = Stem;
},
{
place = "{498, 26}";
type = Stem;
}
);
layerId = "10EE7422-BC27-45A8-8DF8-0D41623AEA15";
paths = (
{
closed = 1;
nodes = (
"535 554 OFFCURVE",
"530 591 OFFCURVE",
"499 613 CURVE SMOOTH",
"476 630 OFFCURVE",
"436 636 OFFCURVE",
"407 636 CURVE SMOOTH",
"273 636 OFFCURVE",
"82 489 OFFCURVE",
"89 345 CURVE SMOOTH",
"93 281 OFFCURVE",
"147 240 OFFCURVE",
"194 204 CURVE SMOOTH",
"267 148 OFFCURVE",
"332 107 OFFCURVE",
"232 53 CURVE SMOOTH",
"186 28 OFFCURVE",
"66 7 OFFCURVE",
"41 72 CURVE SMOOTH",
"38 81 OFFCURVE",
"37 109 OFFCURVE",
"43 116 CURVE SMOOTH",
"52 126 OFFCURVE",
"54 144 OFFCURVE",
"36 129 CURVE SMOOTH",
"29 123 OFFCURVE",
"21 112 OFFCURVE",
"17 97 CURVE SMOOTH",
"-19 -29 OFFCURVE",
"143 -47 OFFCURVE",
"222 -3 CURVE SMOOTH",
"265 21 OFFCURVE",
"302 63 OFFCURVE",
"302 113 CURVE SMOOTH",
"302 174 OFFCURVE",
"253 200 OFFCURVE",
"212 232 CURVE SMOOTH",
"178 259 OFFCURVE",
"153 290 OFFCURVE",
"154 339 CURVE SMOOTH",
"159 466 OFFCURVE",
"300 587 OFFCURVE",
"422 587 CURVE SMOOTH",
"460 587 OFFCURVE",
"524 572 OFFCURVE",
"487 525 CURVE SMOOTH",
"482 519 OFFCURVE",
"476 513 OFFCURVE",
"467 509 CURVE SMOOTH",
"465 508 OFFCURVE",
"470 500 OFFCURVE",
"473 500 CURVE SMOOTH",
"480 500 OFFCURVE",
"491 507 OFFCURVE",
"500 516 CURVE SMOOTH"
);
}
);
width = 307;
}
);
note = S;
unicode = 0053;
},
{
color = 0;
glyphname = Schwa;
lastChange = "2021-09-06 07:58:07 +0000";
layers = (
{
hints = (
{
place = "{9, -28}";
type = Stem;
},
{
place = "{-131, -25}";
type = Stem;
}
);
layerId = "E1C4CDDB-EFDF-468A-8ACC-65E2DFDE53DF";
paths = (
{
closed = 1;
nodes = (
"221 277 OFFCURVE",
"22 209 OFFCURVE",
"22 79 CURVE SMOOTH",
"22 32 OFFCURVE",
"67 -9 OFFCURVE",
"144 -9 CURVE SMOOTH",
"324 -9 OFFCURVE",
"504 222 OFFCURVE",
"504 400 CURVE SMOOTH",
"504 486 OFFCURVE",
"463 552 OFFCURVE",
"352 552 CURVE SMOOTH",
"264 552 OFFCURVE",
"121 476 OFFCURVE",
"121 372 CURVE SMOOTH",
"121 358 OFFCURVE",
"125 347 OFFCURVE",
"133 342 CURVE",
"176 452 OFFCURVE",
"257 529 OFFCURVE",
"345 529 CURVE SMOOTH",
"419 529 OFFCURVE",
"441 484 OFFCURVE",
"441 420 CURVE SMOOTH",
"441 277 OFFCURVE",
"306 16 OFFCURVE",
"130 16 CURVE SMOOTH",
"92 16 OFFCURVE",
"75 40 OFFCURVE",
"75 71 CURVE SMOOTH",
"75 181 OFFCURVE",
"222 241 OFFCURVE",
"376 264 CURVE SMOOTH",
"394 267 OFFCURVE",
"411 261 OFFCURVE",
"426 261 CURVE SMOOTH",
"431 261 OFFCURVE",
"436 262 OFFCURVE",
"441 264 CURVE SMOOTH",
"452 270 OFFCURVE",
"454 275 OFFCURVE",
"454 280 CURVE SMOOTH",
"454 284 OFFCURVE",
"452 288 OFFCURVE",
"452 290 CURVE SMOOTH",
"452 292 OFFCURVE",
"448 293 OFFCURVE",
"440 293 CURVE SMOOTH",
"430 293 OFFCURVE",
"415 292 OFFCURVE",
"396 290 CURVE SMOOTH"
);
}
);
width = 524;
},
{
hints = (
{
place = "{9, -28}";
type = Stem;
},
{
place = "{-131, -25}";
type = Stem;
}
);
layerId = "10EE7422-BC27-45A8-8DF8-0D41623AEA15";
paths = (
{
closed = 1;
nodes = (
"221 277 OFFCURVE",
"22 209 OFFCURVE",
"22 79 CURVE SMOOTH",
"22 32 OFFCURVE",
"67 -9 OFFCURVE",
"144 -9 CURVE SMOOTH",
"324 -9 OFFCURVE",
"504 222 OFFCURVE",
"504 400 CURVE SMOOTH",
"504 486 OFFCURVE",
"463 552 OFFCURVE",
"352 552 CURVE SMOOTH",
"264 552 OFFCURVE",
"121 476 OFFCURVE",
"121 372 CURVE SMOOTH",
"121 358 OFFCURVE",
"125 347 OFFCURVE",
"133 342 CURVE",
"176 452 OFFCURVE",
"257 529 OFFCURVE",
"345 529 CURVE SMOOTH",
"419 529 OFFCURVE",
"441 484 OFFCURVE",
"441 420 CURVE SMOOTH",
"441 277 OFFCURVE",
"306 16 OFFCURVE",
"130 16 CURVE SMOOTH",
"92 16 OFFCURVE",
"75 40 OFFCURVE",
"75 71 CURVE SMOOTH",
"75 181 OFFCURVE",
"222 241 OFFCURVE",
"376 264 CURVE SMOOTH",
"394 267 OFFCURVE",
"411 261 OFFCURVE",
"426 261 CURVE SMOOTH",
"431 261 OFFCURVE",
"436 262 OFFCURVE",
"441 264 CURVE SMOOTH",
"452 270 OFFCURVE",
"454 275 OFFCURVE",
"454 280 CURVE SMOOTH",
"454 284 OFFCURVE",
"452 288 OFFCURVE",
"452 290 CURVE SMOOTH",
"452 292 OFFCURVE",
"448 293 OFFCURVE",
"440 293 CURVE SMOOTH",
"430 293 OFFCURVE",
"415 292 OFFCURVE",
"396 290 CURVE SMOOTH"
);
}
);
width = 524;
}
);
unicode = 018F;
},
{
glyphname = T;
lastChange = "2021-09-06 07:58:07 +0000";
layers = (
{
hints = (
{
horizontal = 1;
place = "{437, 49}";
type = Stem;
},
{
horizontal = 1;
place = "{576, 32}";
type = Stem;
},
{
horizontal = 1;
place = "{649, -20}";
target = down;
type = TopGhost;
},
{
place = "{38, 21}";
type = Stem;
},
{
place = "{339, 25}";
type = Stem;
},
{
place = "{622, 110}";
type = Stem;
},
{
place = "{944, 27}";
type = Stem;
}
);
layerId = "E1C4CDDB-EFDF-468A-8ACC-65E2DFDE53DF";
paths = (
{
closed = 1;
nodes = (
"998 458 OFFCURVE",
"961 512 OFFCURVE",
"951 532 CURVE",
"955 561 OFFCURVE",
"942 577 OFFCURVE",
"924 586 CURVE SMOOTH",
"906 596 OFFCURVE",
"884 599 OFFCURVE",
"864 602 CURVE SMOOTH",
"652 639 OFFCURVE",
"403 498 OFFCURVE",
"187 486 CURVE SMOOTH",
"121 482 OFFCURVE",
"69 491 OFFCURVE",
"60 510 CURVE SMOOTH",
"40 555 OFFCURVE",
"247 628 OFFCURVE",
"306 639 CURVE SMOOTH",
"338 645 OFFCURVE",
"313 650 OFFCURVE",
"303 649 CURVE SMOOTH",
"222 637 OFFCURVE",
"38 566 OFFCURVE",
"38 519 CURVE SMOOTH",
"38 472 OFFCURVE",
"69 432 OFFCURVE",
"123 437 CURVE SMOOTH",
"354 457 OFFCURVE",
"551 576 OFFCURVE",
"787 576 CURVE SMOOTH",
"832 576 OFFCURVE",
"944 567 OFFCURVE",
"944 504 CURVE SMOOTH",
"944 463 OFFCURVE",
"910 427 OFFCURVE",
"881 408 CURVE SMOOTH",
"864 398 OFFCURVE",
"880 397 OFFCURVE",
"886 401 CURVE SMOOTH",
"892 405 OFFCURVE",
"908 422 OFFCURVE",
"915 425 CURVE SMOOTH",
"922 428 OFFCURVE",
"930 431 OFFCURVE",
"937 434 CURVE SMOOTH"
);
},
{
closed = 1;
nodes = (
"397 -72 OFFCURVE",
"402 -69 OFFCURVE",
"394 -67 CURVE SMOOTH",
"371 -61 OFFCURVE",
"364 -41 OFFCURVE",
"364 -19 CURVE SMOOTH",
"364 115 OFFCURVE",
"553 327 OFFCURVE",
"638 415 CURVE SMOOTH",
"643 420 OFFCURVE",
"651 428 OFFCURVE",
"660 436 CURVE SMOOTH",
"669 444 OFFCURVE",
"680 452 OFFCURVE",
"689 461 CURVE SMOOTH",
"702 473 OFFCURVE",
"732 497 OFFCURVE",
"732 517 CURVE SMOOTH",
"732 537 OFFCURVE",
"702 546 OFFCURVE",
"684 547 CURVE",
"664 532 OFFCURVE",
"602 500 OFFCURVE",
"628 471 CURVE",
"544 390 OFFCURVE",
"338 122 OFFCURVE",
"338 -4 CURVE SMOOTH",
"338 -32 OFFCURVE",
"351 -72 OFFCURVE",
"390 -72 CURVE SMOOTH"
);
}
);
width = 509;
},
{
hints = (
{
horizontal = 1;
place = "{420, 78}";
type = Stem;
},
{
horizontal = 1;
place = "{568, 45}";
type = Stem;
},
{
horizontal = 1;
place = "{645, -20}";
target = down;
type = TopGhost;
},
{
place = "{333, 36}";
type = Stem;
},
{
place = "{940, 44}";
type = Stem;
}
);
layerId = "10EE7422-BC27-45A8-8DF8-0D41623AEA15";
paths = (
{
closed = 1;
nodes = (
"987 492 OFFCURVE",
"978 498 OFFCURVE",
"960 535 CURVE",
"968 595 OFFCURVE",
"903 602 OFFCURVE",
"869 608 CURVE SMOOTH",
"729 632 OFFCURVE",
"472 553 OFFCURVE",
"381 532 CURVE SMOOTH",
"347 524 OFFCURVE",
"255 502 OFFCURVE",
"186 498 CURVE SMOOTH",
"75 492 OFFCURVE",
"7 515 OFFCURVE",
"163 578 CURVE SMOOTH",
"214 598 OFFCURVE",
"264 615 OFFCURVE",
"329 637 CURVE",
"324 649 OFFCURVE",
"297 649 OFFCURVE",
"272 645 CURVE SMOOTH",
"192 634 OFFCURVE",
"33 567 OFFCURVE",
"33 516 CURVE SMOOTH",
"33 469 OFFCURVE",
"54 415 OFFCURVE",
"113 420 CURVE SMOOTH",
"325 438 OFFCURVE",
"553 567 OFFCURVE",
"787 567 CURVE SMOOTH",
"830 567 OFFCURVE",
"939 561 OFFCURVE",
"939 501 CURVE SMOOTH",
"939 463 OFFCURVE",
"907 429 OFFCURVE",
"878 411 CURVE SMOOTH",
"866 403 OFFCURVE",
"872 394 OFFCURVE",
"875 395 CURVE SMOOTH",
"894 399 OFFCURVE",
"905 413 OFFCURVE",
"917 418 CURVE SMOOTH",
"946 431 OFFCURVE",
"976 436 OFFCURVE",
"982 468 CURVE SMOOTH"
);
},
{
closed = 1;
nodes = (
"749 535 OFFCURVE",
"701 548 OFFCURVE",
"683 549 CURVE",
"661 531 OFFCURVE",
"595 497 OFFCURVE",
"621 469 CURVE",
"540 392 OFFCURVE",
"333 132 OFFCURVE",
"333 6 CURVE SMOOTH",
"333 -23 OFFCURVE",
"356 -72 OFFCURVE",
"390 -72 CURVE SMOOTH",
"395 -72 OFFCURVE",
"399 -71 OFFCURVE",
"403 -69 CURVE",
"403 -61 LINE",
"374 -61 OFFCURVE",
"369 -40 OFFCURVE",
"369 -15 CURVE SMOOTH",
"369 115 OFFCURVE",
"567 320 OFFCURVE",
"653 408 CURVE SMOOTH",
"674 429 OFFCURVE",
"738 477 OFFCURVE",
"747 500 CURVE SMOOTH",
"748 504 OFFCURVE",
"749 508 OFFCURVE",
"749 512 CURVE SMOOTH"
);
}
);
width = 509;
}
);
note = T;
unicode = 0054;
},
{
glyphname = U;
lastChange = "2021-09-06 07:58:07 +0000";
layers = (
{
hints = (
{
horizontal = 1;
place = "{-22, 15}";
type = Stem;
},
{
horizontal = 1;
place = "{586, 21}";
target = up;
type = BottomGhost;
},
{
place = "{449, 25}";
type = Stem;
},
{
place = "{733, 110}";
type = Stem;
}
);
layerId = "E1C4CDDB-EFDF-468A-8ACC-65E2DFDE53DF";
paths = (
{
closed = 1;
nodes = (
"680 384 OFFCURVE",
"671 381 OFFCURVE",
"669 379 CURVE SMOOTH",
"616 319 OFFCURVE",
"550 252 OFFCURVE",
"493 196 CURVE SMOOTH",
"441 143 OFFCURVE",
"392 86 OFFCURVE",
"335 38 CURVE SMOOTH",
"319 25 OFFCURVE",
"291 3 OFFCURVE",
"268 -5 CURVE SMOOTH",
"242 -14 OFFCURVE",
"220 3 OFFCURVE",
"225 47 CURVE SMOOTH",
"241 197 OFFCURVE",
"383 333 OFFCURVE",
"493 460 CURVE SMOOTH",
"523 494 OFFCURVE",
"543 524 OFFCURVE",
"547 552 CURVE SMOOTH",
"553 590 OFFCURVE",
"498 607 OFFCURVE",
"466 607 CURVE SMOOTH",
"394 607 OFFCURVE",
"220 508 OFFCURVE",
"179 481 CURVE SMOOTH",
"82 417 OFFCURVE",
"11 341 OFFCURVE",
"4 271 CURVE SMOOTH",
"2 252 OFFCURVE",
"16 214 OFFCURVE",
"29 197 CURVE SMOOTH",
"31 194 OFFCURVE",
"47 183 OFFCURVE",
"37 200 CURVE SMOOTH",
"-5 273 OFFCURVE",
"106 400 OFFCURVE",
"209 468 CURVE SMOOTH",
"277 513 OFFCURVE",
"360 563 OFFCURVE",
"434 580 CURVE SMOOTH",
"456 584 OFFCURVE",
"505 598 OFFCURVE",
"491 558 CURVE SMOOTH",
"486 544 OFFCURVE",
"476 526 OFFCURVE",
"462 504 CURVE SMOOTH",
"397 402 OFFCURVE",
"315 310 OFFCURVE",
"248 209 CURVE SMOOTH",
"212 154 OFFCURVE",
"182 98 OFFCURVE",
"178 57 CURVE SMOOTH",
"174 20 OFFCURVE",
"212 -22 OFFCURVE",
"252 -22 CURVE SMOOTH",
"276 -22 OFFCURVE",
"304 -6 OFFCURVE",
"325 10 CURVE SMOOTH",
"406 70 OFFCURVE",
"598 276 OFFCURVE",
"673 374 CURVE SMOOTH"
);
},
{
closed = 1;
nodes = (
"507 -125 OFFCURVE",
"512 -121 OFFCURVE",
"505 -120 CURVE SMOOTH",
"481 -114 OFFCURVE",
"474 -94 OFFCURVE",
"474 -72 CURVE SMOOTH",
"474 62 OFFCURVE",
"663 274 OFFCURVE",
"748 362 CURVE SMOOTH",
"753 368 OFFCURVE",
"761 375 OFFCURVE",
"770 383 CURVE SMOOTH",
"779 391 OFFCURVE",
"790 400 OFFCURVE",
"800 409 CURVE SMOOTH",
"812 420 OFFCURVE",
"842 445 OFFCURVE",
"842 464 CURVE SMOOTH",
"842 485 OFFCURVE",
"812 494 OFFCURVE",
"794 495 CURVE",
"775 480 OFFCURVE",
"712 447 OFFCURVE",
"738 419 CURVE",
"654 337 OFFCURVE",
"449 69 OFFCURVE",
"449 -56 CURVE SMOOTH",
"449 -84 OFFCURVE",
"462 -125 OFFCURVE",
"500 -125 CURVE SMOOTH"
);
}
);
width = 594;
},
{
hints = (
{
horizontal = 1;
place = "{-24, 24}";
type = Stem;
},
{
horizontal = 1;
place = "{575, 32}";
type = Stem;
},
{
place = "{443, 36}";
type = Stem;
}
);
layerId = "10EE7422-BC27-45A8-8DF8-0D41623AEA15";
paths = (
{
closed = 1;
nodes = (
"859 483 OFFCURVE",
"811 496 OFFCURVE",
"793 497 CURVE",
"771 479 OFFCURVE",
"705 445 OFFCURVE",
"731 417 CURVE",
"650 340 OFFCURVE",
"443 80 OFFCURVE",
"443 -46 CURVE SMOOTH",
"443 -75 OFFCURVE",
"466 -124 OFFCURVE",
"500 -124 CURVE SMOOTH",
"505 -124 OFFCURVE",
"509 -123 OFFCURVE",
"513 -121 CURVE",
"513 -113 LINE",
"484 -113 OFFCURVE",
"478 -92 OFFCURVE",
"478 -67 CURVE SMOOTH",
"478 63 OFFCURVE",
"677 268 OFFCURVE",
"763 356 CURVE SMOOTH",
"784 377 OFFCURVE",
"848 425 OFFCURVE",
"856 448 CURVE SMOOTH",
"858 452 OFFCURVE",
"859 456 OFFCURVE",
"859 460 CURVE SMOOTH"
);
},
{
closed = 1;
nodes = (
"695 404 OFFCURVE",
"685 402 OFFCURVE",
"682 398 CURVE SMOOTH",
"622 329 OFFCURVE",
"555 264 OFFCURVE",
"490 200 CURVE SMOOTH",
"437 148 OFFCURVE",
"389 92 OFFCURVE",
"332 45 CURVE SMOOTH",
"300 19 OFFCURVE",
"223 -39 OFFCURVE",
"232 42 CURVE SMOOTH",
"258 284 OFFCURVE",
"541 426 OFFCURVE",
"559 543 CURVE SMOOTH",
"565 583 OFFCURVE",
"488 607 OFFCURVE",
"454 607 CURVE SMOOTH",
"400 607 OFFCURVE",
"216 509 OFFCURVE",
"176 482 CURVE SMOOTH",
"79 418 OFFCURVE",
"7 342 OFFCURVE",
"-1 271 CURVE SMOOTH",
"-4 249 OFFCURVE",
"18 202 OFFCURVE",
"33 189 CURVE SMOOTH",
"42 182 OFFCURVE",
"49 189 OFFCURVE",
"42 197 CURVE SMOOTH",
"-16 264 OFFCURVE",
"166 423 OFFCURVE",
"225 462 CURVE SMOOTH",
"308 516 OFFCURVE",
"421 577 OFFCURVE",
"480 575 CURVE SMOOTH",
"517 574 OFFCURVE",
"428 457 OFFCURVE",
"351 356 CURVE SMOOTH",
"294 282 OFFCURVE",
"182 145 OFFCURVE",
"173 60 CURVE SMOOTH",
"168 20 OFFCURVE",
"209 -24 OFFCURVE",
"252 -24 CURVE SMOOTH",
"278 -24 OFFCURVE",
"307 -7 OFFCURVE",
"328 9 CURVE SMOOTH",
"418 75 OFFCURVE",
"640 321 OFFCURVE",
"691 399 CURVE SMOOTH"
);
}
);
width = 594;
}
);
note = U;
unicode = 0055;
},
{
glyphname = V;
lastChange = "2021-09-06 07:58:07 +0000";
layers = (
{
hints = (
{
horizontal = 1;
place = "{585, 25}";
type = Stem;
},
{
horizontal = 1;
place = "{622, 37}";
type = Stem;
}
);
layerId = "E1C4CDDB-EFDF-468A-8ACC-65E2DFDE53DF";
paths = (
{
closed = 1;
nodes = (
"100 523 OFFCURVE",
"107 527 OFFCURVE",
"109 532 CURVE SMOOTH",
"126 568 OFFCURVE",
"144 585 OFFCURVE",
"167 585 CURVE SMOOTH",
"197 585 OFFCURVE",
"197 534 OFFCURVE",
"195 514 CURVE SMOOTH",
"180 380 OFFCURVE",
"123 221 OFFCURVE",
"65 107 CURVE SMOOTH",
"50 79 OFFCURVE",
"35 51 OFFCURVE",
"23 22 CURVE SMOOTH",
"18 10 OFFCURVE",
"14 -2 OFFCURVE",
"17 -15 CURVE SMOOTH",
"23 -48 OFFCURVE",
"40 -50 OFFCURVE",
"50 -51 CURVE SMOOTH",
"57 -52 OFFCURVE",
"65 -54 OFFCURVE",
"72 -57 CURVE",
"80 -38 OFFCURVE",
"99 -14 OFFCURVE",
"115 6 CURVE SMOOTH",
"257 187 OFFCURVE",
"556 622 OFFCURVE",
"773 622 CURVE SMOOTH",
"809 622 OFFCURVE",
"873 611 OFFCURVE",
"884 567 CURVE SMOOTH",
"886 560 OFFCURVE",
"895 560 OFFCURVE",
"892 569 CURVE SMOOTH",
"875 630 OFFCURVE",
"796 659 OFFCURVE",
"738 659 CURVE SMOOTH",
"642 659 OFFCURVE",
"561 600 OFFCURVE",
"492 523 CURVE SMOOTH",
"359 377 OFFCURVE",
"256 202 OFFCURVE",
"125 52 CURVE SMOOTH",
"105 30 OFFCURVE",
"100 31 OFFCURVE",
"94 28 CURVE SMOOTH",
"79 22 OFFCURVE",
"89 54 OFFCURVE",
"92 61 CURVE SMOOTH",
"112 113 OFFCURVE",
"158 219 OFFCURVE",
"187 309 CURVE SMOOTH",
"216 399 OFFCURVE",
"236 489 OFFCURVE",
"226 543 CURVE SMOOTH",
"223 557 OFFCURVE",
"218 569 OFFCURVE",
"206 578 CURVE SMOOTH",
"195 586 OFFCURVE",
"151 610 OFFCURVE",
"140 610 CURVE SMOOTH",
"131 610 OFFCURVE",
"123 601 OFFCURVE",
"118 586 CURVE SMOOTH",
"112 571 OFFCURVE",
"108 554 OFFCURVE",
"105 544 CURVE SMOOTH",
"104 540 OFFCURVE",
"102 536 OFFCURVE",
"101 533 CURVE"
);
}
);
width = 289;
},
{
hints = (
{
horizontal = 1;
place = "{577, 34}";
type = Stem;
}
);
layerId = "10EE7422-BC27-45A8-8DF8-0D41623AEA15";
paths = (
{
closed = 1;
nodes = (
"889 626 OFFCURVE",
"800 659 OFFCURVE",
"738 659 CURVE SMOOTH",
"541 659 OFFCURVE",
"411 422 OFFCURVE",
"310 287 CURVE SMOOTH",
"289 260 OFFCURVE",
"128 50 OFFCURVE",
"103 50 CURVE SMOOTH",
"100 50 OFFCURVE",
"100 52 OFFCURVE",
"100 54 CURVE",
"98 62 OFFCURVE",
"104 74 OFFCURVE",
"106 80 CURVE SMOOTH",
"146 182 OFFCURVE",
"252 431 OFFCURVE",
"230 541 CURVE SMOOTH",
"228 555 OFFCURVE",
"223 568 OFFCURVE",
"209 578 CURVE SMOOTH",
"198 586 OFFCURVE",
"153 611 OFFCURVE",
"140 611 CURVE SMOOTH",
"114 611 OFFCURVE",
"107 562 OFFCURVE",
"100 542 CURVE SMOOTH",
"98 534 OFFCURVE",
"95 529 OFFCURVE",
"94 521 CURVE SMOOTH",
"92 512 OFFCURVE",
"99 516 OFFCURVE",
"103 523 CURVE SMOOTH",
"115 543 OFFCURVE",
"140 577 OFFCURVE",
"167 577 CURVE SMOOTH",
"194 577 OFFCURVE",
"192 530 OFFCURVE",
"190 512 CURVE SMOOTH",
"175 381 OFFCURVE",
"100 223 OFFCURVE",
"42 111 CURVE SMOOTH",
"28 83 OFFCURVE",
"13 55 OFFCURVE",
"0 26 CURVE SMOOTH",
"-5 14 OFFCURVE",
"-9 1 OFFCURVE",
"-6 -13 CURVE SMOOTH",
"4 -62 OFFCURVE",
"43 -43 OFFCURVE",
"74 -58 CURVE",
"91 -37 OFFCURVE",
"101 -15 OFFCURVE",
"119 6 CURVE SMOOTH",
"179 78 OFFCURVE",
"237 150 OFFCURVE",
"295 223 CURVE SMOOTH",
"408 366 OFFCURVE",
"576 584 OFFCURVE",
"753 608 CURVE SMOOTH",
"767 610 OFFCURVE",
"781 611 OFFCURVE",
"795 611 CURVE SMOOTH",
"833 611 OFFCURVE",
"880 602 OFFCURVE",
"885 553 CURVE",
"886 550 OFFCURVE",
"889 545 OFFCURVE",
"893 545 CURVE SMOOTH",
"897 545 OFFCURVE",
"898 549 OFFCURVE",
"898 552 CURVE SMOOTH"
);
}
);
width = 289;
}
);
note = V;
unicode = 0056;
},
{
glyphname = W;
lastChange = "2021-09-06 07:58:07 +0000";
layers = (
{
hints = (
{
horizontal = 1;
place = "{-29, 22}";
type = Stem;
},
{
horizontal = 1;
place = "{585, 22}";
type = Stem;
},
{
place = "{4, 22}";
type = Stem;
},
{
place = "{178, 44}";
type = Stem;
},
{
place = "{494, 60}";
type = Stem;
},
{
place = "{597, 31}";
type = Stem;
},
{
place = "{874, 53}";
type = Stem;
}
);
layerId = "E1C4CDDB-EFDF-468A-8ACC-65E2DFDE53DF";
paths = (
{
closed = 1;
nodes = (
"884 -24 OFFCURVE",
"929 66 OFFCURVE",
"929 163 CURVE SMOOTH",
"929 175 OFFCURVE",
"928 186 OFFCURVE",
"927 198 CURVE SMOOTH",
"925 225 OFFCURVE",
"911 259 OFFCURVE",
"893 292 CURVE SMOOTH",
"876 326 OFFCURVE",
"856 358 OFFCURVE",
"842 383 CURVE SMOOTH",
"833 399 OFFCURVE",
"826 416 OFFCURVE",
"817 432 CURVE SMOOTH",
"813 440 OFFCURVE",
"806 441 OFFCURVE",
"810 431 CURVE SMOOTH",
"845 349 OFFCURVE",
"874 229 OFFCURVE",
"874 145 CURVE SMOOTH",
"874 79 OFFCURVE",
"854 -5 OFFCURVE",
"771 -5 CURVE SMOOTH",
"666 -5 OFFCURVE",
"628 134 OFFCURVE",
"628 217 CURVE SMOOTH",
"628 270 OFFCURVE",
"639 317 OFFCURVE",
"674 357 CURVE SMOOTH",
"679 363 OFFCURVE",
"682 367 OFFCURVE",
"682 373 CURVE SMOOTH",
"682 381 OFFCURVE",
"675 388 OFFCURVE",
"666 388 CURVE SMOOTH",
"647 388 OFFCURVE",
"613 357 OFFCURVE",
"613 336 CURVE SMOOTH",
"613 334 OFFCURVE",
"614 334 OFFCURVE",
"619 330 CURVE",
"539 247 OFFCURVE",
"464 159 OFFCURVE",
"379 77 CURVE SMOOTH",
"358 57 OFFCURVE",
"201 -82 OFFCURVE",
"224 49 CURVE SMOOTH",
"257 234 OFFCURVE",
"381 331 OFFCURVE",
"499 468 CURVE SMOOTH",
"526 500 OFFCURVE",
"585 549 OFFCURVE",
"532 583 CURVE SMOOTH",
"509 598 OFFCURVE",
"474 607 OFFCURVE",
"454 607 CURVE SMOOTH",
"404 607 OFFCURVE",
"228 514 OFFCURVE",
"179 481 CURVE SMOOTH",
"110 435 OFFCURVE",
"4 347 OFFCURVE",
"4 267 CURVE SMOOTH",
"4 255 OFFCURVE",
"15 214 OFFCURVE",
"28 197 CURVE SMOOTH",
"32 192 OFFCURVE",
"42 185 OFFCURVE",
"34 199 CURVE SMOOTH",
"30 206 OFFCURVE",
"26 214 OFFCURVE",
"26 227 CURVE SMOOTH",
"26 305 OFFCURVE",
"104 390 OFFCURVE",
"222 469 CURVE SMOOTH",
"280 507 OFFCURVE",
"408 585 OFFCURVE",
"480 585 CURVE SMOOTH",
"487 585 OFFCURVE",
"493 580 OFFCURVE",
"493 572 CURVE SMOOTH",
"493 555 OFFCURVE",
"472 522 OFFCURVE",
"443 483 CURVE SMOOTH",
"413 442 OFFCURVE",
"373 391 OFFCURVE",
"334 339 CURVE SMOOTH",
"255 232 OFFCURVE",
"177 118 OFFCURVE",
"177 49 CURVE SMOOTH",
"177 8 OFFCURVE",
"221 -29 OFFCURVE",
"261 -29 CURVE SMOOTH",
"291 -29 OFFCURVE",
"322 -11 OFFCURVE",
"345 8 CURVE SMOOTH",
"390 48 OFFCURVE",
"435 96 OFFCURVE",
"478 145 CURVE SMOOTH",
"521 195 OFFCURVE",
"563 246 OFFCURVE",
"617 313 CURVE",
"601 258 OFFCURVE",
"597 225 OFFCURVE",
"597 192 CURVE SMOOTH",
"597 136 OFFCURVE",
"610 77 OFFCURVE",
"648 36 CURVE SMOOTH",
"682 0 OFFCURVE",
"731 -24 OFFCURVE",
"781 -24 CURVE SMOOTH"
);
}
);
width = 916;
},
{
hints = (
{
horizontal = 1;
place = "{-24, 35}";
type = Stem;
},
{
horizontal = 1;
place = "{575, 32}";
type = Stem;
},
{
place = "{-1, 32}";
type = Stem;
},
{
place = "{488, 72}";
type = Stem;
},
{
place = "{592, 41}";
type = Stem;
},
{
place = "{869, 65}";
type = Stem;
}
);
layerId = "10EE7422-BC27-45A8-8DF8-0D41623AEA15";
paths = (
{
closed = 1;
nodes = (
"934 177 OFFCURVE",
"933 188 OFFCURVE",
"932 200 CURVE SMOOTH",
"927 255 OFFCURVE",
"874 335 OFFCURVE",
"847 384 CURVE SMOOTH",
"835 405 OFFCURVE",
"824 426 OFFCURVE",
"813 447 CURVE SMOOTH",
"811 450 OFFCURVE",
"809 452 OFFCURVE",
"806 452 CURVE SMOOTH",
"802 452 OFFCURVE",
"798 448 OFFCURVE",
"798 444 CURVE SMOOTH",
"798 443 OFFCURVE",
"799 442 OFFCURVE",
"799 441 CURVE",
"836 361 OFFCURVE",
"869 234 OFFCURVE",
"869 147 CURVE SMOOTH",
"869 82 OFFCURVE",
"852 11 OFFCURVE",
"774 11 CURVE SMOOTH",
"674 11 OFFCURVE",
"633 136 OFFCURVE",
"633 219 CURVE SMOOTH",
"633 270 OFFCURVE",
"644 314 OFFCURVE",
"678 353 CURVE SMOOTH",
"683 359 OFFCURVE",
"687 364 OFFCURVE",
"687 372 CURVE SMOOTH",
"687 383 OFFCURVE",
"677 391 OFFCURVE",
"666 391 CURVE SMOOTH",
"643 391 OFFCURVE",
"617 357 OFFCURVE",
"617 335 CURVE SMOOTH",
"617 332 OFFCURVE",
"617 330 OFFCURVE",
"620 328 CURVE",
"575 287 OFFCURVE",
"533 242 OFFCURVE",
"490 200 CURVE SMOOTH",
"447 157 OFFCURVE",
"308 0 OFFCURVE",
"252 0 CURVE SMOOTH",
"235 0 OFFCURVE",
"231 16 OFFCURVE",
"231 30 CURVE SMOOTH",
"231 34 OFFCURVE",
"231 38 OFFCURVE",
"232 42 CURVE SMOOTH",
"267 297 OFFCURVE",
"531 411 OFFCURVE",
"559 543 CURVE SMOOTH",
"559 544 OFFCURVE",
"559 546 OFFCURVE",
"559 547 CURVE SMOOTH",
"559 586 OFFCURVE",
"485 607 OFFCURVE",
"454 607 CURVE SMOOTH",
"402 607 OFFCURVE",
"225 514 OFFCURVE",
"176 482 CURVE SMOOTH",
"109 438 OFFCURVE",
"3 358 OFFCURVE",
"-1 271 CURVE SMOOTH",
"-1 267 LINE SMOOTH",
"-2 251 OFFCURVE",
"21 186 OFFCURVE",
"40 186 CURVE SMOOTH",
"43 186 OFFCURVE",
"45 188 OFFCURVE",
"45 191 CURVE SMOOTH",
"45 197 OFFCURVE",
"31 205 OFFCURVE",
"31 228 CURVE SMOOTH",
"31 302 OFFCURVE",
"166 423 OFFCURVE",
"225 462 CURVE SMOOTH",
"284 500 OFFCURVE",
"410 575 OFFCURVE",
"480 575 CURVE SMOOTH",
"485 575 OFFCURVE",
"488 573 OFFCURVE",
"488 568 CURVE SMOOTH",
"488 510 OFFCURVE",
"172 192 OFFCURVE",
"172 53 CURVE SMOOTH",
"172 9 OFFCURVE",
"219 -29 OFFCURVE",
"261 -29 CURVE SMOOTH",
"292 -29 OFFCURVE",
"325 -11 OFFCURVE",
"348 9 CURVE SMOOTH",
"440 88 OFFCURVE",
"528 197 OFFCURVE",
"605 291 CURVE",
"596 259 OFFCURVE",
"592 226 OFFCURVE",
"592 193 CURVE SMOOTH",
"592 138 OFFCURVE",
"605 78 OFFCURVE",
"644 37 CURVE SMOOTH",
"679 0 OFFCURVE",
"729 -24 OFFCURVE",
"781 -24 CURVE SMOOTH",
"888 -24 OFFCURVE",
"934 69 OFFCURVE",
"934 165 CURVE SMOOTH"
);
}
);
width = 916;
}
);
note = W;
unicode = 0057;
},
{
glyphname = X;
lastChange = "2021-09-06 07:58:07 +0000";
layers = (
{
hints = (
{
horizontal = 1;
place = "{-23, 25}";
type = Stem;
},
{
horizontal = 1;
place = "{652, -20}";
target = down;
type = TopGhost;
}
);
layerId = "E1C4CDDB-EFDF-468A-8ACC-65E2DFDE53DF";
paths = (
{
closed = 1;
nodes = (
"635 625 OFFCURVE",
"650 617 OFFCURVE",
"646 615 CURVE SMOOTH",
"537 555 OFFCURVE",
"420 460 OFFCURVE",
"301 359 CURVE",
"297 394 OFFCURVE",
"294 423 OFFCURVE",
"289 451 CURVE SMOOTH",
"284 480 OFFCURVE",
"278 507 OFFCURVE",
"268 528 CURVE SMOOTH",
"250 569 OFFCURVE",
"220 588 OFFCURVE",
"163 548 CURVE SMOOTH",
"152 541 OFFCURVE",
"120 507 OFFCURVE",
"115 488 CURVE SMOOTH",
"113 482 OFFCURVE",
"122 481 OFFCURVE",
"125 492 CURVE SMOOTH",
"133 517 OFFCURVE",
"160 532 OFFCURVE",
"177 529 CURVE SMOOTH",
"239 517 OFFCURVE",
"260 414 OFFCURVE",
"272 336 CURVE",
"130 209 OFFCURVE",
"22 73 OFFCURVE",
"11 -18 CURVE SMOOTH",
"6 -58 OFFCURVE",
"76 -92 OFFCURVE",
"106 -105 CURVE",
"108 -107 OFFCURVE",
"112 -102 OFFCURVE",
"109 -101 CURVE SMOOTH",
"74 -85 OFFCURVE",
"41 -46 OFFCURVE",
"45 -9 CURVE SMOOTH",
"55 74 OFFCURVE",
"144 198 OFFCURVE",
"276 310 CURVE",
"279 288 LINE SMOOTH",
"282 266 OFFCURVE",
"290 220 OFFCURVE",
"294 178 CURVE SMOOTH",
"298 136 OFFCURVE",
"304 90 OFFCURVE",
"315 52 CURVE SMOOTH",
"337 -24 OFFCURVE",
"397 -42 OFFCURVE",
"449 -4 CURVE",
"461 -1 OFFCURVE",
"469 0 OFFCURVE",
"473 0 CURVE SMOOTH",
"507 2 OFFCURVE",
"505 43 OFFCURVE",
"507 69 CURVE SMOOTH",
"507 78 OFFCURVE",
"512 87 OFFCURVE",
"513 96 CURVE SMOOTH",
"516 113 OFFCURVE",
"505 105 OFFCURVE",
"503 94 CURVE SMOOTH",
"497 68 OFFCURVE",
"489 31 OFFCURVE",
"461 12 CURVE SMOOTH",
"404 -26 OFFCURVE",
"367 47 OFFCURVE",
"344 122 CURVE SMOOTH",
"325 187 OFFCURVE",
"312 263 OFFCURVE",
"304 331 CURVE",
"459 454 OFFCURVE",
"632 574 OFFCURVE",
"761 621 CURVE SMOOTH",
"771 625 OFFCURVE",
"761 635 OFFCURVE",
"750 644 CURVE SMOOTH",
"735 657 OFFCURVE",
"728 656 OFFCURVE",
"720 652 CURVE SMOOTH",
"698 644 OFFCURVE",
"667 634 OFFCURVE",
"646 628 CURVE SMOOTH"
);
}
);
width = 524;
},
{
hints = (
{
horizontal = 1;
place = "{-34, 44}";
type = Stem;
},
{
horizontal = 1;
place = "{653, -20}";
target = down;
type = TopGhost;
}
);
layerId = "10EE7422-BC27-45A8-8DF8-0D41623AEA15";
paths = (
{
closed = 1;
nodes = (
"800 614 OFFCURVE",
"740 662 OFFCURVE",
"718 652 CURVE SMOOTH",
"699 644 OFFCURVE",
"674 629 OFFCURVE",
"637 628 CURVE SMOOTH",
"627 627 OFFCURVE",
"622 622 OFFCURVE",
"639 621 CURVE",
"643 620 OFFCURVE",
"646 616 OFFCURVE",
"644 615 CURVE SMOOTH",
"534 556 OFFCURVE",
"417 461 OFFCURVE",
"305 368 CURVE",
"293 468 OFFCURVE",
"280 631 OFFCURVE",
"160 549 CURVE SMOOTH",
"149 541 OFFCURVE",
"115 507 OFFCURVE",
"110 486 CURVE SMOOTH",
"107 474 OFFCURVE",
"124 470 OFFCURVE",
"130 488 CURVE SMOOTH",
"137 510 OFFCURVE",
"150 517 OFFCURVE",
"164 515 CURVE SMOOTH",
"222 504 OFFCURVE",
"250 406 OFFCURVE",
"261 330 CURVE",
"121 207 OFFCURVE",
"12 76 OFFCURVE",
"1 -16 CURVE SMOOTH",
"-5 -59 OFFCURVE",
"67 -89 OFFCURVE",
"104 -105 CURVE SMOOTH",
"112 -109 OFFCURVE",
"120 -95 OFFCURVE",
"111 -91 CURVE SMOOTH",
"77 -77 OFFCURVE",
"46 -40 OFFCURVE",
"50 -6 CURVE SMOOTH",
"60 74 OFFCURVE",
"142 189 OFFCURVE",
"267 293 CURVE",
"269 281 LINE SMOOTH",
"281 191 OFFCURVE",
"277 -139 OFFCURVE",
"452 0 CURVE",
"494 10 OFFCURVE",
"477 -4 OFFCURVE",
"493 10 CURVE SMOOTH",
"515 30 OFFCURVE",
"510 48 OFFCURVE",
"512 71 CURVE SMOOTH",
"512 81 OFFCURVE",
"520 94 OFFCURVE",
"518 106 CURVE SMOOTH",
"518 108 OFFCURVE",
"510 108 OFFCURVE",
"507 97 CURVE SMOOTH",
"502 72 OFFCURVE",
"485 37 OFFCURVE",
"458 19 CURVE SMOOTH",
"358 -46 OFFCURVE",
"316 268 OFFCURVE",
"310 320 CURVE SMOOTH",
"309 328 LINE",
"462 448 OFFCURVE",
"646 557 OFFCURVE",
"774 604 CURVE SMOOTH"
);
}
);
width = 524;
}
);
note = X;
unicode = 0058;
},
{
glyphname = Y;
lastChange = "2021-09-06 07:58:07 +0000";
layers = (
{
hints = (
{
horizontal = 1;
place = "{-20, 14}";
type = Stem;
},
{
horizontal = 1;
place = "{607, -20}";
target = down;
type = TopGhost;
},
{
place = "{-8, 30}";
type = Stem;
},
{
place = "{669, 41}";
type = Stem;
}
);
layerId = "E1C4CDDB-EFDF-468A-8ACC-65E2DFDE53DF";
paths = (
{
closed = 1;
nodes = (
"669 373 OFFCURVE",
"664 377 OFFCURVE",
"660 371 CURVE SMOOTH",
"657 367 OFFCURVE",
"652 358 OFFCURVE",
"647 354 CURVE",
"635 360 OFFCURVE",
"613 366 OFFCURVE",
"598 363 CURVE SMOOTH",
"590 362 OFFCURVE",
"581 357 OFFCURVE",
"596 357 CURVE SMOOTH",
"611 357 OFFCURVE",
"624 354 OFFCURVE",
"640 345 CURVE",
"589 291 OFFCURVE",
"541 244 OFFCURVE",
"494 197 CURVE SMOOTH",
"441 145 OFFCURVE",
"393 88 OFFCURVE",
"335 40 CURVE SMOOTH",
"320 27 OFFCURVE",
"292 5 OFFCURVE",
"269 -3 CURVE SMOOTH",
"243 -12 OFFCURVE",
"222 -3 OFFCURVE",
"227 41 CURVE SMOOTH",
"240 154 OFFCURVE",
"319 255 OFFCURVE",
"398 340 CURVE SMOOTH",
"437 383 OFFCURVE",
"477 422 OFFCURVE",
"507 458 CURVE SMOOTH",
"538 494 OFFCURVE",
"558 526 OFFCURVE",
"563 555 CURVE SMOOTH",
"568 594 OFFCURVE",
"487 607 OFFCURVE",
"455 607 CURVE SMOOTH",
"402 607 OFFCURVE",
"220 509 OFFCURVE",
"179 482 CURVE SMOOTH",
"82 417 OFFCURVE",
"12 341 OFFCURVE",
"4 272 CURVE SMOOTH",
"2 253 OFFCURVE",
"20 209 OFFCURVE",
"34 193 CURVE SMOOTH",
"38 188 OFFCURVE",
"46 189 OFFCURVE",
"39 199 CURVE SMOOTH",
"-9 271 OFFCURVE",
"148 424 OFFCURVE",
"207 463 CURVE SMOOTH",
"290 517 OFFCURVE",
"428 588 OFFCURVE",
"489 587 CURVE SMOOTH",
"501 587 OFFCURVE",
"514 576 OFFCURVE",
"507 558 CURVE SMOOTH",
"502 545 OFFCURVE",
"491 526 OFFCURVE",
"476 505 CURVE SMOOTH",
"447 462 OFFCURVE",
"396 405 OFFCURVE",
"357 354 CURVE SMOOTH",
"305 285 OFFCURVE",
"196 143 OFFCURVE",
"187 58 CURVE SMOOTH",
"183 20 OFFCURVE",
"212 -20 OFFCURVE",
"253 -20 CURVE SMOOTH",
"277 -20 OFFCURVE",
"304 -4 OFFCURVE",
"326 12 CURVE SMOOTH",
"397 65 OFFCURVE",
"555 230 OFFCURVE",
"645 341 CURVE",
"709 276 OFFCURVE",
"640 76 OFFCURVE",
"512 -90 CURVE SMOOTH",
"421 -208 OFFCURVE",
"278 -336 OFFCURVE",
"120 -340 CURVE SMOOTH",
"84 -341 OFFCURVE",
"56 -335 OFFCURVE",
"42 -325 CURVE SMOOTH",
"-3 -292 OFFCURVE",
"23 -228 OFFCURVE",
"140 -160 CURVE SMOOTH",
"237 -104 OFFCURVE",
"419 -61 OFFCURVE",
"516 -53 CURVE SMOOTH",
"528 -52 OFFCURVE",
"526 -45 OFFCURVE",
"513 -45 CURVE SMOOTH",
"384 -45 OFFCURVE",
"210 -88 OFFCURVE",
"117 -140 CURVE SMOOTH",
"-8 -209 OFFCURVE",
"-29 -282 OFFCURVE",
"8 -320 CURVE SMOOTH",
"17 -329 OFFCURVE",
"26 -336 OFFCURVE",
"36 -341 CURVE SMOOTH",
"66 -358 OFFCURVE",
"115 -360 OFFCURVE",
"155 -356 CURVE SMOOTH",
"285 -343 OFFCURVE",
"435 -250 OFFCURVE",
"542 -126 CURVE SMOOTH",
"682 36 OFFCURVE",
"776 248 OFFCURVE",
"652 351 CURVE",
"659 359 OFFCURVE",
"661 362 OFFCURVE",
"666 369 CURVE SMOOTH"
);
}
);
width = 706;
},
{
hints = (
{
horizontal = 1;
place = "{-351, 17}";
type = Stem;
},
{
horizontal = 1;
place = "{-50, 11}";
type = Stem;
},
{
horizontal = 1;
place = "{-24, 24}";
type = Stem;
},
{
horizontal = 1;
place = "{350, 16}";
type = Stem;
},
{
horizontal = 1;
place = "{575, 32}";
type = Stem;
},
{
place = "{-11, 38}";
type = Stem;
},
{
place = "{662, 54}";
type = Stem;
}
);
layerId = "10EE7422-BC27-45A8-8DF8-0D41623AEA15";
paths = (
{
closed = 1;
nodes = (
"695 404 OFFCURVE",
"686 402 OFFCURVE",
"682 398 CURVE SMOOTH",
"671 384 OFFCURVE",
"658 371 OFFCURVE",
"646 358 CURVE",
"636 363 OFFCURVE",
"623 365 OFFCURVE",
"614 366 CURVE SMOOTH",
"584 368 OFFCURVE",
"568 350 OFFCURVE",
"596 350 CURVE SMOOTH",
"611 350 OFFCURVE",
"622 347 OFFCURVE",
"632 342 CURVE",
"586 293 OFFCURVE",
"537 246 OFFCURVE",
"490 200 CURVE SMOOTH",
"438 148 OFFCURVE",
"389 92 OFFCURVE",
"332 45 CURVE SMOOTH",
"300 19 OFFCURVE",
"223 -39 OFFCURVE",
"232 42 CURVE SMOOTH",
"256 261 OFFCURVE",
"562 424 OFFCURVE",
"579 541 CURVE SMOOTH",
"586 581 OFFCURVE",
"489 607 OFFCURVE",
"455 607 CURVE SMOOTH",
"400 607 OFFCURVE",
"217 509 OFFCURVE",
"176 482 CURVE SMOOTH",
"79 418 OFFCURVE",
"7 342 OFFCURVE",
"-1 271 CURVE SMOOTH",
"-3 249 OFFCURVE",
"18 202 OFFCURVE",
"33 189 CURVE SMOOTH",
"42 182 OFFCURVE",
"50 189 OFFCURVE",
"42 197 CURVE SMOOTH",
"-15 264 OFFCURVE",
"166 423 OFFCURVE",
"225 462 CURVE SMOOTH",
"309 516 OFFCURVE",
"422 577 OFFCURVE",
"480 575 CURVE SMOOTH",
"517 574 OFFCURVE",
"422 457 OFFCURVE",
"344 356 CURVE SMOOTH",
"288 282 OFFCURVE",
"182 145 OFFCURVE",
"173 60 CURVE SMOOTH",
"169 20 OFFCURVE",
"209 -24 OFFCURVE",
"253 -24 CURVE SMOOTH",
"278 -24 OFFCURVE",
"307 -7 OFFCURVE",
"329 9 CURVE SMOOTH",
"400 62 OFFCURVE",
"556 229 OFFCURVE",
"642 334 CURVE",
"730 247 OFFCURVE",
"507 -163 OFFCURVE",
"281 -285 CURVE SMOOTH",
"75 -397 OFFCURVE",
"-96 -298 OFFCURVE",
"143 -161 CURVE SMOOTH",
"239 -106 OFFCURVE",
"416 -58 OFFCURVE",
"512 -50 CURVE SMOOTH",
"522 -49 OFFCURVE",
"523 -39 OFFCURVE",
"513 -39 CURVE SMOOTH",
"384 -38 OFFCURVE",
"209 -81 OFFCURVE",
"114 -133 CURVE SMOOTH",
"-133 -269 OFFCURVE",
"15 -419 OFFCURVE",
"300 -317 CURVE SMOOTH",
"545 -229 OFFCURVE",
"842 160 OFFCURVE",
"660 348 CURVE SMOOTH",
"659 349 OFFCURVE",
"658 350 OFFCURVE",
"656 351 CURVE",
"672 370 OFFCURVE",
"684 387 OFFCURVE",
"692 399 CURVE SMOOTH"
);
}
);
width = 706;
}
);
note = Y;
unicode = 0059;
},
{
glyphname = Z;
lastChange = "2021-09-06 07:58:07 +0000";
layers = (
{
hints = (
{
horizontal = 1;
place = "{-95, 50}";
type = Stem;
},
{
horizontal = 1;
place = "{252, 35}";
type = Stem;
},
{
horizontal = 1;
place = "{515, 39}";
type = Stem;
}
);
layerId = "E1C4CDDB-EFDF-468A-8ACC-65E2DFDE53DF";
paths = (
{
closed = 1;
nodes = (
"725 504 OFFCURVE",
"718 505 OFFCURVE",
"702 507 CURVE",
"699 533 OFFCURVE",
"689 532 OFFCURVE",
"665 539 CURVE SMOOTH",
"543 571 OFFCURVE",
"217 552 OFFCURVE",
"196 483 CURVE SMOOTH",
"193 474 OFFCURVE",
"197 443 OFFCURVE",
"208 443 CURVE SMOOTH",
"221 443 OFFCURVE",
"241 445 OFFCURVE",
"262 449 CURVE SMOOTH",
"266 450 OFFCURVE",
"270 455 OFFCURVE",
"263 455 CURVE SMOOTH",
"258 455 OFFCURVE",
"253 455 OFFCURVE",
"244 456 CURVE SMOOTH",
"211 460 OFFCURVE",
"252 474 OFFCURVE",
"265 478 CURVE SMOOTH",
"364 509 OFFCURVE",
"547 533 OFFCURVE",
"676 496 CURVE",
"625 470 OFFCURVE",
"548 422 OFFCURVE",
"491 380 CURVE SMOOTH",
"435 338 OFFCURVE",
"384 298 OFFCURVE",
"365 285 CURVE SMOOTH",
"352 275 OFFCURVE",
"347 273 OFFCURVE",
"333 263 CURVE",
"286 245 OFFCURVE",
"234 232 OFFCURVE",
"196 221 CURVE SMOOTH",
"160 212 OFFCURVE",
"125 210 OFFCURVE",
"107 209 CURVE SMOOTH",
"100 209 OFFCURVE",
"90 202 OFFCURVE",
"107 200 CURVE SMOOTH",
"142 198 OFFCURVE",
"198 204 OFFCURVE",
"283 221 CURVE",
"217 166 OFFCURVE",
"176 127 OFFCURVE",
"156 101 CURVE",
"113 102 OFFCURVE",
"64 65 OFFCURVE",
"57 13 CURVE SMOOTH",
"56 5 OFFCURVE",
"60 -7 OFFCURVE",
"71 -18 CURVE",
"73 -21 OFFCURVE",
"80 -18 OFFCURVE",
"75 -12 CURVE SMOOTH",
"61 4 OFFCURVE",
"65 19 OFFCURVE",
"77 28 CURVE SMOOTH",
"83 33 OFFCURVE",
"95 44 OFFCURVE",
"115 51 CURVE",
"101 29 OFFCURVE",
"90 10 OFFCURVE",
"86 1 CURVE SMOOTH",
"84 -2 OFFCURVE",
"89 -6 OFFCURVE",
"91 -2 CURVE SMOOTH",
"97 10 OFFCURVE",
"116 40 OFFCURVE",
"127 54 CURVE",
"151 69 OFFCURVE",
"209 63 OFFCURVE",
"291 19 CURVE SMOOTH",
"330 -1 OFFCURVE",
"372 -24 OFFCURVE",
"415 -44 CURVE SMOOTH",
"458 -63 OFFCURVE",
"500 -80 OFFCURVE",
"537 -89 CURVE SMOOTH",
"612 -106 OFFCURVE",
"651 -90 OFFCURVE",
"654 -21 CURVE",
"659 -13 OFFCURVE",
"668 2 OFFCURVE",
"668 11 CURVE SMOOTH",
"668 25 OFFCURVE",
"660 30 OFFCURVE",
"650 37 CURVE SMOOTH",
"646 39 OFFCURVE",
"642 44 OFFCURVE",
"638 47 CURVE SMOOTH",
"631 51 OFFCURVE",
"631 46 OFFCURVE",
"634 41 CURVE SMOOTH",
"643 27 OFFCURVE",
"653 9 OFFCURVE",
"650 -8 CURVE SMOOTH",
"642 -61 OFFCURVE",
"566 -48 OFFCURVE",
"498 -27 CURVE SMOOTH",
"427 -6 OFFCURVE",
"353 30 OFFCURVE",
"332 39 CURVE SMOOTH",
"314 46 OFFCURVE",
"288 59 OFFCURVE",
"260 72 CURVE SMOOTH",
"232 84 OFFCURVE",
"201 95 OFFCURVE",
"164 101 CURVE",
"205 139 OFFCURVE",
"258 182 OFFCURVE",
"325 229 CURVE",
"386 240 OFFCURVE",
"445 255 OFFCURVE",
"507 252 CURVE SMOOTH",
"535 251 OFFCURVE",
"569 239 OFFCURVE",
"571 222 CURVE SMOOTH",
"571 219 OFFCURVE",
"577 221 OFFCURVE",
"576 225 CURVE SMOOTH",
"569 252 OFFCURVE",
"552 273 OFFCURVE",
"542 278 CURVE SMOOTH",
"511 294 OFFCURVE",
"459 288 OFFCURVE",
"390 274 CURVE",
"530 363 OFFCURVE",
"676 459 OFFCURVE",
"736 491 CURVE"
);
}
);
width = 623;
},
{
hints = (
{
horizontal = 1;
place = "{-111, 74}";
type = Stem;
},
{
horizontal = 1;
place = "{241, 50}";
type = Stem;
},
{
horizontal = 1;
place = "{496, 58}";
type = Stem;
}
);
layerId = "10EE7422-BC27-45A8-8DF8-0D41623AEA15";
paths = (
{
closed = 1;
nodes = (
"760 486 OFFCURVE",
"733 505 OFFCURVE",
"716 512 CURVE",
"710 519 OFFCURVE",
"704 524 OFFCURVE",
"698 527 CURVE SMOOTH",
"615 573 OFFCURVE",
"216 561 OFFCURVE",
"191 481 CURVE SMOOTH",
"188 470 OFFCURVE",
"196 415 OFFCURVE",
"208 418 CURVE SMOOTH",
"293 437 LINE",
"293 438 OFFCURVE",
"292 440 OFFCURVE",
"292 440 CURVE",
"278 440 OFFCURVE",
"259 439 OFFCURVE",
"249 440 CURVE",
"316 466 OFFCURVE",
"545 515 OFFCURVE",
"647 487 CURVE",
"566 446 OFFCURVE",
"399 314 OFFCURVE",
"362 288 CURVE SMOOTH",
"349 279 OFFCURVE",
"344 276 OFFCURVE",
"331 267 CURVE",
"203 232 OFFCURVE",
"132 208 OFFCURVE",
"105 211 CURVE SMOOTH",
"96 212 OFFCURVE",
"83 197 OFFCURVE",
"107 196 CURVE SMOOTH",
"143 193 OFFCURVE",
"199 199 OFFCURVE",
"265 212 CURVE",
"214 170 OFFCURVE",
"172 132 OFFCURVE",
"154 108 CURVE",
"111 109 OFFCURVE",
"60 71 OFFCURVE",
"52 17 CURVE SMOOTH",
"51 7 OFFCURVE",
"56 -7 OFFCURVE",
"67 -18 CURVE SMOOTH",
"74 -25 OFFCURVE",
"88 -16 OFFCURVE",
"79 -5 CURVE SMOOTH",
"67 9 OFFCURVE",
"70 20 OFFCURVE",
"80 27 CURVE SMOOTH",
"86 31 OFFCURVE",
"92 34 OFFCURVE",
"98 36 CURVE",
"91 26 OFFCURVE",
"86 16 OFFCURVE",
"81 7 CURVE SMOOTH",
"77 -3 OFFCURVE",
"91 -7 OFFCURVE",
"95 3 CURVE SMOOTH",
"101 15 OFFCURVE",
"109 27 OFFCURVE",
"119 40 CURVE",
"140 53 OFFCURVE",
"195 54 OFFCURVE",
"276 9 CURVE SMOOTH",
"428 -76 OFFCURVE",
"647 -199 OFFCURVE",
"655 -16 CURVE",
"668 4 OFFCURVE",
"672 4 OFFCURVE",
"673 6 CURVE",
"673 7 OFFCURVE",
"673 8 OFFCURVE",
"673 14 CURVE SMOOTH",
"673 36 OFFCURVE",
"656 41 OFFCURVE",
"641 51 CURVE SMOOTH",
"634 55 OFFCURVE",
"629 65 OFFCURVE",
"619 69 CURVE",
"618 69 OFFCURVE",
"613 64 OFFCURVE",
"619 58 CURVE SMOOTH",
"634 45 OFFCURVE",
"649 20 OFFCURVE",
"645 -4 CURVE SMOOTH",
"631 -93 OFFCURVE",
"375 29 OFFCURVE",
"334 46 CURVE SMOOTH",
"298 61 OFFCURVE",
"230 98 OFFCURVE",
"175 106 CURVE",
"208 136 OFFCURVE",
"261 178 OFFCURVE",
"327 224 CURVE",
"371 232 OFFCURVE",
"415 239 OFFCURVE",
"451 241 CURVE SMOOTH",
"474 242 OFFCURVE",
"563 252 OFFCURVE",
"566 221 CURVE SMOOTH",
"567 207 OFFCURVE",
"580 213 OFFCURVE",
"577 225 CURVE SMOOTH",
"569 254 OFFCURVE",
"549 274 OFFCURVE",
"538 280 CURVE SMOOTH",
"505 296 OFFCURVE",
"458 292 OFFCURVE",
"416 284 CURVE",
"534 357 OFFCURVE",
"694 452 OFFCURVE",
"752 482 CURVE SMOOTH"
);
}
);
width = 623;
}
);
note = Z;
unicode = 005A;
},
{
glyphname = a;
lastChange = "2021-09-06 07:58:07 +0000";
layers = (
{
hints = (
{
horizontal = 1;
place = "{-21, 13}";
type = Stem;
},
{
horizontal = 1;
place = "{256, -20}";
target = down;
type = TopGhost;
},
{
place = "{173, 35}";
type = Stem;
}
);
layerId = "E1C4CDDB-EFDF-468A-8ACC-65E2DFDE53DF";
paths = (
{
closed = 1;
nodes = (
"344 146 OFFCURVE",
"339 147 OFFCURVE",
"334 140 CURVE SMOOTH",
"318 115 OFFCURVE",
"306 99 OFFCURVE",
"291 78 CURVE SMOOTH",
"275 57 OFFCURVE",
"260 38 OFFCURVE",
"245 24 CURVE SMOOTH",
"230 8 OFFCURVE",
"200 0 OFFCURVE",
"211 42 CURVE SMOOTH",
"222 85 OFFCURVE",
"249 129 OFFCURVE",
"274 167 CURVE",
"278 178 OFFCURVE",
"257 182 OFFCURVE",
"246 182 CURVE SMOOTH",
"237 182 OFFCURVE",
"231 182 OFFCURVE",
"227 177 CURVE SMOOTH",
"208 147 OFFCURVE",
"132 42 OFFCURVE",
"77 0 CURVE SMOOTH",
"59 -13 OFFCURVE",
"51 -8 OFFCURVE",
"48 1 CURVE SMOOTH",
"46 9 OFFCURVE",
"49 23 OFFCURVE",
"54 36 CURVE SMOOTH",
"86 128 OFFCURVE",
"199 230 OFFCURVE",
"258 218 CURVE SMOOTH",
"269 216 OFFCURVE",
"275 211 OFFCURVE",
"278 207 CURVE SMOOTH",
"279 205 LINE",
"283 211 OFFCURVE",
"277 222 OFFCURVE",
"274 225 CURVE",
"260 245 OFFCURVE",
"245 256 OFFCURVE",
"233 256 CURVE SMOOTH",
"151 257 OFFCURVE",
"22 127 OFFCURVE",
"22 35 CURVE SMOOTH",
"22 15 OFFCURVE",
"36 -21 OFFCURVE",
"64 -21 CURVE SMOOTH",
"86 -21 OFFCURVE",
"154 54 OFFCURVE",
"197 118 CURVE",
"187 96 OFFCURVE",
"176 57 OFFCURVE",
"174 45 CURVE SMOOTH",
"171 20 OFFCURVE",
"174 -1 OFFCURVE",
"211 -9 CURVE SMOOTH",
"227 -12 OFFCURVE",
"248 8 OFFCURVE",
"271 37 CURVE SMOOTH",
"296 68 OFFCURVE",
"319 104 OFFCURVE",
"340 138 CURVE SMOOTH"
);
}
);
width = 270;
},
{
anchors = (
{
name = bottom;
position = "{64, -21}";
},
{
name = ogonek;
position = "{290, 0}";
},
{
name = top;
position = "{293, 383}";
}
);
hints = (
{
horizontal = 1;
place = "{-21, 20}";
type = Stem;
},
{
horizontal = 1;
place = "{256, -20}";
target = down;
type = TopGhost;
},
{
place = "{168, 46}";
type = Stem;
}
);
layerId = "10EE7422-BC27-45A8-8DF8-0D41623AEA15";
paths = (
{
closed = 1;
nodes = (
"352 150 OFFCURVE",
"351 165 OFFCURVE",
"335 145 CURVE SMOOTH",
"302 103 OFFCURVE",
"270 58 OFFCURVE",
"242 31 CURVE SMOOTH",
"230 20 OFFCURVE",
"207 13 OFFCURVE",
"216 44 CURVE SMOOTH",
"226 84 OFFCURVE",
"253 126 OFFCURVE",
"278 163 CURVE",
"284 175 OFFCURVE",
"255 184 OFFCURVE",
"241 184 CURVE SMOOTH",
"225 184 OFFCURVE",
"222 183 OFFCURVE",
"218 176 CURVE",
"208 138 OFFCURVE",
"129 49 OFFCURVE",
"74 9 CURVE SMOOTH",
"48 -11 OFFCURVE",
"49 12 OFFCURVE",
"58 37 CURVE SMOOTH",
"87 114 OFFCURVE",
"216 217 OFFCURVE",
"257 209 CURVE SMOOTH",
"276 206 OFFCURVE",
"276 194 OFFCURVE",
"278 195 CURVE SMOOTH",
"290 201 OFFCURVE",
"283 219 OFFCURVE",
"278 225 CURVE SMOOTH",
"264 244 OFFCURVE",
"247 256 OFFCURVE",
"233 256 CURVE SMOOTH",
"148 257 OFFCURVE",
"17 129 OFFCURVE",
"17 38 CURVE SMOOTH",
"17 18 OFFCURVE",
"31 -21 OFFCURVE",
"64 -21 CURVE SMOOTH",
"89 -21 OFFCURVE",
"163 69 OFFCURVE",
"184 99 CURVE",
"178 82 OFFCURVE",
"171 61 OFFCURVE",
"169 48 CURVE SMOOTH",
"165 22 OFFCURVE",
"170 -1 OFFCURVE",
"210 -9 CURVE SMOOTH",
"249 -17 OFFCURVE",
"311 84 OFFCURVE",
"324 103 CURVE SMOOTH",
"332 114 OFFCURVE",
"342 129 OFFCURVE",
"348 142 CURVE SMOOTH"
);
}
);
width = 270;
}
);
note = a;
unicode = 0061;
},
{
glyphname = ae;
lastChange = "2021-09-06 07:58:07 +0000";
layers = (
{
hints = (
{
horizontal = 1;
place = "{-23, 20}";
type = Stem;
},
{
horizontal = 1;
place = "{261, -20}";
target = down;
type = TopGhost;
},
{
place = "{187, 34}";
type = Stem;
},
{
place = "{402, 23}";
type = Stem;
}
);
layerId = "E1C4CDDB-EFDF-468A-8ACC-65E2DFDE53DF";
paths = (
{
closed = 1;
nodes = (
"302 -27 OFFCURVE",
"340 -2 OFFCURVE",
"368 34 CURVE SMOOTH",
"392 64 OFFCURVE",
"401 81 OFFCURVE",
"407 91 CURVE",
"407 92 OFFCURVE",
"405 97 OFFCURVE",
"403 94 CURVE SMOOTH",
"397 85 OFFCURVE",
"381 64 OFFCURVE",
"372 52 CURVE SMOOTH",
"359 35 OFFCURVE",
"338 15 OFFCURVE",
"317 2 CURVE SMOOTH",
"278 -21 OFFCURVE",
"204 -24 OFFCURVE",
"223 54 CURVE SMOOTH",
"240 121 OFFCURVE",
"293 188 OFFCURVE",
"347 226 CURVE SMOOTH",
"389 254 OFFCURVE",
"423 227 OFFCURVE",
"387 189 CURVE SMOOTH",
"377 179 OFFCURVE",
"364 169 OFFCURVE",
"351 160 CURVE SMOOTH",
"338 151 OFFCURVE",
"323 143 OFFCURVE",
"309 133 CURVE SMOOTH",
"282 115 OFFCURVE",
"250 91 OFFCURVE",
"241 68 CURVE SMOOTH",
"239 63 OFFCURVE",
"245 65 OFFCURVE",
"245 65 CURVE",
"254 84 OFFCURVE",
"277 100 OFFCURVE",
"305 115 CURVE SMOOTH",
"320 123 OFFCURVE",
"335 131 OFFCURVE",
"350 139 CURVE SMOOTH",
"365 146 OFFCURVE",
"379 155 OFFCURVE",
"391 163 CURVE SMOOTH",
"429 190 OFFCURVE",
"437 235 OFFCURVE",
"403 245 CURVE SMOOTH",
"395 247 OFFCURVE",
"385 249 OFFCURVE",
"377 251 CURVE SMOOTH",
"370 253 OFFCURVE",
"362 256 OFFCURVE",
"357 261 CURVE",
"332 260 OFFCURVE",
"304 244 OFFCURVE",
"278 219 CURVE",
"277 222 OFFCURVE",
"275 224 OFFCURVE",
"274 225 CURVE SMOOTH",
"260 245 OFFCURVE",
"245 256 OFFCURVE",
"233 256 CURVE SMOOTH",
"151 257 OFFCURVE",
"22 127 OFFCURVE",
"22 35 CURVE SMOOTH",
"22 15 OFFCURVE",
"36 -21 OFFCURVE",
"64 -21 CURVE SMOOTH",
"86 -21 OFFCURVE",
"154 54 OFFCURVE",
"197 118 CURVE",
"175 67 OFFCURVE",
"185 -15 OFFCURVE",
"253 -22 CURVE SMOOTH"
);
},
{
closed = 1;
nodes = (
"59 -13 OFFCURVE",
"51 -8 OFFCURVE",
"48 1 CURVE SMOOTH",
"46 9 OFFCURVE",
"49 23 OFFCURVE",
"54 36 CURVE SMOOTH",
"86 128 OFFCURVE",
"199 230 OFFCURVE",
"258 218 CURVE SMOOTH",
"264 217 OFFCURVE",
"268 215 OFFCURVE",
"271 213 CURVE",
"262 204 OFFCURVE",
"253 193 OFFCURVE",
"245 182 CURVE",
"236 182 OFFCURVE",
"230 182 OFFCURVE",
"227 177 CURVE SMOOTH",
"208 147 OFFCURVE",
"132 42 OFFCURVE",
"77 0 CURVE SMOOTH"
);
}
);
width = 368;
},
{
hints = (
{
horizontal = 1;
place = "{-23, 20}";
type = Stem;
},
{
horizontal = 1;
place = "{261, -20}";
target = down;
type = TopGhost;
},
{
place = "{17, 202}";
type = Stem;
},
{
place = "{393, 37}";
type = Stem;
}
);
layerId = "10EE7422-BC27-45A8-8DF8-0D41623AEA15";
paths = (
{
closed = 1;
nodes = (
"387 249 OFFCURVE",
"366 252 OFFCURVE",
"358 261 CURVE",
"333 261 OFFCURVE",
"305 247 OFFCURVE",
"279 224 CURVE",
"278 225 LINE SMOOTH",
"263 243 OFFCURVE",
"247 256 OFFCURVE",
"233 256 CURVE SMOOTH",
"148 257 OFFCURVE",
"17 129 OFFCURVE",
"17 38 CURVE SMOOTH",
"17 18 OFFCURVE",
"31 -21 OFFCURVE",
"64 -21 CURVE SMOOTH",
"89 -21 OFFCURVE",
"163 69 OFFCURVE",
"184 99 CURVE",
"181 91 OFFCURVE",
"182 55 OFFCURVE",
"184 43 CURVE SMOOTH",
"190 0 OFFCURVE",
"223 -19 OFFCURVE",
"252 -22 CURVE SMOOTH",
"303 -27 OFFCURVE",
"342 2 OFFCURVE",
"370 37 CURVE SMOOTH",
"416 93 OFFCURVE",
"405 110 OFFCURVE",
"366 61 CURVE SMOOTH",
"353 45 OFFCURVE",
"331 23 OFFCURVE",
"311 11 CURVE SMOOTH",
"275 -9 OFFCURVE",
"205 -14 OFFCURVE",
"222 55 CURVE SMOOTH",
"239 123 OFFCURVE",
"300 180 OFFCURVE",
"354 216 CURVE SMOOTH",
"388 239 OFFCURVE",
"408 219 OFFCURVE",
"381 187 CURVE SMOOTH",
"346 145 OFFCURVE",
"269 116 OFFCURVE",
"249 57 CURVE SMOOTH",
"246 48 OFFCURVE",
"255 45 OFFCURVE",
"259 54 CURVE SMOOTH",
"272 86 OFFCURVE",
"352 119 OFFCURVE",
"398 156 CURVE SMOOTH",
"433 184 OFFCURVE",
"446 233 OFFCURVE",
"403 245 CURVE SMOOTH"
);
},
{
closed = 1;
nodes = (
"255 201 OFFCURVE",
"248 193 OFFCURVE",
"241 184 CURVE",
"225 184 OFFCURVE",
"222 183 OFFCURVE",
"218 176 CURVE",
"208 138 OFFCURVE",
"129 49 OFFCURVE",
"74 9 CURVE SMOOTH",
"48 -11 OFFCURVE",
"49 12 OFFCURVE",
"58 37 CURVE SMOOTH",
"87 114 OFFCURVE",
"216 217 OFFCURVE",
"257 209 CURVE",
"259 209 OFFCURVE",
"261 209 OFFCURVE",
"262 208 CURVE"
);
}
);
width = 365;
}
);
note = ae;
unicode = 00E6;
},
{
glyphname = b;
lastChange = "2021-09-06 07:58:07 +0000";
layers = (
{
hints = (
{
horizontal = 1;
place = "{-28, 13}";
type = Stem;
},
{
place = "{44, 38}";
type = Stem;
}
);
layerId = "E1C4CDDB-EFDF-468A-8ACC-65E2DFDE53DF";
paths = (
{
closed = 1;
nodes = (
"416 586 OFFCURVE",
"413 617 OFFCURVE",
"382 620 CURVE SMOOTH",
"336 625 OFFCURVE",
"220 479 OFFCURVE",
"136 319 CURVE SMOOTH",
"81 213 OFFCURVE",
"43 109 OFFCURVE",
"44 43 CURVE SMOOTH",
"47 -51 OFFCURVE",
"137 -42 OFFCURVE",
"187 16 CURVE SMOOTH",
"210 43 OFFCURVE",
"240 85 OFFCURVE",
"258 124 CURVE SMOOTH",
"269 149 OFFCURVE",
"293 214 OFFCURVE",
"272 231 CURVE SMOOTH",
"255 244 OFFCURVE",
"228 228 OFFCURVE",
"221 187 CURVE SMOOTH",
"217 163 OFFCURVE",
"220 128 OFFCURVE",
"232 99 CURVE",
"227 89 OFFCURVE",
"209 56 OFFCURVE",
"171 15 CURVE SMOOTH",
"141 -18 OFFCURVE",
"82 -36 OFFCURVE",
"82 29 CURVE SMOOTH",
"82 203 OFFCURVE",
"256 427 OFFCURVE",
"340 528 CURVE SMOOTH",
"395 595 OFFCURVE",
"433 568 OFFCURVE",
"383 495 CURVE SMOOTH",
"368 474 OFFCURVE",
"349 450 OFFCURVE",
"329 425 CURVE SMOOTH",
"307 397 OFFCURVE",
"159 212 OFFCURVE",
"125 145 CURVE SMOOTH",
"122 139 OFFCURVE",
"125 134 OFFCURVE",
"131 144 CURVE SMOOTH",
"148 174 OFFCURVE",
"182 224 OFFCURVE",
"223 275 CURVE SMOOTH",
"274 339 OFFCURVE",
"331 405 OFFCURVE",
"359 439 CURVE SMOOTH",
"402 493 OFFCURVE",
"436 542 OFFCURVE",
"438 573 CURVE"
);
}
);
width = 258;
},
{
hints = (
{
horizontal = 1;
place = "{-27, 22}";
type = Stem;
},
{
horizontal = 1;
place = "{620, -20}";
target = down;
type = TopGhost;
},
{
place = "{50, 48}";
type = Stem;
}
);
layerId = "10EE7422-BC27-45A8-8DF8-0D41623AEA15";
paths = (
{
closed = 1;
nodes = (
"430 583 OFFCURVE",
"428 616 OFFCURVE",
"393 620 CURVE SMOOTH",
"292 631 OFFCURVE",
"-75 26 OFFCURVE",
"93 -24 CURVE SMOOTH",
"124 -33 OFFCURVE",
"165 -25 OFFCURVE",
"201 17 CURVE SMOOTH",
"224 44 OFFCURVE",
"255 86 OFFCURVE",
"273 125 CURVE SMOOTH",
"285 151 OFFCURVE",
"311 209 OFFCURVE",
"286 235 CURVE SMOOTH",
"269 253 OFFCURVE",
"237 244 OFFCURVE",
"222 183 CURVE SMOOTH",
"215 153 OFFCURVE",
"225 113 OFFCURVE",
"229 102 CURVE",
"222 80 OFFCURVE",
"212 62 OFFCURVE",
"175 22 CURVE SMOOTH",
"148 -7 OFFCURVE",
"100 -24 OFFCURVE",
"98 33 CURVE SMOOTH",
"91 171 OFFCURVE",
"278 408 OFFCURVE",
"363 508 CURVE SMOOTH",
"420 576 OFFCURVE",
"433 558 OFFCURVE",
"389 495 CURVE SMOOTH",
"375 474 OFFCURVE",
"356 450 OFFCURVE",
"336 426 CURVE SMOOTH",
"312 396 OFFCURVE",
"131 173 OFFCURVE",
"125 131 CURVE SMOOTH",
"123 120 OFFCURVE",
"131 117 OFFCURVE",
"134 128 CURVE SMOOTH",
"148 172 OFFCURVE",
"317 366 OFFCURVE",
"373 434 CURVE SMOOTH",
"417 488 OFFCURVE",
"454 539 OFFCURVE",
"454 572 CURVE"
);
}
);
width = 265;
}
);
note = b;
unicode = 0062;
},
{
glyphname = c;
lastChange = "2021-09-06 07:58:07 +0000";
layers = (
{
hints = (
{
horizontal = 1;
place = "{-25, 10}";
type = Stem;
},
{
horizontal = 1;
place = "{233, 28}";
type = Stem;
},
{
place = "{38, 28}";
type = Stem;
}
);
layerId = "E1C4CDDB-EFDF-468A-8ACC-65E2DFDE53DF";
paths = (
{
closed = 1;
nodes = (
"258 247 OFFCURVE",
"227 261 OFFCURVE",
"202 261 CURVE SMOOTH",
"146 262 OFFCURVE",
"80 191 OFFCURVE",
"51 122 CURVE SMOOTH",
"4 7 OFFCURVE",
"91 -62 OFFCURVE",
"169 -5 CURVE SMOOTH",
"199 16 OFFCURVE",
"225 54 OFFCURVE",
"245 84 CURVE SMOOTH",
"253 96 OFFCURVE",
"248 100 OFFCURVE",
"242 91 CURVE SMOOTH",
"218 55 OFFCURVE",
"193 25 OFFCURVE",
"164 3 CURVE SMOOTH",
"125 -25 OFFCURVE",
"46 -31 OFFCURVE",
"71 64 CURVE SMOOTH",
"83 112 OFFCURVE",
"132 182 OFFCURVE",
"188 224 CURVE SMOOTH",
"212 241 OFFCURVE",
"239 232 OFFCURVE",
"245 213 CURVE",
"245 211 OFFCURVE",
"250 213 OFFCURVE",
"251 217 CURVE SMOOTH"
);
}
);
width = 210;
},
{
anchors = (
{
name = bottom;
position = "{71, -20}";
},
{
name = top;
position = "{264, 396}";
}
);
hints = (
{
horizontal = 1;
place = "{-25, 20}";
type = Stem;
},
{
horizontal = 1;
place = "{261, -20}";
target = down;
type = TopGhost;
},
{
place = "{32, 45}";
type = Stem;
}
);
layerId = "10EE7422-BC27-45A8-8DF8-0D41623AEA15";
paths = (
{
closed = 1;
nodes = (
"238 259 OFFCURVE",
"216 261 OFFCURVE",
"202 261 CURVE SMOOTH",
"143 262 OFFCURVE",
"75 191 OFFCURVE",
"47 124 CURVE SMOOTH",
"-2 10 OFFCURVE",
"79 -61 OFFCURVE",
"168 -5 CURVE SMOOTH",
"187 6 OFFCURVE",
"206 26 OFFCURVE",
"223 46 CURVE SMOOTH",
"259 90 OFFCURVE",
"249 107 OFFCURVE",
"231 84 CURVE SMOOTH",
"206 53 OFFCURVE",
"189 35 OFFCURVE",
"160 14 CURVE SMOOTH",
"129 -8 OFFCURVE",
"59 -25 OFFCURVE",
"81 57 CURVE SMOOTH",
"93 102 OFFCURVE",
"159 178 OFFCURVE",
"196 205 CURVE SMOOTH",
"212 217 OFFCURVE",
"249 231 OFFCURVE",
"249 200 CURVE",
"261 206 OFFCURVE",
"256 234 OFFCURVE",
"252 239 CURVE SMOOTH"
);
}
);
width = 212;
}
);
note = c;
unicode = 0063;
},
{
glyphname = d;
lastChange = "2021-09-06 07:58:07 +0000";
layers = (
{
hints = (
{
horizontal = 1;
place = "{-20, 12}";
type = Stem;
},
{
horizontal = 1;
place = "{651, -20}";
target = down;
type = TopGhost;
},
{
place = "{22, 26}";
type = Stem;
},
{
place = "{205, 26}";
type = Stem;
}
);
layerId = "E1C4CDDB-EFDF-468A-8ACC-65E2DFDE53DF";
paths = (
{
closed = 1;
nodes = (
"718 642 OFFCURVE",
"696 650 OFFCURVE",
"683 651 CURVE SMOOTH",
"655 654 OFFCURVE",
"625 651 OFFCURVE",
"599 644 CURVE SMOOTH",
"542 631 OFFCURVE",
"488 598 OFFCURVE",
"436 536 CURVE SMOOTH",
"376 465 OFFCURVE",
"308 350 OFFCURVE",
"255 239 CURVE",
"245 248 OFFCURVE",
"239 250 OFFCURVE",
"233 250 CURVE SMOOTH",
"151 251 OFFCURVE",
"22 124 OFFCURVE",
"22 34 CURVE SMOOTH",
"22 16 OFFCURVE",
"49 -21 OFFCURVE",
"79 -21 CURVE SMOOTH",
"113 -21 OFFCURVE",
"166 41 OFFCURVE",
"213 117 CURVE",
"208 96 OFFCURVE",
"205 58 OFFCURVE",
"205 45 CURVE SMOOTH",
"205 -23 OFFCURVE",
"260 -40 OFFCURVE",
"306 6 CURVE SMOOTH",
"337 37 OFFCURVE",
"380 105 OFFCURVE",
"389 119 CURVE",
"392 122 OFFCURVE",
"390 127 OFFCURVE",
"385 120 CURVE SMOOTH",
"355 77 OFFCURVE",
"320 29 OFFCURVE",
"295 7 CURVE SMOOTH",
"277 -9 OFFCURVE",
"241 -20 OFFCURVE",
"233 15 CURVE SMOOTH",
"214 105 OFFCURVE",
"329 348 OFFCURVE",
"471 510 CURVE SMOOTH",
"516 562 OFFCURVE",
"564 604 OFFCURVE",
"608 627 CURVE SMOOTH",
"631 639 OFFCURVE",
"693 651 OFFCURVE",
"716 631 CURVE SMOOTH",
"720 627 OFFCURVE",
"723 629 OFFCURVE",
"721 634 CURVE SMOOTH"
);
},
{
closed = 1;
nodes = (
"237 196 OFFCURVE",
"223 163 OFFCURVE",
"217 142 CURVE",
"182 93 OFFCURVE",
"128 27 OFFCURVE",
"92 0 CURVE SMOOTH",
"58 -25 OFFCURVE",
"41 13 OFFCURVE",
"51 39 CURVE SMOOTH",
"72 98 OFFCURVE",
"139 175 OFFCURVE",
"194 207 CURVE SMOOTH",
"203 212 OFFCURVE",
"230 223 OFFCURVE",
"247 220 CURVE"
);
}
);
width = 333;
},
{
hints = (
{
horizontal = 1;
place = "{-19, 275}";
type = Stem;
},
{
horizontal = 1;
place = "{636, 15}";
type = Stem;
},
{
place = "{17, 38}";
type = Stem;
},
{
place = "{196, 40}";
type = Stem;
}
);
layerId = "10EE7422-BC27-45A8-8DF8-0D41623AEA15";
paths = (
{
closed = 1;
nodes = (
"738 640 OFFCURVE",
"697 651 OFFCURVE",
"669 651 CURVE SMOOTH",
"584 651 OFFCURVE",
"505 622 OFFCURVE",
"432 536 CURVE SMOOTH",
"372 465 OFFCURVE",
"303 352 OFFCURVE",
"254 248 CURVE",
"247 254 OFFCURVE",
"241 256 OFFCURVE",
"233 256 CURVE SMOOTH",
"148 257 OFFCURVE",
"17 129 OFFCURVE",
"17 38 CURVE SMOOTH",
"17 18 OFFCURVE",
"46 -21 OFFCURVE",
"79 -21 CURVE SMOOTH",
"116 -21 OFFCURVE",
"166 41 OFFCURVE",
"200 94 CURVE",
"197 80 OFFCURVE",
"196 67 OFFCURVE",
"196 53 CURVE SMOOTH",
"196 -19 OFFCURVE",
"260 -41 OFFCURVE",
"309 7 CURVE SMOOTH",
"339 37 OFFCURVE",
"367 77 OFFCURVE",
"385 103 CURVE SMOOTH",
"408 136 OFFCURVE",
"412 168 OFFCURVE",
"381 126 CURVE SMOOTH",
"351 84 OFFCURVE",
"311 36 OFFCURVE",
"286 15 CURVE SMOOTH",
"270 1 OFFCURVE",
"245 -9 OFFCURVE",
"238 21 CURVE SMOOTH",
"220 107 OFFCURVE",
"344 340 OFFCURVE",
"486 500 CURVE SMOOTH",
"555 578 OFFCURVE",
"625 636 OFFCURVE",
"683 636 CURVE SMOOTH",
"707 636 OFFCURVE",
"722 631 OFFCURVE",
"739 620 CURVE SMOOTH",
"748 615 OFFCURVE",
"758 624 OFFCURVE",
"750 630 CURVE SMOOTH"
);
},
{
closed = 1;
nodes = (
"227 187 OFFCURVE",
"219 167 OFFCURVE",
"212 147 CURVE",
"178 99 OFFCURVE",
"125 34 OFFCURVE",
"89 9 CURVE SMOOTH",
"63 -11 OFFCURVE",
"49 12 OFFCURVE",
"58 37 CURVE SMOOTH",
"79 94 OFFCURVE",
"151 165 OFFCURVE",
"205 196 CURVE SMOOTH",
"214 201 OFFCURVE",
"225 205 OFFCURVE",
"235 208 CURVE"
);
}
);
width = 333;
}
);
note = d;
unicode = 0064;
},
{
glyphname = e;
lastChange = "2021-09-06 07:58:07 +0000";
layers = (
{
hints = (
{
horizontal = 1;
place = "{-23, 20}";
type = Stem;
},
{
horizontal = 1;
place = "{261, -20}";
target = down;
type = TopGhost;
},
{
place = "{245, 23}";
type = Stem;
}
);
layerId = "E1C4CDDB-EFDF-468A-8ACC-65E2DFDE53DF";
paths = (
{
closed = 1;
nodes = (
"238 247 OFFCURVE",
"228 249 OFFCURVE",
"220 251 CURVE SMOOTH",
"213 253 OFFCURVE",
"205 256 OFFCURVE",
"200 261 CURVE",
"128 259 OFFCURVE",
"23 119 OFFCURVE",
"35 41 CURVE SMOOTH",
"41 -1 OFFCURVE",
"72 -20 OFFCURVE",
"99 -22 CURVE SMOOTH",
"148 -28 OFFCURVE",
"181 -2 OFFCURVE",
"209 34 CURVE SMOOTH",
"233 64 OFFCURVE",
"244 85 OFFCURVE",
"250 95 CURVE",
"250 96 OFFCURVE",
"248 101 OFFCURVE",
"246 98 CURVE SMOOTH",
"240 89 OFFCURVE",
"223 66 OFFCURVE",
"213 53 CURVE SMOOTH",
"200 37 OFFCURVE",
"178 13 OFFCURVE",
"156 0 CURVE SMOOTH",
"117 -23 OFFCURVE",
"47 -24 OFFCURVE",
"67 54 CURVE SMOOTH",
"83 121 OFFCURVE",
"136 188 OFFCURVE",
"191 226 CURVE SMOOTH",
"232 254 OFFCURVE",
"266 227 OFFCURVE",
"230 189 CURVE SMOOTH",
"220 179 OFFCURVE",
"207 169 OFFCURVE",
"194 160 CURVE SMOOTH",
"181 151 OFFCURVE",
"166 143 OFFCURVE",
"153 133 CURVE SMOOTH",
"125 115 OFFCURVE",
"93 91 OFFCURVE",
"84 68 CURVE SMOOTH",
"82 63 OFFCURVE",
"88 65 OFFCURVE",
"88 65 CURVE",
"97 84 OFFCURVE",
"120 100 OFFCURVE",
"148 115 CURVE SMOOTH",
"163 123 OFFCURVE",
"178 131 OFFCURVE",
"193 139 CURVE SMOOTH",
"208 146 OFFCURVE",
"222 155 OFFCURVE",
"234 163 CURVE SMOOTH",
"272 190 OFFCURVE",
"281 235 OFFCURVE",
"246 245 CURVE SMOOTH"
);
}
);
width = 209;
},
{
anchors = (
{
name = bottom;
position = "{59, -18}";
},
{
name = ogonek;
position = "{188, 10}";
},
{
name = top;
position = "{262, 367}";
}
);
hints = (
{
horizontal = 1;
place = "{-23, 20}";
type = Stem;
},
{
horizontal = 1;
place = "{261, -20}";
target = down;
type = TopGhost;
},
{
place = "{237, 37}";
type = Stem;
}
);
layerId = "10EE7422-BC27-45A8-8DF8-0D41623AEA15";
paths = (
{
closed = 1;
nodes = (
"231 249 OFFCURVE",
"210 252 OFFCURVE",
"202 261 CURVE",
"126 262 OFFCURVE",
"18 122 OFFCURVE",
"30 43 CURVE SMOOTH",
"37 0 OFFCURVE",
"67 -19 OFFCURVE",
"96 -22 CURVE SMOOTH",
"147 -27 OFFCURVE",
"186 2 OFFCURVE",
"214 37 CURVE SMOOTH",
"260 93 OFFCURVE",
"249 110 OFFCURVE",
"210 61 CURVE SMOOTH",
"197 45 OFFCURVE",
"175 23 OFFCURVE",
"155 11 CURVE SMOOTH",
"119 -9 OFFCURVE",
"59 -16 OFFCURVE",
"76 53 CURVE SMOOTH",
"92 116 OFFCURVE",
"144 180 OFFCURVE",
"198 216 CURVE SMOOTH",
"232 239 OFFCURVE",
"252 219 OFFCURVE",
"225 187 CURVE SMOOTH",
"190 145 OFFCURVE",
"113 116 OFFCURVE",
"93 57 CURVE SMOOTH",
"90 48 OFFCURVE",
"99 45 OFFCURVE",
"103 54 CURVE SMOOTH",
"116 86 OFFCURVE",
"196 119 OFFCURVE",
"242 156 CURVE SMOOTH",
"277 184 OFFCURVE",
"290 233 OFFCURVE",
"247 245 CURVE SMOOTH"
);
}
);
width = 209;
}
);
note = e;
unicode = 0065;
},
{
color = 0;
glyphname = schwa;
lastChange = "2021-09-06 07:58:07 +0000";
layers = (
{
hints = (
{
horizontal = 1;
place = "{355, -48}";
type = Stem;
},
{
horizontal = 1;
place = "{162, -8}";
type = Stem;
},
{
horizontal = 1;
place = "{32, 21}";
target = up;
type = BottomGhost;
},
{
place = "{310, -50}";
type = Stem;
},
{
place = "{62, -31}";
type = Stem;
},
{
horizontal = 1;
place = "{94, -65}";
type = Stem;
}
);
layerId = "E1C4CDDB-EFDF-468A-8ACC-65E2DFDE53DF";
paths = (
{
closed = 1;
nodes = (
"200 115 OFFCURVE",
"153 63 OFFCURVE",
"118 46 CURVE SMOOTH",
"80 28 OFFCURVE",
"74 55 OFFCURVE",
"87 81 CURVE SMOOTH",
"116 139 OFFCURVE",
"201 193 OFFCURVE",
"265 221 CURVE SMOOTH",
"283 229 OFFCURVE",
"294 228 OFFCURVE",
"292 229 CURVE SMOOTH",
"284 232 OFFCURVE",
"275 232 OFFCURVE",
"266 232 CURVE",
"216 219 OFFCURVE",
"157 200 OFFCURVE",
"89 130 CURVE",
"28 60 OFFCURVE",
"42 -5 OFFCURVE",
"112 -5 CURVE SMOOTH",
"170 -6 OFFCURVE",
"249 66 OFFCURVE",
"290 150 CURVE SMOOTH",
"304 177 OFFCURVE",
"320 227 OFFCURVE",
"319 268 CURVE SMOOTH",
"318 323 OFFCURVE",
"283 347 OFFCURVE",
"232 347 CURVE SMOOTH",
"160 347 OFFCURVE",
"104 297 OFFCURVE",
"62 246 CURVE SMOOTH",
"19 194 LINE SMOOTH",
"9 182 OFFCURVE",
"19 169 OFFCURVE",
"26 178 CURVE SMOOTH",
"37 193 OFFCURVE",
"49 206 OFFCURVE",
"62 221 CURVE SMOOTH",
"101 261 OFFCURVE",
"142 304 OFFCURVE",
"193 320 CURVE SMOOTH",
"207 325 OFFCURVE",
"220 328 OFFCURVE",
"231 328 CURVE SMOOTH",
"306 328 OFFCURVE",
"240 189 OFFCURVE",
"226 163 CURVE SMOOTH"
);
}
);
width = 319;
},
{
hints = (
{
horizontal = 1;
place = "{355, -48}";
type = Stem;
},
{
horizontal = 1;
place = "{162, -8}";
type = Stem;
},
{
horizontal = 1;
place = "{32, 21}";
target = up;
type = BottomGhost;
},
{
place = "{310, -50}";
type = Stem;
},
{
place = "{62, -31}";
type = Stem;
},
{
horizontal = 1;
place = "{94, -65}";
type = Stem;
}
);
layerId = "10EE7422-BC27-45A8-8DF8-0D41623AEA15";
paths = (
{
closed = 1;
nodes = (
"200 115 OFFCURVE",
"153 63 OFFCURVE",
"118 46 CURVE SMOOTH",
"80 28 OFFCURVE",
"74 55 OFFCURVE",
"87 81 CURVE SMOOTH",
"116 139 OFFCURVE",
"201 193 OFFCURVE",
"265 221 CURVE SMOOTH",
"283 229 OFFCURVE",
"294 228 OFFCURVE",
"292 229 CURVE SMOOTH",
"284 232 OFFCURVE",
"275 232 OFFCURVE",
"266 232 CURVE",
"216 219 OFFCURVE",
"157 200 OFFCURVE",
"89 130 CURVE",
"28 60 OFFCURVE",
"42 -5 OFFCURVE",
"112 -5 CURVE SMOOTH",
"170 -6 OFFCURVE",
"249 66 OFFCURVE",
"290 150 CURVE SMOOTH",
"304 177 OFFCURVE",
"320 227 OFFCURVE",
"319 268 CURVE SMOOTH",
"318 323 OFFCURVE",
"283 347 OFFCURVE",
"232 347 CURVE SMOOTH",
"160 347 OFFCURVE",
"104 297 OFFCURVE",
"62 246 CURVE SMOOTH",
"19 194 LINE SMOOTH",
"9 182 OFFCURVE",
"19 169 OFFCURVE",
"26 178 CURVE SMOOTH",
"37 193 OFFCURVE",
"49 206 OFFCURVE",
"62 221 CURVE SMOOTH",
"101 261 OFFCURVE",
"142 304 OFFCURVE",
"193 320 CURVE SMOOTH",
"207 325 OFFCURVE",
"220 328 OFFCURVE",
"231 328 CURVE SMOOTH",
"306 328 OFFCURVE",
"240 189 OFFCURVE",
"226 163 CURVE SMOOTH"
);
}
);
width = 319;
}
);
unicode = 0259;
},
{
glyphname = f;
lastChange = "2021-09-06 07:58:07 +0000";
layers = (
{
hints = (
{
horizontal = 1;
place = "{303, 14}";
type = Stem;
}
);
layerId = "E1C4CDDB-EFDF-468A-8ACC-65E2DFDE53DF";
paths = (
{
closed = 1;
nodes = (
"432 598 OFFCURVE",
"392 605 OFFCURVE",
"375 626 CURVE",
"339 613 OFFCURVE",
"318 594 OFFCURVE",
"296 562 CURVE SMOOTH",
"251 498 OFFCURVE",
"209 411 OFFCURVE",
"166 316 CURVE",
"135 316 OFFCURVE",
"107 316 OFFCURVE",
"79 316 CURVE SMOOTH",
"75 316 OFFCURVE",
"71 312 OFFCURVE",
"71 309 CURVE SMOOTH",
"71 307 OFFCURVE",
"71 302 OFFCURVE",
"81 302 CURVE SMOOTH",
"105 303 OFFCURVE",
"129 303 OFFCURVE",
"160 303 CURVE",
"110 189 OFFCURVE",
"53 38 OFFCURVE",
"-10 -67 CURVE SMOOTH",
"-72 -169 OFFCURVE",
"-144 -239 OFFCURVE",
"-231 -239 CURVE SMOOTH",
"-245 -239 OFFCURVE",
"-259 -236 OFFCURVE",
"-270 -232 CURVE SMOOTH",
"-277 -229 OFFCURVE",
"-281 -235 OFFCURVE",
"-274 -238 CURVE SMOOTH",
"-262 -242 OFFCURVE",
"-248 -246 OFFCURVE",
"-233 -246 CURVE SMOOTH",
"-141 -246 OFFCURVE",
"-60 -204 OFFCURVE",
"-8 -140 CURVE SMOOTH",
"94 -11 OFFCURVE",
"135 155 OFFCURVE",
"203 302 CURVE",
"235 302 LINE",
"216 264 OFFCURVE",
"207 234 OFFCURVE",
"211 215 CURVE SMOOTH",
"212 209 OFFCURVE",
"216 213 OFFCURVE",
"215 216 CURVE SMOOTH",
"211 236 OFFCURVE",
"226 267 OFFCURVE",
"249 302 CURVE",
"292 301 OFFCURVE",
"332 302 OFFCURVE",
"373 303 CURVE SMOOTH",
"381 304 OFFCURVE",
"390 309 OFFCURVE",
"393 313 CURVE SMOOTH",
"396 317 OFFCURVE",
"392 317 OFFCURVE",
"381 317 CURVE SMOOTH",
"344 317 OFFCURVE",
"306 317 OFFCURVE",
"258 317 CURVE",
"320 403 OFFCURVE",
"399 494 OFFCURVE",
"422 518 CURVE SMOOTH",
"448 544 OFFCURVE",
"458 560 OFFCURVE",
"448 575 CURVE SMOOTH"
);
},
{
closed = 1;
nodes = (
"413 549 OFFCURVE",
"403 534 OFFCURVE",
"387 515 CURVE SMOOTH",
"357 481 OFFCURVE",
"286 395 OFFCURVE",
"242 317 CURVE",
"210 316 LINE",
"254 409 OFFCURVE",
"302 498 OFFCURVE",
"336 535 CURVE SMOOTH",
"365 567 OFFCURVE",
"394 585 OFFCURVE",
"409 582 CURVE SMOOTH",
"420 581 OFFCURVE",
"420 570 OFFCURVE",
"417 560 CURVE SMOOTH"
);
}
);
width = 180;
},
{
hints = (
{
horizontal = 1;
place = "{-246, 15}";
type = Stem;
},
{
horizontal = 1;
place = "{297, 24}";
type = Stem;
}
);
layerId = "10EE7422-BC27-45A8-8DF8-0D41623AEA15";
paths = (
{
closed = 1;
nodes = (
"438 594 OFFCURVE",
"380 615 OFFCURVE",
"377 627 CURVE",
"362 621 OFFCURVE",
"329 614 OFFCURVE",
"292 561 CURVE SMOOTH",
"247 497 OFFCURVE",
"204 411 OFFCURVE",
"163 320 CURVE",
"135 320 OFFCURVE",
"107 320 OFFCURVE",
"79 320 CURVE SMOOTH",
"65 320 OFFCURVE",
"58 296 OFFCURVE",
"81 297 CURVE SMOOTH",
"105 297 OFFCURVE",
"129 297 OFFCURVE",
"153 297 CURVE",
"98 176 OFFCURVE",
"45 48 OFFCURVE",
"-14 -48 CURVE SMOOTH",
"-76 -150 OFFCURVE",
"-150 -231 OFFCURVE",
"-233 -231 CURVE SMOOTH",
"-257 -231 OFFCURVE",
"-272 -225 OFFCURVE",
"-289 -214 CURVE SMOOTH",
"-298 -209 OFFCURVE",
"-308 -218 OFFCURVE",
"-300 -224 CURVE SMOOTH",
"-288 -234 OFFCURVE",
"-261 -246 OFFCURVE",
"-233 -246 CURVE SMOOTH",
"-139 -246 OFFCURVE",
"-57 -204 OFFCURVE",
"-4 -139 CURVE SMOOTH",
"66 -52 OFFCURVE",
"107 51 OFFCURVE",
"146 156 CURVE SMOOTH",
"159 190 OFFCURVE",
"181 241 OFFCURVE",
"207 296 CURVE",
"227 296 LINE",
"212 265 OFFCURVE",
"204 237 OFFCURVE",
"208 217 CURVE SMOOTH",
"211 200 OFFCURVE",
"221 210 OFFCURVE",
"220 217 CURVE SMOOTH",
"217 234 OFFCURVE",
"230 263 OFFCURVE",
"251 295 CURVE",
"292 295 OFFCURVE",
"332 295 OFFCURVE",
"373 297 CURVE SMOOTH",
"392 298 OFFCURVE",
"416 321 OFFCURVE",
"381 321 CURVE SMOOTH",
"344 321 OFFCURVE",
"306 320 OFFCURVE",
"268 320 CURVE",
"324 397 OFFCURVE",
"410 487 OFFCURVE",
"433 510 CURVE SMOOTH",
"459 537 OFFCURVE",
"464 555 OFFCURVE",
"452 573 CURVE SMOOTH"
);
},
{
closed = 1;
nodes = (
"354 481 OFFCURVE",
"282 396 OFFCURVE",
"239 320 CURVE",
"218 320 LINE",
"259 405 OFFCURVE",
"306 492 OFFCURVE",
"340 528 CURVE SMOOTH",
"399 591 OFFCURVE",
"448 590 OFFCURVE",
"383 515 CURVE SMOOTH"
);
}
);
width = 180;
}
);
note = f;
unicode = 0066;
},
{
glyphname = g;
lastChange = "2021-09-06 07:58:07 +0000";
layers = (
{
hints = (
{
horizontal = 1;
place = "{-325, 19}";
type = Stem;
},
{
horizontal = 1;
place = "{14, 12}";
type = Stem;
},
{
horizontal = 1;
place = "{275, -20}";
target = down;
type = TopGhost;
},
{
place = "{29, 38}";
type = Stem;
},
{
place = "{292, 10}";
type = Stem;
}
);
layerId = "E1C4CDDB-EFDF-468A-8ACC-65E2DFDE53DF";
paths = (
{
closed = 1;
nodes = (
"308 -19 OFFCURVE",
"290 13 OFFCURVE",
"248 20 CURVE",
"270 59 OFFCURVE",
"284 136 OFFCURVE",
"285 166 CURVE SMOOTH",
"285 177 OFFCURVE",
"289 190 OFFCURVE",
"263 190 CURVE",
"252 175 OFFCURVE",
"235 153 OFFCURVE",
"213 127 CURVE SMOOTH",
"189 100 OFFCURVE",
"159 69 OFFCURVE",
"120 39 CURVE SMOOTH",
"67 -2 OFFCURVE",
"30 62 OFFCURVE",
"130 160 CURVE SMOOTH",
"161 191 OFFCURVE",
"196 216 OFFCURVE",
"224 230 CURVE SMOOTH",
"242 238 OFFCURVE",
"276 231 OFFCURVE",
"282 223 CURVE SMOOTH",
"284 220 OFFCURVE",
"286 218 OFFCURVE",
"288 220 CURVE",
"289 222 OFFCURVE",
"291 228 OFFCURVE",
"286 241 CURVE SMOOTH",
"280 258 OFFCURVE",
"257 275 OFFCURVE",
"240 275 CURVE SMOOTH",
"180 275 OFFCURVE",
"82 173 OFFCURVE",
"50 121 CURVE SMOOTH",
"6 46 OFFCURVE",
"39 17 OFFCURVE",
"80 14 CURVE SMOOTH",
"126 11 OFFCURVE",
"206 105 OFFCURVE",
"248 159 CURVE",
"247 126 OFFCURVE",
"228 50 OFFCURVE",
"212 23 CURVE",
"170 10 OFFCURVE",
"113 -14 OFFCURVE",
"79 -30 CURVE SMOOTH",
"44 -47 OFFCURVE",
"10 -66 OFFCURVE",
"-31 -94 CURVE SMOOTH",
"-71 -123 OFFCURVE",
"-185 -218 OFFCURVE",
"-185 -261 CURVE SMOOTH",
"-185 -291 OFFCURVE",
"-143 -325 OFFCURVE",
"-114 -325 CURVE SMOOTH",
"12 -325 OFFCURVE",
"182 -111 OFFCURVE",
"243 7 CURVE",
"287 7 OFFCURVE",
"295 -23 OFFCURVE",
"292 -58 CURVE SMOOTH",
"291 -66 OFFCURVE",
"299 -67 OFFCURVE",
"301 -58 CURVE SMOOTH"
);
},
{
closed = 1;
nodes = (
"178 -48 OFFCURVE",
"36 -229 OFFCURVE",
"-61 -283 CURVE SMOOTH",
"-111 -311 OFFCURVE",
"-145 -315 OFFCURVE",
"-150 -287 CURVE SMOOTH",
"-155 -263 OFFCURVE",
"-134 -221 OFFCURVE",
"-108 -189 CURVE SMOOTH",
"-23 -90 OFFCURVE",
"132 -8 OFFCURVE",
"204 7 CURVE"
);
}
);
width = 285;
},
{
anchors = (
{
name = bottom;
position = "{143, -419}";
},
{
name = top;
position = "{296, 404}";
}
);
hints = (
{
horizontal = 1;
place = "{-335, 41}";
type = Stem;
},
{
horizontal = 1;
place = "{8, 21}";
target = up;
type = BottomGhost;
},
{
horizontal = 1;
place = "{282, -20}";
target = down;
type = TopGhost;
},
{
place = "{-190, 48}";
type = Stem;
},
{
place = "{24, 53}";
type = Stem;
},
{
place = "{287, 20}";
type = Stem;
}
);
layerId = "10EE7422-BC27-45A8-8DF8-0D41623AEA15";
paths = (
{
closed = 1;
nodes = (
"313 178 OFFCURVE",
"289 192 OFFCURVE",
"261 192 CURVE",
"238 162 OFFCURVE",
"194 101 OFFCURVE",
"117 42 CURVE SMOOTH",
"72 8 OFFCURVE",
"69 51 OFFCURVE",
"87 82 CURVE SMOOTH",
"119 137 OFFCURVE",
"181 190 OFFCURVE",
"224 211 CURVE SMOOTH",
"238 218 OFFCURVE",
"273 223 OFFCURVE",
"278 216 CURVE SMOOTH",
"288 204 OFFCURVE",
"300 213 OFFCURVE",
"291 238 CURVE SMOOTH",
"284 257 OFFCURVE",
"256 279 OFFCURVE",
"238 282 CURVE",
"174 282 OFFCURVE",
"77 173 OFFCURVE",
"46 121 CURVE SMOOTH",
"0 45 OFFCURVE",
"35 12 OFFCURVE",
"79 9 CURVE SMOOTH",
"129 5 OFFCURVE",
"211 101 OFFCURVE",
"240 138 CURVE",
"236 112 OFFCURVE",
"217 34 OFFCURVE",
"189 22 CURVE SMOOTH",
"104 -13 OFFCURVE",
"49 -32 OFFCURVE",
"-33 -89 CURVE SMOOTH",
"-73 -117 OFFCURVE",
"-190 -211 OFFCURVE",
"-190 -257 CURVE SMOOTH",
"-190 -291 OFFCURVE",
"-130 -335 OFFCURVE",
"-100 -335 CURVE SMOOTH",
"30 -335 OFFCURVE",
"182 -118 OFFCURVE",
"241 -6 CURVE",
"284 -6 OFFCURVE",
"286 -34 OFFCURVE",
"287 -73 CURVE SMOOTH",
"288 -93 OFFCURVE",
"296 -86 OFFCURVE",
"301 -73 CURVE SMOOTH",
"318 -34 OFFCURVE",
"301 16 OFFCURVE",
"256 23 CURVE",
"278 61 OFFCURVE",
"305 104 OFFCURVE",
"310 148 CURVE SMOOTH"
);
},
{
closed = 1;
nodes = (
"187 -35 OFFCURVE",
"33 -222 OFFCURVE",
"-63 -275 CURVE SMOOTH",
"-165 -331 OFFCURVE",
"-157 -251 OFFCURVE",
"-104 -190 CURVE SMOOTH",
"-20 -93 OFFCURVE",
"125 -13 OFFCURVE",
"189 0 CURVE"
);
}
);
width = 285;
}
);
note = g;
unicode = 0067;
},
{
glyphname = h;
lastChange = "2021-09-06 07:58:07 +0000";
layers = (
{
hints = (
{
horizontal = 1;
place = "{-5, 83}";
type = Stem;
},
{
horizontal = 1;
place = "{252, -20}";
target = down;
type = TopGhost;
},
{
horizontal = 1;
place = "{563, 55}";
type = Stem;
},
{
place = "{152, 25}";
type = Stem;
},
{
place = "{411, 30}";
type = Stem;
}
);
layerId = "E1C4CDDB-EFDF-468A-8ACC-65E2DFDE53DF";
paths = (
{
closed = 1;
nodes = (
"418 591 OFFCURVE",
"429 615 OFFCURVE",
"396 618 CURVE SMOOTH",
"348 623 OFFCURVE",
"228 475 OFFCURVE",
"152 334 CURVE SMOOTH",
"93 223 OFFCURVE",
"44 57 OFFCURVE",
"44 32 CURVE SMOOTH",
"44 -8 OFFCURVE",
"68 -10 OFFCURVE",
"74 -1 CURVE SMOOTH",
"91 27 OFFCURVE",
"109 63 OFFCURVE",
"130 91 CURVE SMOOTH",
"140 106 OFFCURVE",
"218 200 OFFCURVE",
"237 191 CURVE SMOOTH",
"241 189 OFFCURVE",
"242 176 OFFCURVE",
"228 151 CURVE SMOOTH",
"198 96 OFFCURVE",
"152 7 OFFCURVE",
"152 -40 CURVE SMOOTH",
"152 -60 OFFCURVE",
"160 -88 OFFCURVE",
"196 -88 CURVE SMOOTH",
"215 -88 OFFCURVE",
"226 -72 OFFCURVE",
"237 -48 CURVE",
"228 -56 OFFCURVE",
"217 -66 OFFCURVE",
"209 -73 CURVE SMOOTH",
"195 -85 OFFCURVE",
"183 -85 OFFCURVE",
"177 -72 CURVE",
"174 -62 OFFCURVE",
"175 -47 OFFCURVE",
"177 -34 CURVE SMOOTH",
"196 54 OFFCURVE",
"260 114 OFFCURVE",
"304 189 CURVE SMOOTH",
"318 214 OFFCURVE",
"324 236 OFFCURVE",
"308 243 CURVE SMOOTH",
"293 249 OFFCURVE",
"284 246 OFFCURVE",
"269 252 CURVE",
"222 206 OFFCURVE",
"159 135 OFFCURVE",
"111 88 CURVE SMOOTH",
"106 83 OFFCURVE",
"101 79 OFFCURVE",
"98 78 CURVE SMOOTH",
"93 77 OFFCURVE",
"86 79 OFFCURVE",
"89 93 CURVE SMOOTH",
"99 150 OFFCURVE",
"157 274 OFFCURVE",
"209 352 CURVE SMOOTH",
"248 410 OFFCURVE",
"302 482 OFFCURVE",
"345 529 CURVE SMOOTH",
"387 574 OFFCURVE",
"442 582 OFFCURVE",
"389 505 CURVE SMOOTH",
"311 392 OFFCURVE",
"209 294 OFFCURVE",
"142 174 CURVE SMOOTH",
"137 166 OFFCURVE",
"144 166 OFFCURVE",
"149 173 CURVE SMOOTH",
"208 261 OFFCURVE",
"285 356 OFFCURVE",
"357 434 CURVE SMOOTH",
"409 490 OFFCURVE",
"436 543 OFFCURVE",
"441 577 CURVE"
);
}
);
width = 281;
},
{
hints = (
{
horizontal = 1;
place = "{-88, 16}";
type = Stem;
},
{
horizontal = 1;
place = "{619, -20}";
target = down;
type = TopGhost;
}
);
layerId = "10EE7422-BC27-45A8-8DF8-0D41623AEA15";
paths = (
{
closed = 1;
nodes = (
"432 579 OFFCURVE",
"433 614 OFFCURVE",
"396 618 CURVE SMOOTH",
"345 624 OFFCURVE",
"222 473 OFFCURVE",
"148 336 CURVE SMOOTH",
"89 226 OFFCURVE",
"27 38 OFFCURVE",
"27 32 CURVE SMOOTH",
"27 -10 OFFCURVE",
"69 -15 OFFCURVE",
"78 0 CURVE SMOOTH",
"95 27 OFFCURVE",
"113 63 OFFCURVE",
"134 91 CURVE SMOOTH",
"169 138 OFFCURVE",
"271 239 OFFCURVE",
"224 155 CURVE SMOOTH",
"194 101 OFFCURVE",
"147 13 OFFCURVE",
"147 -36 CURVE SMOOTH",
"147 -57 OFFCURVE",
"156 -88 OFFCURVE",
"196 -88 CURVE SMOOTH",
"220 -88 OFFCURVE",
"232 -67 OFFCURVE",
"243 -43 CURVE SMOOTH",
"248 -32 OFFCURVE",
"241 -32 OFFCURVE",
"236 -39 CURVE",
"227 -45 OFFCURVE",
"215 -56 OFFCURVE",
"205 -64 CURVE SMOOTH",
"179 -86 OFFCURVE",
"177 -56 OFFCURVE",
"182 -31 CURVE SMOOTH",
"192 15 OFFCURVE",
"251 102 OFFCURVE",
"276 132 CURVE SMOOTH",
"293 153 OFFCURVE",
"359 225 OFFCURVE",
"320 246 CURVE SMOOTH",
"306 254 OFFCURVE",
"279 252 OFFCURVE",
"268 259 CURVE",
"220 213 OFFCURVE",
"156 141 OFFCURVE",
"107 94 CURVE SMOOTH",
"100 86 OFFCURVE",
"91 80 OFFCURVE",
"94 94 CURVE SMOOTH",
"104 150 OFFCURVE",
"151 242 OFFCURVE",
"202 319 CURVE SMOOTH",
"241 375 OFFCURVE",
"307 452 OFFCURVE",
"351 498 CURVE SMOOTH",
"421 571 OFFCURVE",
"433 552 OFFCURVE",
"378 484 CURVE SMOOTH",
"360 462 OFFCURVE",
"337 436 OFFCURVE",
"313 410 CURVE SMOOTH",
"284 378 OFFCURVE",
"158 224 OFFCURVE",
"147 179 CURVE SMOOTH",
"144 167 OFFCURVE",
"151 164 OFFCURVE",
"156 176 CURVE SMOOTH",
"176 223 OFFCURVE",
"301 350 OFFCURVE",
"369 423 CURVE SMOOTH",
"423 481 OFFCURVE",
"453 532 OFFCURVE",
"456 567 CURVE"
);
}
);
width = 281;
}
);
note = h;
unicode = 0068;
},
